<svg xmlns="http://www.w3.org/2000/svg" viewBox="0 0 24.85 27.62"><defs><style>.cls-1{fill:#c1c3c9;}</style></defs><g id="Layer_2" data-name="Layer 2"><g id="Layer_3" data-name="Layer 3"><path class="cls-1" d="M12.54,14.73A7.37,7.37,0,1,1,19.9,7.36,7.37,7.37,0,0,1,12.54,14.73ZM12.54,2A5.37,5.37,0,1,0,17.9,7.36,5.37,5.37,0,0,0,12.54,2Z"/><path class="cls-1" d="M23.85,27.62a1,1,0,0,1-1-1V22.48A3.8,3.8,0,0,0,19,18.74H5.85A3.8,3.8,0,0,0,2,22.48v4.14a1,1,0,0,1-2,0V22.48a5.8,5.8,0,0,1,5.85-5.74H19a5.8,5.8,0,0,1,5.85,5.74v4.14A1,1,0,0,1,23.85,27.62Z"/></g></g></svg>