
<svg xmlns="http://www.w3.org/2000/svg" width="60" height="60" viewBox="0 0 60 60"><defs><style>.a{fill:#f7f8fc;opacity:0;}.b{fill:#fde36a;}.c,.d{fill:#ffb332;}.c{stroke:rgba(0,0,0,0);stroke-miterlimit:10;}.e{fill:#cfa492;}.f,.g,.i{fill:none;}.f,.g{stroke:#424761;stroke-linecap:round;stroke-linejoin:round;}.f{stroke-width:1.5px;}.h{fill:#e89615;}.j{fill:#9bc9f4;}</style></defs><g transform="translate(-609.375 -339.473)"><rect class="a" width="60" height="60" transform="translate(609.375 339.473)"/><g transform="translate(63.644 -82.497)"><path class="b" d="M593.454,438.652l-.007,0c-.012.005-.023.012-.035.016a.616.616,0,0,0,.062-.025Z"/><path class="b" d="M596.771,437.974c-.691-3.181-2.252.069-4.381-.428-3.835-2.153-7.258-7.493-11.818-1.884-6.262,2.125-16.823.222-10.23,10.344,3.453,4.8,2.834,13.534,8.018,15.8,2.007-1.3-1.5-3.7-.936-5.645,3.667.24,6.4-4,7.732-7.177C588.46,451.009,596.913,444.38,596.771,437.974Zm-12.4,8.628c.043,1.971-3.009,3.225-3.276.759C580.944,444.56,584.494,442.751,584.375,446.6Zm-.428-3.561c-3.425,0-3.419-5.314,0-5.314S587.367,443.041,583.947,443.041Zm7.474-.193c-1.465,2.525-5.411,6.216-1.931,1.33C587.307,441.56,592.783,438.137,591.421,442.848Zm3.926-2.581c-.589,3.127-.838-1.113-1.935-1.6C594.487,437.987,595.6,438.791,595.347,440.267Z"/><path class="c" d="M24992.295,24055c-4.445-.111-6.32-3.129-6.709-6.68-.074-.186-.146-.369-.217-.555a9.269,9.269,0,0,1-.516-1.762,7.485,7.485,0,0,1-.119-1.449,2,2,0,0,0,.822.213.6.6,0,0,0,.084,0,14.95,14.95,0,0,1,2.357-6.621c4.691-14.586,9.234,5.627,8.688,12.164-.42,3.877-1.557,5.346-2.828,5.346A2.586,2.586,0,0,1,24992.295,24055Z" transform="translate(-24423.221 -23599.344)"/><path class="b" d="M566.454,445.973c-2.442-1.1,2.834-16.049-3.989-7.965-2.261,2.685,1.423,4.157.2,6.409-3.844,1.4-2.423-4.227-4-5.231-3.351-6.533-5.792,3.386-2.072,5.725C559.694,447.807,568.405,454.422,566.454,445.973Z"/><path class="d" d="M562.935,438.995c.571-4.1-5.745-4.665-6.087-.733C556.538,441.81,563.62,443.466,562.935,438.995Z"/><path class="d" d="M576.462,454.4l-.008,0-.01.014.009,0Z"/><path class="d" d="M576.454,454.4c.014-.029-.033.01,0,0Z"/><path class="d" d="M578.072,454.346a.9.9,0,0,0-1.006-.409,1.17,1.17,0,0,0-.6.462h0c.067-.03.033-.011-.011.012l-.035.041a.239.239,0,0,0,.026-.037l-.07.037c-.22.127-.461.215-.679.346a2.89,2.89,0,0,0-1.251,1.729,11.764,11.764,0,0,0-.342,2.233c-.038.4-.069.81-.092,1.215a3.252,3.252,0,0,0,.074,1.249.567.567,0,0,0,1.021.133,3.511,3.511,0,0,0,.332-1.127q.114-.568.251-1.133c.171-.692.339-1.394.565-2.071.014-.042.029-.083.044-.125,0-.006.043-.1.053-.115.035-.067.073-.13.114-.193-.055.083-.014.036.017-.017.016-.027.02-.035.026-.047,0,0,0,.006.016,0a1.507,1.507,0,0,1,.169-.1c.106-.059.218-.107.327-.159C577.744,455.916,578.529,455.229,578.072,454.346Z"/><path class="e" d="M587.869,463.394c-5.2,1.878-1.1-2.854-4.495-2.253-1.232-3.642-2.463,4-3.324,1.367-3.318-2.768-15.859-5.412-17-1.822C557.432,470.858,591.063,475.393,587.869,463.394Zm-3.69,2.853c-2.3-.029-6.045,4.309-3.889,1.351,1.874-3.914-8.284,1.028-11.318-.414-3.888-.11-1.4-6.488.576-3.321,3.4-.777,4.847.611,8.418.966C579.3,463.173,585.376,464.322,584.179,466.247Z"/><line class="f" x2="1.246" transform="translate(582.039 435.25)"/><path class="f" d="M585.63,435.25h2.22a1.312,1.312,0,0,1,1.31,1.33v.19c-.01.1-.01.2-.01.3-.03,1.12-.08,2.23-.17,3.33a32.108,32.108,0,0,1-.77,5.05c-.07.31-.15.61-.23.91a16.922,16.922,0,0,1-1.18,3.09,3.592,3.592,0,0,1-.17.34,10.148,10.148,0,0,1-9.09,5.59c-.38.02-.76.03-1.16.02a13.581,13.581,0,0,1-1.85-.15,12.272,12.272,0,0,1-1.9-.41,11.264,11.264,0,0,1-6.47-5.01v-.01a14.984,14.984,0,0,1-1.13-2.14c-.05-.12-.11-.24-.15-.37l-.33-.84a27.438,27.438,0,0,1-1.32-5.72c-.01-.12-.03-.23-.04-.35-.03-.23-.05-.47-.08-.71-.09-.86-.14-1.72-.18-2.59-.01-.17-.01-.34-.01-.51a1.308,1.308,0,0,1,1.31-1.34h14.809"/><path class="f" d="M577.54,455.38l1,6.26h-5.01l1-6.39a13.581,13.581,0,0,0,1.85.15C576.78,455.41,577.16,455.4,577.54,455.38Z"/><rect class="f" width="21.77" height="7.05" transform="translate(565.15 461.64)"/><rect class="g" width="15.825" height="2.787" transform="translate(568.123 463.772)"/><path class="f" d="M566.16,449.82v.01c-9.08,0-10.51-6.28-10.8-8.98s.44-3.78,1.46-3.78h6.08l.03.03c.04.87.09,1.73.18,2.59.03.24.05.48.08.71h-3.48c-.96,0-.95-.05-.72,1.11a5.655,5.655,0,0,0,5.56,4.96l.33.84c.04.13.1.25.15.37A14.984,14.984,0,0,0,566.16,449.82Z"/><path class="f" d="M597.4,440.85c.29-2.69-.44-3.78-1.46-3.78h-6.08l-.7.03"/><path class="f" d="M596.415,444.495c.15-.287.282-.575.4-.86"/><path class="f" d="M586.6,449.82v.01c3.826,0,6.294-1.116,7.891-2.608a8.262,8.262,0,0,0,.708-.751"/><path class="f" d="M588.98,440.4h4.073c.96,0,.95-.05.72,1.11a5.95,5.95,0,0,1-5.785,4.96"/><path class="h" d="M577.507,439.413l1.481,3a.484.484,0,0,0,.363.264l3.312.481a.483.483,0,0,1,.268.823l-2.4,2.336a.484.484,0,0,0-.139.427l.566,3.3a.483.483,0,0,1-.7.509L577.3,449a.485.485,0,0,0-.45,0l-2.961,1.558a.483.483,0,0,1-.7-.509l.566-3.3a.484.484,0,0,0-.139-.427l-2.4-2.336a.483.483,0,0,1,.268-.823l3.312-.481a.484.484,0,0,0,.363-.264l1.481-3A.483.483,0,0,1,577.507,439.413Z" transform="translate(-1.039 -0.992)"/><path class="i" d="M567.082,432.971a62.194,62.194,0,0,0,2.242,21.431"/></g><path class="j" d="M1557.6,399.976l-.039.224-.545.1-.554.1.554.1.545.1.039.224.04-.224.545-.1.554-.1-.554-.1-.545-.1-.04-.224m0-4.582.75,4.25,4.25.75-4.25.75-.75,4.25-.75-4.25-4.25-.75,4.25-.75Z" transform="translate(-934.225 -49.922)"/><path class="j" d="M1557.6,399.976l-.039.224-.545.1-.554.1.554.1.545.1.039.224.04-.224.545-.1.554-.1-.554-.1-.545-.1-.04-.224m0-4.582.75,4.25,4.25.75-4.25.75-.75,4.25-.75-4.25-4.25-.75,4.25-.75Z" transform="translate(-911.225 -54.922)"/></g></svg>
