<svg width="26" height="26" viewBox="0 0 26 26" fill="none" xmlns="http://www.w3.org/2000/svg">
<path d="M5.53124 0.461914C6.32296 0.616397 6.90227 1.11846 7.44296 1.67846C8.40848 2.66329 9.39331 3.6095 10.3202 4.61363C11.1892 5.55984 11.1892 6.83433 10.3202 7.79984C9.72158 8.4564 9.06503 9.07432 8.42779 9.71156C8.29262 9.84674 8.27331 9.92398 8.35055 10.0978C8.98779 11.4302 9.91469 12.5695 10.9188 13.6316C11.9423 14.7323 13.0623 15.7171 14.3368 16.5088C14.6843 16.7212 15.0512 16.9143 15.4181 17.1074C15.534 17.1847 15.6112 17.1654 15.7078 17.0688C16.2485 16.5281 16.7699 15.9681 17.3299 15.4467C17.6388 15.1571 17.9671 14.8867 18.3533 14.7323C19.3188 14.3074 20.1878 14.5392 20.9409 15.2536C22.003 16.2964 23.0457 17.3585 24.1078 18.4012C25.2085 19.4826 25.305 20.9116 24.2816 22.0123C23.5285 22.8233 22.7561 23.615 21.945 24.3681C21.0761 25.1598 19.9754 25.3529 18.8168 25.2564C17.0016 25.1019 15.3602 24.4647 13.7574 23.6729C11.3823 22.495 9.21951 20.9888 7.3271 19.135C4.46917 16.335 2.17124 13.1681 0.858134 9.36398C0.491237 8.2826 0.259513 7.18191 0.298134 6.02329C0.336755 4.98053 0.684341 4.07295 1.39882 3.31984C2.05538 2.64398 2.73124 1.96812 3.4071 1.31157C3.83193 0.886739 4.35331 0.61639 4.95193 0.500528H5.58917L5.53124 0.461914ZM19.2223 24.0205C19.9754 24.0205 20.6705 23.8467 21.2305 23.306C21.9643 22.6109 22.6595 21.8771 23.3354 21.1433C23.8374 20.6026 23.8374 19.9847 23.3354 19.4633C22.2347 18.3433 21.134 17.2426 20.014 16.1419C19.5892 15.7171 19.0485 15.7171 18.5657 16.0647C18.4305 16.1612 18.3147 16.2771 18.1988 16.3929C17.6002 16.9916 17.0016 17.5902 16.403 18.1888C15.9974 18.5943 15.5726 18.6523 15.0705 18.4012C14.7037 18.2081 14.3561 18.0343 14.0085 17.8219C12.5023 16.9143 11.1892 15.775 9.99193 14.5005C8.87193 13.284 7.82917 11.9902 7.15331 10.4647C6.86365 9.80812 6.92158 9.46053 7.44296 8.95846C8.02227 8.39846 8.62089 7.81915 9.18089 7.23984C9.87606 6.52536 9.87606 5.96536 9.18089 5.25088C8.17675 4.24674 7.17262 3.2426 6.16848 2.23846C6.014 2.08398 5.8402 1.94881 5.6471 1.85225C5.06779 1.60122 4.60434 1.85226 4.21813 2.23846C3.61951 2.83708 3.00158 3.41639 2.42227 4.03433C2.15193 4.34329 1.90089 4.69088 1.7271 5.07709C1.39882 5.88812 1.47606 6.71846 1.64986 7.54881C1.97813 9.13226 2.57675 10.5998 3.36848 11.9902C6.18779 16.9723 10.1464 20.7378 15.3988 23.055C16.6154 23.5957 17.8705 23.9626 19.2223 24.0205Z" fill="#9DBFF5" stroke="#9DBFF5" stroke-width="0.463448" stroke-miterlimit="10"/>
</svg>
