<svg xmlns="http://www.w3.org/2000/svg" viewBox="0 0 23.74 28.29"><defs><style>.cls-1{fill:#c1c3c9;}</style></defs><g id="Layer_2" data-name="Layer 2"><g id="Layer_3" data-name="Layer 3"><path class="cls-1" d="M10.74,6.21C10.74,2.79,8.33,0,5.37,0S0,2.79,0,6.21A6.26,6.26,0,0,0,3.46,12L3,25.78a2.35,2.35,0,0,0,.66,1.74,2.38,2.38,0,0,0,4.09-1.74L7.28,12A6.26,6.26,0,0,0,10.74,6.21ZM5.79,12.43l.46,13.4a.88.88,0,0,1-1.51.64.84.84,0,0,1-.24-.64L5,12.43Zm-.42-1.5c-2.14,0-3.87-2.12-3.87-4.72S3.23,1.5,5.37,1.5,9.24,3.61,9.24,6.21,7.51,10.93,5.37,10.93Z"/><path class="cls-1" d="M23.74,12.43l-.07-1.7L23.3,1.5A1.56,1.56,0,0,0,21.74,0l-.43,10.73H19.93L19.5,0a1.56,1.56,0,0,0-1.56,1.5l-.37,9.23H16.19L15.76,0A1.56,1.56,0,0,0,14.2,1.5l-.38,9.23-.07,1.7v.3H17L16.55,26a2.25,2.25,0,0,0,2.26,2.32h0A2.25,2.25,0,0,0,21.06,26l-.43-13.24h3.11ZM18.81,26.79h0a.76.76,0,0,1-.76-.77l.43-13.29h.65L19.56,26A.75.75,0,0,1,18.81,26.79Z"/></g></g></svg>