<svg width="56" height="57" viewBox="0 0 56 57" fill="none" xmlns="http://www.w3.org/2000/svg">
<path d="M32.5002 28.5L54.9002 5.99999C56.1002 4.79999 56.1002 2.89999 54.9002 1.79999C53.7002 0.599994 51.8002 0.599994 50.7002 1.79999L28.3002 24.3L5.80019 1.79999C4.60019 0.599994 2.7002 0.599994 1.6002 1.79999C0.400195 2.99999 0.400195 4.89999 1.6002 5.99999L24.0002 28.5L1.6002 51C0.400195 52.2 0.400195 54.1 1.6002 55.2C2.2002 55.8 3.0002 56.1 3.7002 56.1C4.4002 56.1 5.20019 55.8 5.80019 55.2L28.3002 32.7L50.8002 55.2C51.4002 55.8 52.2002 56.1 52.9002 56.1C53.6002 56.1 54.4002 55.8 55.0002 55.2C56.2002 54 56.2002 52.1 55.0002 51L32.5002 28.5Z" fill="#010101"/>
</svg>
