<svg width="254" height="195" viewBox="0 0 254 195" fill="none" xmlns="http://www.w3.org/2000/svg">
<path d="M158.224 17.6004C155.772 12.0231 149.24 9.48051 143.663 11.933C140.962 13.1208 138.884 15.2894 137.814 18.0397C137.068 19.9556 136.875 21.994 137.227 23.9678L119.492 39.9115C118.062 41.1969 117.945 43.3977 119.23 44.8276C120.516 46.2575 122.717 46.3739 124.146 45.089L139.932 30.8977L157.377 70.5768L174.821 110.256L98.9086 117.578L86.3621 89.0412L83.2159 81.8857L100.85 66.0329C102.28 64.7474 102.397 62.5467 101.112 61.1168C99.8262 59.6868 97.625 59.5705 96.1959 60.8553L77.1034 78.0184L59.6732 85.6818C53.4391 88.4224 48.6453 93.427 46.1753 99.7732C43.7053 106.119 43.8542 113.048 46.5949 119.282C49.3355 125.516 54.3401 130.309 60.6862 132.779C62.8058 133.604 64.9892 134.137 67.1907 134.379C70.8976 134.786 74.6533 134.365 78.2318 133.126L81.7744 141.184C83.2211 144.474 86.2832 146.563 89.6227 146.93C91.2342 147.107 92.9095 146.881 94.4995 146.197L110.541 182.684C111.554 184.989 113.7 186.453 116.04 186.71C117.186 186.836 118.381 186.672 119.51 186.175L133.611 179.976C135.778 179.023 137.272 177.055 137.609 174.712C137.945 172.368 137.064 170.06 135.252 168.536L131.615 165.477L118.499 135.646C123.35 133.465 125.552 127.757 123.407 122.879L123.125 122.236L178.108 116.933C179.964 119.353 182.726 120.87 185.684 121.195C187.546 121.399 189.484 121.133 191.318 120.327C196.894 117.875 199.437 111.343 196.985 105.766L158.224 17.6004ZM63.2118 126.291C58.5986 124.496 54.9607 121.011 52.9684 116.48C50.9762 111.948 50.8678 106.912 52.6635 102.299C54.4592 97.6859 57.9436 94.048 62.4755 92.0554L77.2303 85.5683L84.6894 102.534L92.1485 119.499L77.3931 125.986C72.8608 127.979 67.8246 128.087 63.2118 126.291ZM126.515 170.285L130.58 173.703L116.852 179.739L100.875 143.398L112.128 138.451L125.568 169.022C125.783 169.509 126.106 169.942 126.515 170.285ZM117.035 125.682C117.645 127.071 117.012 128.698 115.623 129.308L112.513 130.676C112.513 130.676 112.512 130.676 112.512 130.676C112.512 130.676 112.511 130.676 112.511 130.677L94.8874 138.425C94.8866 138.425 94.8859 138.426 94.8852 138.426C94.8845 138.426 94.8841 138.426 94.8833 138.427L91.7744 139.793C90.3856 140.404 88.7588 139.771 88.1476 138.382L84.6406 130.405L97.6247 124.696L115.829 122.94L117.035 125.682ZM188.516 113.954C187.517 114.393 186.406 114.417 185.39 114.021C184.373 113.625 183.57 112.857 183.131 111.858L144.369 23.6918C143.93 22.6928 143.906 21.5821 144.302 20.5651C144.697 19.5482 145.466 18.7459 146.465 18.3068C147.143 18.0087 147.86 17.9102 148.549 17.9859C149.954 18.1402 151.242 19.0188 151.85 20.4031L190.613 108.569C191.519 110.631 190.579 113.047 188.516 113.954Z" fill="#848799"/>
<path d="M189.306 56.539C189.825 57.7195 190.92 58.4676 192.116 58.599C192.703 58.6635 193.314 58.5793 193.893 58.3246L217.667 47.8726C219.427 47.099 220.226 45.045 219.452 43.285C218.679 41.525 216.625 40.7254 214.865 41.4994L191.091 51.9514C189.331 52.725 188.532 54.779 189.306 56.539Z" fill="#848799"/>
<path d="M183.223 44.1442C183.617 44.5058 184.069 44.7067 184.53 44.7574C185.471 44.8607 186.454 44.3408 187.081 43.2861L197.486 25.7575C198.42 24.185 198.206 22.0197 197.009 20.9213C195.812 19.8226 194.085 20.2069 193.151 21.7794L182.746 39.308C181.812 40.8801 182.026 43.0458 183.223 44.1442Z" fill="#848799"/>
<path d="M217.461 68.1162L200.615 66.266C198.704 66.0562 196.984 67.4352 196.774 69.3463C196.564 71.2574 197.944 72.9767 199.855 73.1866L216.701 75.0368C218.612 75.2466 220.331 73.8676 220.541 71.9565C220.751 70.0454 219.372 68.326 217.461 68.1162Z" fill="#848799"/>
<path d="M230.412 37.4833C229.836 36.7686 228.987 36.3007 228.077 36.2008C227.164 36.1004 226.234 36.373 225.516 36.9456C224.802 37.5185 224.333 38.3705 224.233 39.2806C224.133 40.1907 224.406 41.1241 224.979 41.8384C225.555 42.5531 226.403 43.021 227.317 43.1213C228.227 43.2213 229.157 42.9487 229.875 42.3761C230.589 41.8032 231.054 40.9507 231.154 40.0407C231.254 39.1306 230.985 38.1976 230.412 37.4833Z" fill="#848799"/>
<path d="M109.792 56.4303C110.703 56.5303 111.632 56.2612 112.35 55.6886C113.064 55.1157 113.529 54.2632 113.629 53.3531C113.729 52.4396 113.46 51.5101 112.888 50.7923C112.315 50.078 111.462 49.6132 110.552 49.5132C109.639 49.4129 108.709 49.682 107.995 50.255C107.277 50.831 106.812 51.68 106.712 52.5935C106.612 53.5035 106.881 54.4366 107.457 55.1513C108.03 55.8655 108.882 56.3304 109.792 56.4303Z" fill="#848799"/>
<path d="M44.1835 165.712H47.2714V168.809C47.2714 169.129 47.3984 169.435 47.6244 169.661C47.8504 169.887 48.157 170.014 48.4766 170.014C48.7963 170.014 49.1028 169.887 49.3289 169.661C49.5549 169.435 49.6819 169.129 49.6819 168.809V165.712H52.7785C53.0815 165.687 53.3638 165.548 53.5695 165.324C53.7752 165.1 53.8893 164.807 53.8893 164.503C53.8893 164.199 53.7752 163.906 53.5695 163.682C53.3638 163.458 53.0815 163.319 52.7785 163.293H49.6819V160.205C49.6819 159.886 49.5549 159.579 49.3289 159.353C49.1028 159.127 48.7963 159 48.4766 159C48.157 159 47.8504 159.127 47.6244 159.353C47.3984 159.579 47.2714 159.886 47.2714 160.205V163.293H44.1835C44.016 163.279 43.8473 163.299 43.6882 163.354C43.5291 163.408 43.383 163.495 43.2591 163.609C43.1353 163.722 43.0364 163.86 42.9688 164.014C42.9011 164.168 42.8662 164.335 42.8662 164.503C42.8662 164.671 42.9011 164.837 42.9688 164.991C43.0364 165.145 43.1353 165.283 43.2591 165.397C43.383 165.511 43.5291 165.597 43.6882 165.652C43.8473 165.706 44.016 165.727 44.1835 165.712Z" fill="#848799"/>
<path d="M165.652 145.384C165.65 144.318 165.332 143.276 164.739 142.39C164.145 141.505 163.302 140.815 162.317 140.408C161.331 140.001 160.247 139.896 159.202 140.105C158.156 140.314 157.196 140.828 156.443 141.583C155.689 142.337 155.177 143.298 154.969 144.344C154.762 145.39 154.869 146.474 155.278 147.459C155.686 148.443 156.377 149.285 157.264 149.877C158.15 150.47 159.193 150.786 160.259 150.786C161.69 150.783 163.062 150.213 164.073 149.2C165.084 148.188 165.652 146.815 165.652 145.384ZM163.584 145.384C163.584 146.042 163.389 146.685 163.024 147.231C162.659 147.778 162.139 148.205 161.532 148.456C160.924 148.708 160.255 148.774 159.61 148.646C158.965 148.517 158.373 148.2 157.908 147.735C157.443 147.27 157.126 146.678 156.997 146.033C156.869 145.388 156.935 144.719 157.187 144.111C157.438 143.504 157.865 142.984 158.411 142.619C158.958 142.254 159.601 142.059 160.259 142.059C161.14 142.061 161.985 142.412 162.608 143.035C163.231 143.658 163.582 144.503 163.584 145.384Z" fill="#848799"/>
<path d="M252.624 92.4384L250.706 93.2566L250.398 94.0043L251.217 95.9222C251.293 96.0666 251.339 96.2257 251.351 96.3889C251.363 96.5522 251.34 96.7161 251.284 96.87C251.228 97.024 251.141 97.1645 251.028 97.2826C250.914 97.4006 250.778 97.4936 250.626 97.5554C250.474 97.6173 250.312 97.6467 250.148 97.6417C249.984 97.6366 249.824 97.5974 249.676 97.5263C249.529 97.4553 249.398 97.3542 249.292 97.2294C249.186 97.1046 249.107 96.959 249.061 96.8019L248.243 94.8841L247.522 94.5762L245.586 95.4031C245.442 95.4801 245.283 95.5258 245.119 95.5375C244.956 95.5491 244.792 95.5264 244.638 95.4707C244.484 95.4151 244.344 95.3277 244.226 95.2144C244.108 95.101 244.015 94.9641 243.953 94.8126C243.891 94.661 243.862 94.4982 243.867 94.3346C243.872 94.171 243.911 94.0102 243.982 93.8627C244.053 93.7153 244.154 93.5843 244.279 93.4784C244.404 93.3725 244.549 93.2939 244.707 93.2478L246.642 92.368L246.915 91.6291L246.096 89.72C246.02 89.5756 245.974 89.4165 245.962 89.2533C245.95 89.09 245.973 88.9261 246.029 88.7722C246.085 88.6183 246.172 88.4777 246.285 88.3596C246.399 88.2416 246.536 88.1486 246.687 88.0868C246.839 88.0249 247.001 87.9955 247.165 88.0005C247.329 88.0056 247.489 88.0448 247.637 88.1159C247.784 88.1869 247.915 88.2881 248.021 88.4128C248.127 88.5376 248.206 88.6832 248.252 88.8403L249.105 90.7933L249.862 91.0924L251.744 90.2743C252.021 90.2035 252.313 90.2353 252.568 90.3636C252.822 90.492 253.022 90.7082 253.129 90.9723C253.236 91.2364 253.244 91.5305 253.152 91.8C253.059 92.0696 252.871 92.2964 252.624 92.4384Z" fill="#848799"/>
<path d="M232.224 132.377C232.4 132.79 232.449 133.246 232.367 133.687C232.284 134.128 232.072 134.534 231.758 134.855C231.444 135.175 231.042 135.396 230.603 135.488C230.164 135.58 229.707 135.541 229.291 135.374C228.874 135.206 228.517 134.92 228.263 134.549C228.01 134.179 227.872 133.742 227.866 133.294C227.861 132.845 227.989 132.405 228.234 132.029C228.479 131.653 228.829 131.358 229.242 131.181C229.796 130.946 230.421 130.94 230.98 131.164C231.538 131.388 231.986 131.824 232.224 132.377Z" fill="#848799"/>
<path d="M1.31729 56.4885H4.40517V59.5852C4.40517 59.9048 4.53215 60.2114 4.75818 60.4374C4.9842 60.6635 5.29076 60.7904 5.61041 60.7904C5.93006 60.7904 6.23662 60.6635 6.46264 60.4374C6.68867 60.2114 6.81565 59.9048 6.81565 59.5852V56.4885H9.91233C10.2153 56.4627 10.4976 56.324 10.7033 56.1C10.909 55.876 11.0231 55.583 11.0231 55.2789C11.0231 54.9748 10.909 54.6817 10.7033 54.4577C10.4976 54.2337 10.2153 54.0951 9.91233 54.0692H6.81565V50.9814C6.81565 50.6617 6.68867 50.3552 6.46264 50.1291C6.23662 49.9031 5.93006 49.7761 5.61041 49.7761C5.29076 49.7761 4.9842 49.9031 4.75818 50.1291C4.53215 50.3552 4.40517 50.6617 4.40517 50.9814V54.0692H1.31729C1.14977 54.0549 0.981099 54.0756 0.821975 54.1299C0.662851 54.1842 0.516741 54.2709 0.392901 54.3847C0.269061 54.4984 0.170191 54.6366 0.102557 54.7905C0.0349238 54.9444 0 55.1107 0 55.2789C0 55.447 0.0349238 55.6133 0.102557 55.7672C0.170191 55.9212 0.269061 56.0594 0.392901 56.1731C0.516741 56.2868 0.662851 56.3736 0.821975 56.4279C0.981099 56.4822 1.14977 56.5028 1.31729 56.4885Z" fill="#848799"/>
<path d="M108.08 15.7036H111.168V18.8003C111.168 19.1199 111.295 19.4265 111.521 19.6525C111.747 19.8785 112.054 20.0055 112.373 20.0055C112.693 20.0055 113 19.8785 113.226 19.6525C113.452 19.4265 113.579 19.1199 113.579 18.8003V15.7036H116.675C116.988 15.6967 117.286 15.5676 117.504 15.344C117.723 15.1203 117.845 14.8199 117.845 14.5072C117.847 14.3477 117.816 14.1896 117.756 14.0419C117.696 13.8941 117.608 13.7597 117.496 13.6461C117.384 13.5326 117.251 13.4422 117.104 13.3801C116.957 13.318 116.8 13.2855 116.64 13.2843H113.543V10.2052C113.543 9.88559 113.416 9.57903 113.19 9.35301C112.964 9.12698 112.658 9 112.338 9C112.019 9 111.712 9.12698 111.486 9.35301C111.26 9.57903 111.133 9.88559 111.133 10.2052V13.2843H108.08C107.757 13.2866 107.449 13.4165 107.221 13.6456C106.994 13.8747 106.866 14.1844 106.866 14.5072C106.867 14.6654 106.9 14.8219 106.961 14.9677C107.023 15.1135 107.113 15.2457 107.225 15.3568C107.338 15.4679 107.472 15.5557 107.618 15.6152C107.765 15.6747 107.922 15.7048 108.08 15.7036Z" fill="#848799"/>
<path d="M246.966 20.384C246.965 19.3178 246.647 18.276 246.053 17.3903C245.459 16.5046 244.617 15.8148 243.631 15.408C242.646 15.0012 241.562 14.8956 240.516 15.1047C239.47 15.3138 238.51 15.8281 237.757 16.5826C237.004 17.3372 236.491 18.2981 236.284 19.3439C236.076 20.3898 236.184 21.4737 236.592 22.4585C237 23.4434 237.692 24.2852 238.578 24.8773C239.465 25.4695 240.507 25.7856 241.573 25.7856C243.005 25.7833 244.376 25.2131 245.387 24.2004C246.398 23.1876 246.966 21.8151 246.966 20.384ZM244.899 20.384C244.899 21.0417 244.704 21.6846 244.338 22.2315C243.973 22.7784 243.454 23.2046 242.846 23.4563C242.238 23.708 241.57 23.7738 240.925 23.6455C240.28 23.5172 239.687 23.2005 239.222 22.7354C238.757 22.2703 238.44 21.6778 238.312 21.0327C238.184 20.3877 238.249 19.7191 238.501 19.1114C238.753 18.5038 239.179 17.9844 239.726 17.619C240.273 17.2536 240.916 17.0586 241.573 17.0586C242.455 17.0609 243.299 17.412 243.922 18.0351C244.545 18.6583 244.897 19.5028 244.899 20.384Z" fill="#848799"/>
</svg>
