<svg width="147" height="136" viewBox="0 0 147 136" fill="none" xmlns="http://www.w3.org/2000/svg">
<path d="M62.9301 83.5961C62.2838 82.9506 61.4607 82.511 60.5647 82.3331C59.6688 82.1551 58.7401 82.2466 57.8962 82.596C57.0522 82.9455 56.3307 83.5372 55.8228 84.2965C55.3149 85.0558 55.0435 85.9485 55.0427 86.862V106.519H28.8538C27.6281 106.519 26.4526 106.032 25.5859 105.165C24.7192 104.299 24.2323 103.123 24.2323 101.897V43.0034C29.0523 42.0775 33.3645 39.4138 36.35 35.518C39.3356 31.6223 40.7865 26.7658 40.4273 21.8708C40.0682 16.9758 37.924 12.3831 34.4018 8.96484C30.8797 5.54658 26.2249 3.54076 21.3213 3.32827C16.4177 3.11578 11.6069 4.71142 7.80223 7.8122C3.99759 10.913 1.46411 15.303 0.682866 20.1485C-0.0983751 24.9941 0.927024 29.9579 3.56435 34.0973C6.20168 38.2367 10.2673 41.2635 14.9892 42.6029V101.897C14.9892 105.575 16.4499 109.101 19.05 111.701C21.6502 114.301 25.1767 115.762 28.8538 115.762H55.0427V130.428C55.0435 131.341 55.3149 132.234 55.8228 132.993C56.3307 133.753 57.0522 134.344 57.8962 134.694C58.7401 135.043 59.6688 135.135 60.5647 134.957C61.4607 134.779 62.2838 134.339 62.9301 133.694L84.713 111.911C85.5785 111.044 86.0646 109.87 86.0646 108.645C86.0646 107.42 85.5785 106.246 84.713 105.379L62.9301 83.5961ZM9.65897 23.3618C9.65897 21.229 10.2914 19.1441 11.4763 17.3707C12.6613 15.5974 14.3454 14.2152 16.3159 13.399C18.2863 12.5828 20.4546 12.3693 22.5464 12.7854C24.6382 13.2014 26.5597 14.2285 28.0678 15.7366C29.5759 17.2447 30.6029 19.1662 31.019 21.258C31.4351 23.3498 31.2216 25.518 30.4054 27.4885C29.5892 29.459 28.207 31.1431 26.4337 32.328C24.6603 33.513 22.5754 34.1454 20.4426 34.1454C17.5826 34.1454 14.8397 33.0093 12.8174 30.987C10.7951 28.9646 9.65897 26.2218 9.65897 23.3618ZM64.2704 119.274V98.0153L74.8999 108.645L64.2704 119.274Z" fill="black"/>
<path d="M132.454 92.7005V33.406C132.454 29.7288 130.993 26.2023 128.393 23.6022C125.793 21.002 122.266 19.5413 118.589 19.5413H92.4004V4.87555C92.4027 3.95891 92.1323 3.0623 91.6237 2.29971C91.1151 1.53713 90.3911 0.943027 89.544 0.592936C88.6968 0.242844 87.7647 0.15258 86.8661 0.333621C85.9675 0.514662 85.1431 0.958829 84.4976 1.60965L62.7146 23.3926C61.8492 24.2591 61.363 25.4338 61.363 26.6585C61.363 27.8832 61.8492 29.0578 62.7146 29.9244L84.4976 51.7073C85.1439 52.3528 85.967 52.7923 86.863 52.9703C87.7589 53.1483 88.6875 53.0568 89.5315 52.7073C90.3755 52.3579 91.097 51.7662 91.6049 51.0069C92.1127 50.2476 92.3842 49.3549 92.385 48.4414V28.7844H118.574C119.8 28.7844 120.975 29.2713 121.842 30.138C122.708 31.0047 123.195 32.1802 123.195 33.406V92.3C118.375 93.2259 114.063 95.8896 111.078 99.7854C108.092 103.681 106.641 108.538 107 113.433C107.359 118.328 109.504 122.92 113.026 126.339C116.548 129.757 121.203 131.763 126.106 131.975C131.01 132.188 135.821 130.592 139.625 127.491C143.43 124.39 145.964 120 146.745 115.155C147.526 110.309 146.501 105.345 143.863 101.206C141.226 97.0667 137.16 94.0399 132.439 92.7005H132.454ZM83.1573 37.2419L72.5277 26.6123L83.1573 15.9827V37.2419ZM126.985 122.725C124.852 122.725 122.767 122.093 120.994 120.908C119.221 119.723 117.838 118.039 117.022 116.068C116.206 114.098 115.993 111.93 116.409 109.838C116.825 107.746 117.852 105.825 119.36 104.316C120.868 102.808 122.789 101.781 124.881 101.365C126.973 100.949 129.141 101.163 131.112 101.979C133.082 102.795 134.766 104.177 135.951 105.951C137.136 107.724 137.769 109.809 137.769 111.942C137.769 114.802 136.633 117.544 134.61 119.567C132.588 121.589 129.845 122.725 126.985 122.725Z" fill="black"/>
</svg>
