<svg xmlns="http://www.w3.org/2000/svg" viewBox="0 0 24.93 11.6"><defs><style>.cls-1{fill:#2d3e89;}</style></defs><g id="Layer_2" data-name="Layer 2"><g id="Layer_3" data-name="Layer 3"><path class="cls-1" d="M14.19,10.85a.76.76,0,0,1-.75.75H5.22a.76.76,0,0,1-.75-.75V2.61L1.29,5.85a.75.75,0,0,1-1.06,0,.77.77,0,0,1,0-1.08L4.68.24A.63.63,0,0,1,5.22,0a.73.73,0,0,1,.54.24l4.39,4.57a.75.75,0,0,1,0,1.06.78.78,0,0,1-.52.21.82.82,0,0,1-.54-.23L6,2.62V10.1h7.47A.76.76,0,0,1,14.19,10.85Z"/><path class="cls-1" d="M10.74.75A.76.76,0,0,1,11.49,0h8.22a.76.76,0,0,1,.75.75V9l3.18-3.24a.75.75,0,1,1,1.07,1l-4.46,4.56a.62.62,0,0,1-.54.23.73.73,0,0,1-.54-.23L14.78,6.79a.75.75,0,0,1,0-1.06.73.73,0,0,1,.52-.21.78.78,0,0,1,.54.23L19,9V1.5H11.49A.76.76,0,0,1,10.74.75Z"/></g></g></svg>