<svg width="436" height="615" viewBox="0 0 436 615" fill="none" xmlns="http://www.w3.org/2000/svg">
<path d="M198 130.921C198 58.7275 153.582 0 99 0C44.418 0 0 58.7275 0 130.921C0 186.304 25.432 233.81 63.426 252.601L46.442 559.397C45.628 574.051 50.71 587.98 60.742 598.563C70.774 609.147 84.348 615 99 615C113.652 615 127.226 609.147 137.258 598.563C147.29 587.98 152.394 574.051 151.558 559.397L134.574 252.557C172.722 233.546 198 186.128 198 130.921ZM121.264 583.447C109.626 595.747 88.374 595.747 76.736 583.447C70.884 577.264 67.936 569.167 68.398 560.585L85.008 260.544C94.094 262.261 103.884 262.261 112.97 260.544L129.58 560.585C130.064 569.167 127.116 577.264 121.264 583.447ZM118.888 235.9C109.67 239.839 98.824 240.807 88.792 238.849C85.382 238.167 81.994 237.133 78.716 235.746C45.32 223.006 22 179.901 22 130.921C22 70.8735 56.54 22.0036 99 22.0036C141.46 22.0036 176 70.8735 176 130.921C176 179.901 152.68 223.006 118.888 235.9Z" fill="#C1C3C9"/>
<path d="M344.024 615C323.84 615 307.086 595.562 307.086 571.602L323.301 252.965C304.081 248.879 286.792 238.42 274.22 223.274C261.648 208.129 254.525 189.178 254 169.476L260.728 8.43669C260.728 6.64665 261.437 4.92993 262.699 3.66418C263.961 2.39843 265.672 1.68735 267.457 1.68735L294.706 1.55236C296.471 1.59608 298.164 2.26562 299.483 3.44217C300.119 4.06726 300.625 4.81269 300.971 5.63527C301.318 6.45785 301.498 7.34122 301.502 8.23421L303.251 157.867C303.39 159.908 304.319 161.814 305.841 163.176C307.362 164.539 309.355 165.249 311.392 165.156C313.531 165.14 315.581 164.293 317.111 162.794C317.813 162.142 318.368 161.347 318.739 160.462C319.111 159.578 319.29 158.624 319.264 157.665L317.448 8.03173C317.448 6.24169 318.157 4.52497 319.418 3.25922C320.68 1.99347 322.391 1.28239 324.176 1.28239L361.989 0.809931C363.773 0.809931 365.485 1.52102 366.747 2.78677C368.008 4.05252 368.717 5.76924 368.717 7.55927L370.467 157.125C370.518 158.144 370.77 159.144 371.207 160.066C371.645 160.988 372.259 161.814 373.015 162.498C373.772 163.181 374.655 163.708 375.615 164.049C376.574 164.389 377.591 164.536 378.608 164.481C380.662 164.519 382.649 163.749 384.145 162.336C385.641 160.924 386.527 158.981 386.614 156.922L384.865 7.15431C384.865 5.36428 385.574 3.64756 386.836 2.38181C388.098 1.11606 389.809 0.404971 391.593 0.404971L418.977 1.0966e-05C420.694 -0.00309133 422.347 0.652146 423.598 1.83159C424.849 3.01103 425.603 4.62546 425.706 6.34439L436 166.979C435.894 187.404 428.758 207.166 415.799 222.92C402.84 238.675 384.853 249.456 364.882 253.438L380.963 571.264C380.963 595.494 364.411 615 344.024 615ZM273.714 15.3885L267.457 169.678C268.11 187.193 274.885 203.918 286.596 216.924C298.307 229.93 314.207 238.388 331.51 240.817C333.09 241.09 334.52 241.92 335.544 243.157C336.568 244.395 337.118 245.958 337.094 247.566L320.543 571.534C320.543 587.665 331.039 601.096 344.024 601.096C357.01 601.096 367.506 587.598 367.506 571.197L351.156 248.173C351.138 246.546 351.707 244.966 352.758 243.726C353.809 242.486 355.271 241.668 356.875 241.424C374.886 239.14 391.462 230.389 403.536 216.788C415.609 203.188 422.361 185.661 422.543 167.451L412.653 13.9037H398.389L400.071 156.72C400.001 162.342 397.734 167.712 393.758 171.675C389.782 175.638 384.415 177.878 378.81 177.913C373.228 177.986 367.841 175.854 363.813 171.977C359.784 168.1 357.438 162.79 357.279 157.192L355.261 14.3761H330.972L332.654 157.26C332.698 160.039 332.171 162.798 331.106 165.364C330.041 167.93 328.461 170.249 326.464 172.176C322.453 176.118 317.074 178.344 311.46 178.385C305.877 178.477 300.483 176.362 296.442 172.498C292.401 168.633 290.038 163.33 289.862 157.732L287.978 15.186L273.714 15.3885Z" fill="#C1C3C9"/>
</svg>
