<svg width="519" height="527" viewBox="0 0 519 527" fill="none" xmlns="http://www.w3.org/2000/svg">
<path d="M428.374 45.7229H399.044V24.9762C399.044 18.4773 396.461 12.2446 391.865 7.64922C387.268 3.05383 381.034 0.472168 374.534 0.472168C368.033 0.472168 361.799 3.05383 357.202 7.64922C352.606 12.2446 350.024 18.4773 350.024 24.9762V45.7229H168.976V24.9762C168.976 18.4773 166.394 12.2446 161.798 7.64922C157.201 3.05383 150.967 0.472168 144.466 0.472168C137.966 0.472168 131.732 3.05383 127.135 7.64922C122.539 12.2446 119.956 18.4773 119.956 24.9762V45.7229H90.6261C66.7911 45.7229 43.9323 55.189 27.0784 72.0388C10.2245 88.8885 0.756104 111.742 0.756104 135.571V436.48C0.756104 460.309 10.2245 483.162 27.0784 500.012C43.9323 516.862 66.7911 526.328 90.6261 526.328H428.374C452.209 526.328 475.068 516.862 491.922 500.012C508.775 483.162 518.244 460.309 518.244 436.48V135.571C518.244 111.742 508.775 88.8885 491.922 72.0388C475.068 55.189 452.209 45.7229 428.374 45.7229ZM90.7078 94.7309H120.038V131.814C120.038 138.312 122.62 144.545 127.217 149.141C131.813 153.736 138.048 156.318 144.548 156.318C151.049 156.318 157.283 153.736 161.879 149.141C166.476 144.545 169.058 138.312 169.058 131.814V94.7309H350.024V131.814C350.024 138.312 352.606 144.545 357.202 149.141C361.799 153.736 368.033 156.318 374.534 156.318C381.034 156.318 387.268 153.736 391.865 149.141C396.461 144.545 399.044 138.312 399.044 131.814V94.7309H428.374C439.208 94.7309 449.598 99.0337 457.259 106.693C464.92 114.352 469.224 124.739 469.224 135.571V209.9H49.7761V135.571C49.7761 124.739 54.0799 114.352 61.7408 106.693C69.4017 99.0337 79.792 94.7309 90.6261 94.7309H90.7078ZM428.374 477.32H90.6261C79.792 477.32 69.4017 473.017 61.7408 465.358C54.0799 457.699 49.7761 447.312 49.7761 436.48V258.908H469.224V436.48C469.224 447.312 464.92 457.699 457.259 465.358C449.598 473.017 439.208 477.32 428.374 477.32Z" fill="#A7AABE"/>
</svg>
