<svg xmlns="http://www.w3.org/2000/svg" viewBox="0 0 13.18 13.62"><defs><style>.cls-1{fill:#c1c3c9;}</style></defs><g id="Layer_2" data-name="Layer 2"><g id="Layer_3" data-name="Layer 3"><path class="cls-1" d="M10,13.62H2A2,2,0,0,1,0,11.67V3.59A2,2,0,0,1,2,1.64H6.37a.51.51,0,0,1,.5.5.5.5,0,0,1-.5.5H2A1,1,0,0,0,1,3.59v8.08a.94.94,0,0,0,1,.95H10a1,1,0,0,0,1-.95V6.79a.5.5,0,0,1,.5-.5.5.5,0,0,1,.5.5v4.88A2,2,0,0,1,10,13.62Z"/><path class="cls-1" d="M4.57,10.14a1,1,0,0,1-.67-.26,1,1,0,0,1-.32-1L4.05,7a.46.46,0,0,1,.12-.23L10,.59A1.86,1.86,0,0,1,11.26,0a1.88,1.88,0,0,1,1.92,1.81,1.89,1.89,0,0,1-.51,1.34L6.89,9.28a.5.5,0,0,1-.19.13l-1.78.66A1,1,0,0,1,4.57,10.14ZM5,7.31,4.56,9.12l1.69-.61,5.69-6a.85.85,0,0,0,.24-.62.88.88,0,0,0-.27-.6A.89.89,0,0,0,11.29,1a.86.86,0,0,0-.61.27ZM6.53,8.94h0Z"/></g></g></svg>