<svg width="378" height="323" viewBox="0 0 378 323" fill="none" xmlns="http://www.w3.org/2000/svg">
<path d="M165 235.897V218.275C165 214.343 168.118 211.225 172.049 211.225H206.481C210.412 211.225 213.53 214.343 213.53 218.275V236.033C213.53 239.964 210.412 243.082 206.481 243.082H171.914C168.118 242.946 165 239.829 165 235.897ZM171.914 213.123C169.067 213.123 166.762 215.428 166.762 218.275V236.033C166.762 238.88 169.067 241.184 171.914 241.184H206.346C209.192 241.184 211.497 238.88 211.497 236.033V218.275C211.497 215.428 209.192 213.123 206.346 213.123H171.914Z" fill="white"/>
<path opacity="0.3" fill-rule="evenodd" clip-rule="evenodd" d="M202.109 0.415771C184.88 0.415771 170.252 10.0702 170.252 18.9104C170.252 27.7507 184.853 32.4407 202.109 32.4407C219.365 32.4407 234.037 27.7419 234.037 18.9104C234.037 10.079 219.33 0.415771 202.109 0.415771ZM313.564 45.1215C262.513 26.2021 242.612 43.9888 201.1 45.1215C191.738 45.3781 182.358 44.5375 172.845 43.4667L167.261 42.8296C140.192 39.6262 111.999 35.9007 80.54 51.1478C17.1538 81.8985 -7.52642 176.088 29.516 239.97C59.603 291.817 111.592 307.02 169.89 296.914C203.649 291.065 209.985 271.659 251.231 253.439C292.476 235.218 337.28 249.598 365.384 195.663C389.649 149.072 380.127 69.8017 313.564 45.1215ZM294.892 270.562C290.999 261.173 271.885 260.527 255.956 267.128C240.028 273.73 232.064 284.623 233.329 293.251C234.78 303.312 253.797 306.781 270.07 301.144C290.096 294.207 298.786 279.959 294.892 270.571V270.562Z" fill="#EB2028"/>
<path d="M4.38343 148.435C4.56035 148.85 4.61023 149.309 4.52677 149.752C4.44331 150.196 4.23026 150.605 3.91452 150.927C3.59879 151.25 3.19455 151.471 2.75287 151.564C2.31119 151.657 1.85189 151.617 1.43301 151.449C1.01412 151.281 0.65444 150.992 0.399411 150.62C0.144382 150.248 0.00544577 149.808 0.000156826 149.357C-0.00513212 148.905 0.123463 148.463 0.369696 148.084C0.615928 147.706 0.968749 147.409 1.38358 147.232C1.94116 146.995 2.56968 146.989 3.13178 147.214C3.69388 147.44 4.14388 147.879 4.38343 148.435Z" fill="#EB2028"/>
<path d="M48.6298 43.0332L46.7006 43.8562L46.3909 44.6084L47.2139 46.5375C47.2913 46.6828 47.3373 46.8428 47.349 47.007C47.3607 47.1712 47.3379 47.3361 47.2819 47.4909C47.2259 47.6458 47.138 47.7871 47.024 47.9059C46.91 48.0246 46.7723 48.1182 46.6198 48.1804C46.4674 48.2426 46.3036 48.2721 46.139 48.2671C45.9745 48.2621 45.8128 48.2225 45.6644 48.1511C45.5161 48.0797 45.3844 47.9779 45.2778 47.8524C45.1713 47.7269 45.0923 47.5804 45.0459 47.4224L44.2229 45.4933L43.4973 45.1836L41.5505 46.0154C41.4051 46.0928 41.2452 46.1388 41.081 46.1505C40.9167 46.1623 40.7519 46.1394 40.597 46.0834C40.4422 46.0274 40.3008 45.9396 40.1821 45.8255C40.0633 45.7115 39.9698 45.5738 39.9076 45.4213C39.8454 45.2689 39.8158 45.1051 39.8209 44.9405C39.8259 44.776 39.8654 44.6143 39.9369 44.466C40.0083 44.3176 40.1101 44.1859 40.2356 44.0794C40.3611 43.9728 40.5076 43.8938 40.6655 43.8474L42.6124 42.9625L42.8867 42.2191L42.0637 40.2989C41.9863 40.1535 41.9403 39.9936 41.9286 39.8294C41.9169 39.6651 41.9397 39.5003 41.9957 39.3454C42.0517 39.1906 42.1396 39.0492 42.2536 38.9305C42.3676 38.8117 42.5053 38.7182 42.6578 38.656C42.8102 38.5938 42.974 38.5642 43.1386 38.5693C43.3031 38.5743 43.4648 38.6138 43.6132 38.6853C43.7615 38.7567 43.8932 38.8585 43.9998 38.984C44.1063 39.1095 44.1853 39.256 44.2317 39.414L45.0901 41.3785L45.8511 41.6793L47.7448 40.8564C48.0226 40.7852 48.3168 40.8171 48.5729 40.9462C48.8289 41.0753 49.0296 41.2929 49.1375 41.5585C49.2455 41.8242 49.2536 42.12 49.1602 42.3911C49.0669 42.6623 48.8784 42.8904 48.6298 43.0332Z" fill="#EB2028"/>
<path d="M9.17981 160.656C9.30095 161.248 9.59496 161.79 10.0246 162.215C10.4543 162.64 11.0003 162.927 11.5935 163.041C12.1868 163.156 12.8006 163.091 13.3572 162.857C13.9138 162.622 14.3883 162.227 14.7206 161.723C15.0528 161.218 15.2279 160.626 15.2236 160.022C15.2194 159.418 15.036 158.829 14.6967 158.329C14.3574 157.829 13.8774 157.441 13.3175 157.214C12.7576 156.987 12.1429 156.932 11.5514 157.054C11.1589 157.134 10.786 157.291 10.4542 157.516C10.1224 157.74 9.83822 158.028 9.6179 158.363C9.39757 158.697 9.24546 159.072 9.17028 159.465C9.09511 159.859 9.09835 160.263 9.17981 160.656ZM10.3921 160.408C10.3301 160.067 10.3694 159.716 10.5053 159.397C10.6411 159.078 10.8675 158.806 11.1564 158.615C11.4452 158.424 11.7839 158.322 12.1303 158.321C12.4767 158.321 12.8157 158.422 13.1052 158.612C13.3947 158.802 13.622 159.073 13.759 159.391C13.8959 159.709 13.9365 160.061 13.8757 160.402C13.8148 160.743 13.6552 161.059 13.4167 161.31C13.1781 161.561 12.8711 161.737 12.5336 161.815C12.3003 161.869 12.0583 161.875 11.8225 161.833C11.5866 161.791 11.3618 161.702 11.1615 161.57C10.9613 161.439 10.7899 161.268 10.6576 161.068C10.5254 160.868 10.435 160.644 10.3921 160.408Z" fill="#EB2028"/>
<path d="M231.451 319.71C231.628 320.125 231.678 320.584 231.594 321.027C231.511 321.471 231.298 321.88 230.982 322.202C230.666 322.525 230.262 322.746 229.82 322.839C229.379 322.932 228.919 322.892 228.5 322.724C228.082 322.556 227.722 322.268 227.467 321.895C227.212 321.523 227.073 321.083 227.068 320.632C227.062 320.181 227.191 319.738 227.437 319.36C227.683 318.981 228.036 318.684 228.451 318.507C228.727 318.388 229.023 318.326 229.324 318.322C229.624 318.319 229.922 318.374 230.201 318.486C230.479 318.598 230.733 318.764 230.948 318.974C231.162 319.184 231.333 319.434 231.451 319.71Z" fill="#EB2028"/>
<path d="M191.534 313.834C191.655 314.426 191.949 314.968 192.379 315.393C192.809 315.818 193.355 316.106 193.948 316.22C194.541 316.334 195.155 316.27 195.712 316.035C196.268 315.8 196.743 315.405 197.075 314.901C197.407 314.396 197.582 313.805 197.578 313.2C197.574 312.596 197.39 312.007 197.051 311.507C196.712 311.007 196.232 310.619 195.672 310.392C195.112 310.166 194.497 310.11 193.906 310.232C193.513 310.313 193.14 310.469 192.809 310.694C192.477 310.918 192.193 311.206 191.972 311.541C191.752 311.875 191.6 312.25 191.525 312.644C191.45 313.037 191.453 313.442 191.534 313.834ZM192.747 313.586C192.685 313.245 192.724 312.894 192.86 312.575C192.996 312.257 193.222 311.985 193.511 311.794C193.8 311.602 194.138 311.5 194.485 311.499C194.831 311.499 195.17 311.6 195.46 311.79C195.749 311.98 195.977 312.251 196.113 312.57C196.25 312.888 196.291 313.239 196.23 313.58C196.169 313.921 196.01 314.237 195.771 314.488C195.533 314.739 195.226 314.915 194.888 314.993C194.655 315.047 194.413 315.054 194.177 315.012C193.941 314.97 193.716 314.88 193.516 314.748C193.316 314.617 193.144 314.446 193.012 314.246C192.88 314.047 192.79 313.822 192.747 313.586Z" fill="#EB2028"/>
<path d="M24.5946 41.7326H27.7006V44.8475C27.7006 45.169 27.8283 45.4774 28.0557 45.7047C28.2831 45.9321 28.5914 46.0598 28.9129 46.0598C29.2345 46.0598 29.5428 45.9321 29.7702 45.7047C29.9975 45.4774 30.1253 45.169 30.1253 44.8475V41.7326H33.2402C33.545 41.7066 33.8289 41.5671 34.0358 41.3418C34.2427 41.1165 34.3575 40.8217 34.3575 40.5158C34.3575 40.2099 34.2427 39.9152 34.0358 39.6899C33.8289 39.4646 33.545 39.3251 33.2402 39.2991H30.1253V36.193C30.1253 35.8715 29.9975 35.5632 29.7702 35.3358C29.5428 35.1084 29.2345 34.9807 28.9129 34.9807C28.5914 34.9807 28.2831 35.1084 28.0557 35.3358C27.8283 35.5632 27.7006 35.8715 27.7006 36.193V39.2991H24.5946C24.4261 39.2847 24.2564 39.3055 24.0963 39.3601C23.9363 39.4147 23.7893 39.502 23.6647 39.6164C23.5402 39.7308 23.4407 39.8698 23.3727 40.0246C23.3047 40.1794 23.2695 40.3467 23.2695 40.5158C23.2695 40.685 23.3047 40.8522 23.3727 41.0071C23.4407 41.1619 23.5402 41.3009 23.6647 41.4153C23.7893 41.5297 23.9363 41.617 24.0963 41.6716C24.2564 41.7262 24.4261 41.747 24.5946 41.7326Z" fill="#EB2028"/>
<path d="M230.833 34.9717H233.939V38.0866C233.939 38.4081 234.066 38.7164 234.294 38.9438C234.521 39.1712 234.829 39.2989 235.151 39.2989C235.472 39.2989 235.781 39.1712 236.008 38.9438C236.235 38.7164 236.363 38.4081 236.363 38.0866V34.9717H239.478C239.793 34.9647 240.092 34.8349 240.312 34.6099C240.532 34.385 240.655 34.0828 240.655 33.7682C240.656 33.6078 240.626 33.4488 240.565 33.3002C240.505 33.1516 240.416 33.0163 240.304 32.9021C240.191 32.7879 240.057 32.6969 239.909 32.6345C239.762 32.5721 239.603 32.5393 239.443 32.5382H236.328V29.441C236.328 29.1194 236.2 28.8111 235.973 28.5837C235.745 28.3564 235.437 28.2286 235.115 28.2286C234.794 28.2286 234.486 28.3564 234.258 28.5837C234.031 28.8111 233.903 29.1194 233.903 29.441V32.5382H230.833C230.508 32.5405 230.197 32.6711 229.968 32.9015C229.74 33.132 229.611 33.4435 229.611 33.7682C229.612 33.9274 229.645 34.0848 229.707 34.2315C229.769 34.3781 229.859 34.5111 229.973 34.6229C230.086 34.7346 230.22 34.8229 230.368 34.8828C230.515 34.9426 230.673 34.9728 230.833 34.9717Z" fill="#EB2028"/>
<path d="M30.3207 211.025C30.3207 209.952 30.0026 208.903 29.4065 208.011C28.8105 207.119 27.9633 206.424 26.9721 206.014C25.9809 205.603 24.8902 205.496 23.8379 205.705C22.7857 205.914 21.8191 206.431 21.0605 207.189C20.3019 207.948 19.7852 208.915 19.5759 209.967C19.3666 211.019 19.474 212.11 19.8846 213.101C20.2952 214.092 20.9904 214.939 21.8825 215.535C22.7746 216.131 23.8233 216.45 24.8962 216.45C26.3334 216.445 27.7105 215.872 28.7267 214.856C29.743 213.839 30.316 212.462 30.3207 211.025ZM28.2412 211.025C28.2412 211.687 28.045 212.333 27.6774 212.883C27.3099 213.434 26.7875 213.862 26.1763 214.115C25.565 214.369 24.8925 214.435 24.2436 214.306C23.5948 214.177 22.9987 213.858 22.5309 213.39C22.0631 212.923 21.7446 212.327 21.6155 211.678C21.4864 211.029 21.5527 210.356 21.8058 209.745C22.059 209.134 22.4878 208.611 23.0378 208.244C23.5879 207.876 24.2346 207.68 24.8962 207.68C25.3381 207.677 25.7764 207.761 26.1858 207.927C26.5951 208.093 26.9676 208.339 27.2817 208.65C27.5959 208.961 27.8455 209.331 28.0162 209.738C28.1869 210.146 28.2754 210.583 28.2766 211.025H28.2412Z" fill="#EB2028"/>
<path d="M219.85 298.206C219.848 297.134 219.529 296.086 218.932 295.195C218.334 294.304 217.487 293.61 216.495 293.201C215.504 292.792 214.413 292.686 213.362 292.896C212.31 293.106 211.344 293.623 210.587 294.382C209.829 295.141 209.313 296.108 209.105 297.16C208.896 298.212 209.004 299.302 209.415 300.293C209.826 301.284 210.521 302.13 211.413 302.726C212.305 303.322 213.353 303.64 214.425 303.64C215.865 303.637 217.245 303.064 218.262 302.045C219.279 301.026 219.85 299.646 219.85 298.206ZM217.77 298.206C217.77 298.868 217.574 299.514 217.207 300.065C216.839 300.615 216.317 301.043 215.706 301.297C215.094 301.55 214.422 301.616 213.773 301.487C213.124 301.358 212.528 301.039 212.06 300.571C211.592 300.104 211.274 299.508 211.145 298.859C211.016 298.21 211.082 297.537 211.335 296.926C211.588 296.315 212.017 295.793 212.567 295.425C213.117 295.057 213.764 294.861 214.425 294.861C215.312 294.864 216.161 295.217 216.788 295.844C217.415 296.47 217.768 297.32 217.77 298.206Z" fill="#EB2028"/>
<path d="M271.689 5.41566C271.687 4.34318 271.367 3.29527 270.77 2.40438C270.173 1.51349 269.325 0.819595 268.334 0.410383C267.343 0.00117154 266.252 -0.10499 265.201 0.105314C264.149 0.315618 263.183 0.83295 262.426 1.59193C261.668 2.35091 261.152 3.31748 260.943 4.36949C260.735 5.4215 260.843 6.51174 261.254 7.50242C261.664 8.49311 262.36 9.33978 263.252 9.93544C264.143 10.5311 265.192 10.849 266.264 10.849C267.704 10.8467 269.084 10.2732 270.101 9.2545C271.118 8.23581 271.689 6.85515 271.689 5.41566ZM269.609 5.41566C269.609 6.07724 269.413 6.72395 269.046 7.27403C268.678 7.82411 268.156 8.25284 267.544 8.50601C266.933 8.75918 266.261 8.82542 265.612 8.69636C264.963 8.56729 264.367 8.24872 263.899 7.78091C263.431 7.31311 263.113 6.71709 262.984 6.06823C262.855 5.41937 262.921 4.74681 263.174 4.1356C263.427 3.52439 263.856 3.00197 264.406 2.63443C264.956 2.26688 265.603 2.0707 266.264 2.0707C267.151 2.07303 268 2.4262 268.627 3.053C269.254 3.67979 269.607 4.52924 269.609 5.41566Z" fill="#EB2028"/>
<path d="M375.311 74.492C375.654 74.4643 375.975 74.3083 376.209 74.0549C376.443 73.8016 376.572 73.4695 376.572 73.1248C376.572 72.7801 376.443 72.448 376.209 72.1946C375.975 71.9413 375.654 71.7853 375.311 71.7576H361.63C361.441 71.7424 361.251 71.7665 361.072 71.8283C360.893 71.8901 360.729 71.9883 360.59 72.1167C360.451 72.2452 360.34 72.4011 360.264 72.5746C360.188 72.748 360.148 72.9354 360.148 73.1248C360.148 73.3142 360.188 73.5015 360.264 73.675C360.34 73.8485 360.451 74.0044 360.59 74.1328C360.729 74.2613 360.893 74.3595 361.072 74.4213C361.251 74.4831 361.441 74.5072 361.63 74.492H375.311Z" fill="#EB2028"/>
<path d="M355.765 74.492C355.954 74.5072 356.144 74.4831 356.323 74.4213C356.502 74.3595 356.666 74.2613 356.806 74.1328C356.945 74.0044 357.056 73.8485 357.132 73.675C357.208 73.5015 357.247 73.3142 357.247 73.1248C357.247 72.9354 357.208 72.748 357.132 72.5746C357.056 72.4011 356.945 72.2452 356.806 72.1167C356.666 71.9883 356.502 71.8901 356.323 71.8283C356.144 71.7665 355.954 71.7424 355.765 71.7576H353.261C353.072 71.7424 352.882 71.7665 352.703 71.8283C352.524 71.8901 352.36 71.9883 352.221 72.1167C352.082 72.2452 351.97 72.4011 351.895 72.5746C351.819 72.748 351.779 72.9354 351.779 73.1248C351.779 73.3142 351.819 73.5015 351.895 73.675C351.97 73.8485 352.082 74.0044 352.221 74.1328C352.36 74.2613 352.524 74.3595 352.703 74.4213C352.882 74.4831 353.072 74.5072 353.261 74.492H355.765Z" fill="#EB2028"/>
<path d="M90.3265 294.278C90.6701 294.25 90.9907 294.094 91.2245 293.841C91.4582 293.587 91.588 293.255 91.588 292.91C91.588 292.566 91.4582 292.234 91.2245 291.98C90.9907 291.727 90.6701 291.571 90.3265 291.543H76.6458C76.457 291.528 76.2671 291.552 76.088 291.614C75.909 291.676 75.7447 291.774 75.6055 291.902C75.4663 292.031 75.3552 292.187 75.2793 292.36C75.2033 292.534 75.1641 292.721 75.1641 292.91C75.1641 293.1 75.2033 293.287 75.2793 293.461C75.3552 293.634 75.4663 293.79 75.6055 293.918C75.7447 294.047 75.909 294.145 76.088 294.207C76.2671 294.269 76.457 294.293 76.6458 294.278H90.3265Z" fill="#EB2028"/>
<path d="M65.7424 294.278C65.9312 294.293 66.1211 294.269 66.3002 294.207C66.4792 294.145 66.6435 294.047 66.7827 293.918C66.9219 293.79 67.033 293.634 67.1089 293.461C67.1849 293.287 67.2241 293.1 67.2241 292.91C67.2241 292.721 67.1849 292.534 67.1089 292.36C67.033 292.187 66.9219 292.031 66.7827 291.902C66.6435 291.774 66.4792 291.676 66.3002 291.614C66.1211 291.552 65.9312 291.528 65.7424 291.543H63.2293C62.8857 291.571 62.5651 291.727 62.3313 291.98C62.0976 292.234 61.9678 292.566 61.9678 292.91C61.9678 293.255 62.0976 293.587 62.3313 293.841C62.5651 294.094 62.8857 294.25 63.2293 294.278H65.7424Z" fill="#EB2028"/>
<g filter="url(#filter0_d_1362_695)">
<mask id="mask0_1362_695" style="mask-type:luminance" maskUnits="userSpaceOnUse" x="44" y="67" width="148" height="182">
<path d="M179.155 241.824L169.517 230.875L191.174 206.677L173.497 194.402L179.347 182.91L170.604 175.526L186.379 151.376L172.458 136.176L176.55 103.379L159.544 67.2899L44.1152 73.3954L53.2255 248.472L179.155 241.824Z" fill="white"/>
</mask>
<g mask="url(#mask0_1362_695)">
<path d="M289.5 66.6028L60.3685 78.7018C52.9205 79.1014 47.1826 85.5106 47.5822 93.0225L54.5028 226.144C54.8864 233.656 61.2476 239.426 68.7116 239.027L297.843 226.928C305.291 226.528 311.029 220.119 310.629 212.607L303.709 79.485C303.309 71.989 296.948 66.2032 289.5 66.6028Z" fill="url(#paint0_linear_1362_695)"/>
<path d="M83.0969 213.391C83.5124 213.375 83.88 213.439 84.1198 213.551L84.2476 213.007C84.0718 212.928 83.6563 212.816 83.0329 212.848C81.4666 212.928 80.4597 214.062 80.5396 215.661C80.6195 217.339 81.7383 218.186 83.1608 218.106C83.7841 218.074 84.2476 217.93 84.4874 217.786L84.3275 217.275C84.0718 217.419 83.6722 217.515 83.2727 217.547C82.042 217.611 81.2908 216.859 81.2269 215.613C81.1629 214.254 81.8981 213.455 83.0969 213.391Z" fill="white"/>
<path d="M86.4203 212.735L84.9658 217.914L85.6371 217.882L86.0686 216.251L87.8587 216.155L88.4821 217.722L89.1853 217.69L87.1874 212.687L86.4203 212.735ZM86.1805 215.74L86.5961 214.237C86.676 213.918 86.7399 213.598 86.8039 213.31H86.8198C86.9157 213.598 86.9957 213.902 87.1235 214.221L87.6989 215.66L86.1805 215.74Z" fill="white"/>
<path d="M91.9676 215.117V215.101C92.479 214.893 92.8946 214.429 92.8466 213.758C92.8306 213.358 92.6548 213.023 92.3991 212.815C92.0635 212.543 91.5999 212.431 90.9127 212.479C90.4652 212.495 89.9857 212.575 89.666 212.655L89.9217 217.674L90.577 217.642L90.4652 215.436L91.0885 215.404C91.6799 215.388 91.9676 215.644 92.1594 216.331C92.3352 216.955 92.463 217.386 92.5589 217.53L93.2302 217.498C93.1183 217.306 92.9745 216.827 92.7667 216.124C92.6229 215.58 92.3671 215.228 91.9676 215.117ZM91.1205 214.877L90.4492 214.909L90.3533 213.055C90.4652 213.023 90.6729 212.975 90.9926 212.959C91.6799 212.927 92.1753 213.183 92.2073 213.854C92.2393 214.445 91.8077 214.845 91.1205 214.877Z" fill="white"/>
<path d="M95.0991 212.24C94.5877 212.272 94.1082 212.336 93.7246 212.416L93.9803 217.418C94.316 217.434 94.6996 217.434 95.1631 217.418C96.138 217.37 96.9052 217.067 97.3687 216.571C97.8162 216.076 98.04 215.388 97.9921 214.557C97.9441 213.742 97.6564 213.167 97.1769 212.767C96.7134 212.384 96.0262 212.192 95.0991 212.24ZM95.259 216.891C95.0032 216.907 94.7635 216.907 94.6037 216.891L94.3959 212.863C94.5717 212.815 94.8274 212.767 95.1631 212.751C96.5376 212.671 97.2568 213.407 97.3048 214.605C97.3687 215.996 96.6495 216.811 95.259 216.891Z" fill="white"/>
<path d="M103.506 213.966L101.06 214.11L100.948 211.968L100.293 212L100.549 217.098L101.204 217.066L101.092 214.669L103.522 214.541L103.649 216.939L104.305 216.891L104.049 211.808L103.394 211.84L103.506 213.966Z" fill="white"/>
<path d="M107.215 211.553C105.873 211.617 104.93 212.736 105.01 214.35C105.09 215.884 106.08 216.891 107.407 216.811C108.702 216.747 109.709 215.756 109.613 214.014C109.549 212.496 108.606 211.489 107.215 211.553ZM107.439 216.284C106.416 216.332 105.777 215.389 105.713 214.302C105.649 213.183 106.144 212.144 107.231 212.096C108.318 212.032 108.893 213.071 108.941 214.078C109.005 215.229 108.478 216.22 107.439 216.284Z" fill="white"/>
<path d="M111.002 211.441L110.347 211.473L110.602 216.571L113.431 216.411L113.399 215.868L111.242 215.98L111.002 211.441Z" fill="white"/>
<path d="M115.269 211.169C114.758 211.201 114.278 211.265 113.895 211.344L114.15 216.347C114.486 216.363 114.869 216.363 115.333 216.347C116.308 216.299 117.075 215.995 117.539 215.5C117.986 215.005 118.21 214.317 118.162 213.486C118.114 212.671 117.826 212.096 117.347 211.696C116.883 211.312 116.196 211.121 115.269 211.169ZM115.429 215.82C115.173 215.836 114.933 215.836 114.774 215.82L114.566 211.792C114.742 211.744 114.997 211.696 115.333 211.68C116.708 211.6 117.427 212.335 117.475 213.534C117.539 214.925 116.835 215.756 115.429 215.82Z" fill="white"/>
<path d="M119.666 213.694L121.632 213.582L121.6 213.038L119.65 213.15L119.554 211.536L121.632 211.424L121.6 210.881L118.883 211.025L119.139 216.107L121.984 215.963L121.952 215.42L119.762 215.532L119.666 213.694Z" fill="white"/>
<path d="M124.86 213.375V213.359C125.372 213.151 125.787 212.688 125.739 212.016C125.723 211.617 125.547 211.281 125.292 211.073C124.956 210.802 124.493 210.69 123.805 210.738C123.358 210.754 122.878 210.834 122.559 210.914L122.814 215.932L123.47 215.9L123.358 213.695L123.981 213.663C124.572 213.647 124.86 213.902 125.052 214.59C125.228 215.213 125.356 215.644 125.452 215.788L126.123 215.756C126.011 215.565 125.867 215.085 125.659 214.382C125.515 213.854 125.26 213.487 124.86 213.375ZM124.013 213.151L123.342 213.183L123.246 211.329C123.358 211.297 123.566 211.249 123.885 211.233C124.572 211.201 125.068 211.457 125.1 212.128C125.132 212.704 124.7 213.103 124.013 213.151Z" fill="white"/>
<path d="M79.0371 186.603L79.165 187.051L79.9162 186.587H79.9322L80.1239 190.455L80.6993 190.423L80.4756 186.012L79.9641 186.028L79.0371 186.603Z" fill="white"/>
<path d="M83.1118 189.783L83.4475 189.432C84.3265 188.489 84.8859 187.802 84.838 186.97C84.806 186.347 84.3745 185.708 83.4315 185.756C82.92 185.788 82.5045 185.995 82.2168 186.267L82.4246 186.683C82.6164 186.507 82.936 186.283 83.3356 186.251C83.9909 186.219 84.2306 186.619 84.2466 187.066C84.2786 187.738 83.7991 188.329 82.7283 189.464L82.2807 189.943L82.2967 190.311L85.0937 190.167L85.0618 189.672L83.1118 189.783Z" fill="white"/>
<path d="M87.3973 187.674C87.9247 187.435 88.1805 187.035 88.1485 186.571C88.1165 186.028 87.701 185.533 86.8379 185.58C86.3584 185.612 85.9269 185.804 85.7031 185.98L85.8789 186.412C86.0547 186.268 86.3904 186.092 86.742 186.076C87.2854 186.044 87.5252 186.348 87.5412 186.699C87.5731 187.227 87.0297 187.466 86.5982 187.498L86.2625 187.514L86.2785 187.962L86.6141 187.946C87.1895 187.914 87.7489 188.154 87.7969 188.777C87.8129 189.145 87.6051 189.64 86.8539 189.688C86.4383 189.704 86.0388 189.56 85.863 189.464L85.7351 189.928C85.9588 190.072 86.3904 190.2 86.8859 190.168C87.9407 190.12 88.4522 189.464 88.4202 188.761C88.4042 188.154 87.9407 187.754 87.3973 187.674Z" fill="white"/>
<path d="M91.4093 185.42L90.7699 185.452L88.9639 188.377L88.9799 188.761L91.0257 188.649L91.0896 189.864L91.649 189.832L91.5851 188.617L92.2084 188.585L92.1764 188.121L91.5531 188.153L91.4093 185.42ZM90.9138 186.731L90.9937 188.217L89.5552 188.297V188.281L90.5462 186.715C90.6581 186.507 90.754 186.315 90.8818 186.044H90.8978C90.8978 186.267 90.8978 186.491 90.9138 186.731Z" fill="white"/>
<path d="M86.5481 166.832L84.8699 166.912L82.856 170.524H82.7122L80.3307 167.151L78.5566 167.247L82.0249 171.77L79.0681 176.645L80.7623 176.549L82.7921 172.889L82.92 172.873L85.3174 176.31L87.0755 176.214L83.6232 171.627L86.5481 166.832Z" fill="white"/>
<path d="M95.8499 166.337L94.1717 166.416L92.1578 170.029L92.014 170.045L89.6325 166.656L87.8584 166.752L91.3267 171.275L88.3698 176.15L90.064 176.054L92.0939 172.394H92.2377L94.6192 175.814L96.3773 175.719L92.925 171.131L95.8499 166.337Z" fill="white"/>
<path d="M105.153 165.841L103.474 165.937L101.461 169.533L101.333 169.549L98.9352 166.177L97.1611 166.273L100.629 170.796L97.6886 175.655L99.3668 175.575L101.397 171.899H101.54L103.922 175.319L105.68 175.239L102.228 170.652L105.153 165.841Z" fill="white"/>
<path d="M114.454 165.345L112.776 165.441L110.762 169.053H110.634L108.237 165.681L106.463 165.777L109.931 170.3L106.99 175.159L108.669 175.079L110.698 171.419L110.842 171.403L113.224 174.839L114.998 174.743L111.529 170.156L114.454 165.345Z" fill="white"/>
<path d="M141.688 163.907L140.01 164.003L137.996 167.615H137.868L135.47 164.243L133.696 164.339L137.165 168.862L134.224 173.721L135.902 173.641L137.932 169.981L138.076 169.965L140.457 173.401L142.231 173.305L138.763 168.718L141.688 163.907Z" fill="white"/>
<path d="M150.99 163.427L149.312 163.507L147.298 167.119H147.171L144.773 163.747L142.999 163.843L146.467 168.366L143.526 173.241L145.205 173.145L147.234 169.485L147.378 169.469L149.76 172.905L151.534 172.809L148.066 168.222L150.99 163.427Z" fill="white"/>
<path d="M160.292 162.932L158.614 163.012L156.6 166.624L156.472 166.64L154.075 163.252L152.301 163.348L155.769 167.887L152.828 172.746L154.506 172.65L156.536 168.99H156.68L159.062 172.41L160.836 172.314L157.383 167.727L160.292 162.932Z" fill="white"/>
<path d="M169.611 162.437L167.917 162.532L165.919 166.145H165.775L163.378 162.772L161.604 162.868L165.072 167.391L162.131 172.25L163.809 172.17L165.839 168.494H165.983L168.364 171.93L170.138 171.834L166.686 167.247L169.611 162.437Z" fill="white"/>
<path d="M197.501 160.966L195.806 161.062L193.809 164.658L193.665 164.674L191.267 161.302L189.493 161.382L192.961 165.921L190.021 170.78L191.699 170.684L193.729 167.024H193.872L196.27 170.444L198.028 170.364L194.576 165.761L197.501 160.966Z" fill="white"/>
<path d="M109.914 156.012L81.4488 157.514C79.5788 157.61 77.9805 156.172 77.8846 154.302L76.526 128.361C76.4301 126.491 77.8686 124.893 79.7386 124.797L108.204 123.295C110.074 123.199 111.672 124.637 111.768 126.507L113.111 152.448C113.207 154.318 111.784 155.916 109.914 156.012Z" fill="url(#paint1_linear_1362_695)"/>
<path d="M110.107 156.188L81.625 157.69C79.6591 157.786 77.9969 156.268 77.885 154.302L76.5424 128.377C76.4465 126.412 77.9489 124.717 79.9148 124.605L108.396 123.103C110.362 123.007 112.025 124.526 112.136 126.491L113.479 152.416C113.575 154.382 112.057 156.076 110.107 156.188ZM79.9148 124.973C78.1567 125.069 76.7982 126.587 76.8941 128.361L78.2366 154.286C78.3325 156.06 79.8349 157.434 81.593 157.338L110.075 155.836C111.833 155.74 113.191 154.222 113.095 152.448L111.753 126.523C111.657 124.749 110.155 123.375 108.396 123.471L79.9148 124.973Z" fill="#4D4D4D"/>
<path d="M91.98 146.059L77.6475 146.816L77.6643 147.135L91.9969 146.378L91.98 146.059Z" fill="#4D4D4D"/>
<path d="M112.325 133.656L97.9922 134.413L98.009 134.732L112.342 133.975L112.325 133.656Z" fill="#4D4D4D"/>
<path d="M92.1573 146.358L77.5009 147.125L76.8936 135.505L91.5499 134.738L92.1573 146.358ZM77.8046 146.805L91.8216 146.07L91.2462 135.106L77.2292 135.841L77.8046 146.805Z" fill="#4D4D4D"/>
<path d="M113.096 145.255L98.4394 146.022L97.832 134.402L112.488 133.635L113.096 145.255ZM98.7431 145.702L112.76 144.967L112.185 134.003L98.1677 134.738L98.7431 145.702Z" fill="#4D4D4D"/>
<path d="M94.8733 134.898L77.0843 135.841L77.0684 135.522L94.5377 134.595L94.3299 130.615L94.6496 130.599L94.8733 134.898Z" fill="#4D4D4D"/>
<path d="M94.5071 130.854L88.6094 124.157L99.6696 123.566L94.5071 130.854ZM89.2966 124.445L94.4751 130.343L99.0143 123.934L89.2966 124.445Z" fill="#4D4D4D"/>
<path d="M95.6743 150.178L95.3546 150.194L95.1309 145.878L112.92 144.951L112.936 145.271L95.4665 146.198L95.6743 150.178Z" fill="#4D4D4D"/>
<path d="M101.38 156.619L90.3203 157.21L95.4828 149.938L101.38 156.619ZM90.9756 156.843L100.709 156.331L95.5307 150.433L90.9756 156.843Z" fill="#4D4D4D"/>
<path d="M98.2812 140.062L91.6895 140.41L91.7063 140.729L98.298 140.381L98.2812 140.062Z" fill="#4D4D4D"/>
<mask id="mask1_1362_695" style="mask-type:luminance" maskUnits="userSpaceOnUse" x="47" y="66" width="264" height="174">
<path d="M289.559 66.7826L60.4346 78.8699C52.9867 79.2691 47.249 85.6721 47.6486 93.1768L54.569 226.17C54.9526 233.674 61.3136 239.439 68.7774 239.039L297.902 226.952C305.35 226.553 311.088 220.15 310.688 212.645L303.768 79.6523C303.368 72.1636 297.007 66.3834 289.559 66.7826Z" fill="white"/>
</mask>
<g mask="url(#mask1_1362_695)">
<path opacity="0.05" d="M249.846 65.5803L82.5527 244.333L141.722 241.217L309.414 70.4551L308.487 52.6342L249.846 65.5803Z" fill="white"/>
<path opacity="0.05" d="M318.588 93.9017L160.309 272.735L205.269 271.824L338.31 118.164L318.588 93.9017Z" fill="white"/>
</g>
</g>
<mask id="mask2_1362_695" style="mask-type:luminance" maskUnits="userSpaceOnUse" x="175" y="66" width="151" height="183">
<path d="M183.122 241.44L175.514 228.973L201.022 208.931L185.727 193.747L193.478 183.454L186.126 174.663L205.833 153.63L194.741 136.224L204.411 104.642L193.894 66.139L325.705 73.0916L316.563 248.712L183.122 241.44Z" fill="white"/>
</mask>
<g mask="url(#mask2_1362_695)">
<path d="M309.481 78.9582L80.3498 66.8432C72.9017 66.4436 66.5405 72.2134 66.141 79.7254L59.2204 212.847C58.8368 220.359 64.5587 226.768 72.0067 227.168L301.138 239.267C308.586 239.667 314.947 233.897 315.347 226.385L322.267 93.2629C322.667 85.751 316.945 79.3418 309.481 78.9582Z" fill="url(#paint2_linear_1362_695)"/>
<path d="M309.481 78.9582L80.3498 66.8432C72.9017 66.4436 66.5405 72.2134 66.141 79.7254L59.2204 212.847C58.8368 220.359 64.5587 226.768 72.0067 227.168L301.138 239.267C308.586 239.667 314.947 233.897 315.347 226.385L322.267 93.2629C322.667 85.751 316.945 79.3418 309.481 78.9582Z" fill="url(#paint3_linear_1362_695)"/>
<path d="M180.307 161.637L178.612 161.541L176.247 164.913H176.119L174.073 161.301L172.315 161.205L175.288 166.08L171.852 170.603L173.546 170.683L175.943 167.263H176.071L178.101 170.939L179.859 171.019L176.902 166.096L180.307 161.637Z" fill="white"/>
<path d="M208.195 163.108L206.517 163.012L204.136 166.384H204.008L201.978 162.772L200.204 162.676L203.177 167.551L199.74 172.074L201.434 172.17L203.832 168.734L203.96 168.75L205.99 172.41L207.748 172.506L204.791 167.567L208.195 163.108Z" fill="white"/>
<path d="M217.498 163.587L215.82 163.507L213.438 166.88H213.31L211.281 163.268L209.506 163.172L212.479 168.047L209.043 172.57L210.737 172.65L213.135 169.229H213.262L215.292 172.889L217.05 172.985L214.094 168.063L217.498 163.587Z" fill="white"/>
<path d="M226.8 164.083L225.121 164.003L222.74 167.375H222.612L220.582 163.763L218.808 163.667L221.781 168.526L218.345 173.065L220.039 173.145L222.436 169.725H222.58L224.594 173.385L226.352 173.481L223.395 168.558L226.8 164.083Z" fill="white"/>
<path d="M236.101 164.578L234.423 164.482L232.058 167.871L231.914 167.855L229.884 164.243L228.11 164.147L231.083 169.021L227.646 173.545L229.341 173.64L231.738 170.204L231.882 170.22L233.896 173.88L235.654 173.976L232.697 169.037L236.101 164.578Z" fill="white"/>
<path d="M264.041 166.048L262.347 165.968L259.981 169.341H259.837L257.808 165.729L256.033 165.633L259.022 170.491L255.586 175.031L257.264 175.111L259.678 171.69H259.805L261.835 175.35L263.593 175.446L260.637 170.523L264.041 166.048Z" fill="white"/>
<path d="M273.343 166.544L271.648 166.448L269.283 169.836L269.155 169.82L267.109 166.208L265.351 166.128L268.324 170.987L264.888 175.51L266.582 175.606L268.979 172.17L269.107 172.186L271.137 175.846L272.895 175.942L269.938 171.019L273.343 166.544Z" fill="white"/>
<path d="M282.645 167.04L280.951 166.944L278.586 170.316H278.458L276.428 166.704L274.654 166.608L277.627 171.483L274.19 176.006L275.885 176.102L278.282 172.666L278.41 172.682L280.44 176.342L282.198 176.438L279.241 171.499L282.645 167.04Z" fill="white"/>
<path d="M291.947 167.519L290.269 167.439L287.887 170.812H287.76L285.73 167.2L283.956 167.104L286.929 171.978L283.492 176.502L285.186 176.582L287.584 173.161H287.712L289.742 176.821L291.5 176.917L288.543 171.994L291.947 167.519Z" fill="white"/>
<mask id="mask3_1362_695" style="mask-type:luminance" maskUnits="userSpaceOnUse" x="59" y="66" width="264" height="174">
<path d="M309.409 78.8972L80.2829 66.7826C72.835 66.3831 66.474 72.1527 66.0744 79.6643L59.154 212.781C58.7704 220.292 64.4921 226.701 71.94 227.101L301.066 239.199C308.514 239.599 314.875 233.829 315.275 226.318L322.195 93.2013C322.595 85.6896 316.873 79.2808 309.409 78.8972Z" fill="white"/>
</mask>
<g mask="url(#mask3_1362_695)">
<path opacity="0.05" d="M270.144 73.7477L85.2373 233.913L144.406 237.029L328.881 84.8719L329.808 67.0509L270.144 73.7477Z" fill="white"/>
<path opacity="0.05" d="M335.576 109.166L159.62 270.354L204.42 274.174L352.678 135.378L335.576 109.166Z" fill="white"/>
</g>
</g>
</g>
<g filter="url(#filter1_d_1362_695)">
<path d="M331.709 140.153C355.364 116.306 355.364 77.6597 331.709 53.8291C308.054 29.9826 269.695 29.9826 246.041 53.8291C224.112 75.9335 222.514 110.776 241.262 134.735L239.488 141.416L237.346 149.487L245.353 147.329L252.098 145.507C275.849 163.824 309.988 162.049 331.709 140.153Z" fill="url(#paint4_linear_1362_695)"/>
</g>
<path d="M284.002 101.426L282.579 79.9772C282.308 75.8057 282.18 72.8009 282.18 70.9788C282.18 68.5015 282.819 66.5675 284.114 65.177C285.408 63.7865 287.102 63.0992 289.196 63.0992C291.737 63.0992 293.448 63.9943 294.311 65.7684C295.174 67.5425 295.605 70.0998 295.605 73.4562C295.605 75.4221 295.493 77.4199 295.302 79.4498L293.384 101.522C293.176 104.143 292.728 106.157 292.057 107.564C291.37 108.97 290.251 109.674 288.685 109.674C287.086 109.674 285.968 109.002 285.344 107.644C284.705 106.269 284.273 104.191 284.002 101.426ZM288.924 130.883C287.118 130.883 285.536 130.291 284.194 129.109C282.851 127.926 282.18 126.28 282.18 124.154C282.18 122.3 282.819 120.734 284.114 119.423C285.408 118.128 286.975 117.473 288.845 117.473C290.715 117.473 292.297 118.128 293.623 119.423C294.934 120.718 295.605 122.3 295.605 124.154C295.605 126.248 294.934 127.894 293.607 129.077C292.265 130.291 290.715 130.883 288.924 130.883Z" fill="white"/>
<defs>
<filter id="filter0_d_1362_695" x="43.5625" y="66.8236" width="282.725" height="180.463" filterUnits="userSpaceOnUse" color-interpolation-filters="sRGB">
<feFlood flood-opacity="0" result="BackgroundImageFix"/>
<feColorMatrix in="SourceAlpha" type="matrix" values="0 0 0 0 0 0 0 0 0 0 0 0 0 0 0 0 0 0 127 0" result="hardAlpha"/>
<feOffset dy="4"/>
<feGaussianBlur stdDeviation="2"/>
<feComposite in2="hardAlpha" operator="out"/>
<feColorMatrix type="matrix" values="0 0 0 0 0 0 0 0 0 0 0 0 0 0 0 0 0 0 0.25 0"/>
<feBlend mode="normal" in2="BackgroundImageFix" result="effect1_dropShadow_1362_695"/>
<feBlend mode="normal" in="SourceGraphic" in2="effect1_dropShadow_1362_695" result="shape"/>
</filter>
<filter id="filter1_d_1362_695" x="224.304" y="35.9442" width="129.146" height="130.084" filterUnits="userSpaceOnUse" color-interpolation-filters="sRGB">
<feFlood flood-opacity="0" result="BackgroundImageFix"/>
<feColorMatrix in="SourceAlpha" type="matrix" values="0 0 0 0 0 0 0 0 0 0 0 0 0 0 0 0 0 0 127 0" result="hardAlpha"/>
<feOffset dy="4"/>
<feGaussianBlur stdDeviation="2"/>
<feComposite in2="hardAlpha" operator="out"/>
<feColorMatrix type="matrix" values="0 0 0 0 0 0 0 0 0 0 0 0 0 0 0 0 0 0 0.25 0"/>
<feBlend mode="normal" in2="BackgroundImageFix" result="effect1_dropShadow_1362_695"/>
<feBlend mode="normal" in="SourceGraphic" in2="effect1_dropShadow_1362_695" result="shape"/>
</filter>
<linearGradient id="paint0_linear_1362_695" x1="142.385" y1="75.0172" x2="200.516" y2="238.45" gradientUnits="userSpaceOnUse">
<stop stop-color="#EB2028"/>
<stop offset="0.48554" stop-color="#BD2228"/>
<stop offset="0.722222" stop-color="#9D1D22"/>
<stop offset="1" stop-color="#97080D"/>
</linearGradient>
<linearGradient id="paint1_linear_1362_695" x1="77.3575" y1="122.143" x2="114.978" y2="161.474" gradientUnits="userSpaceOnUse">
<stop stop-color="#FFD03F"/>
<stop offset="0.1968" stop-color="#FDCA3A"/>
<stop offset="0.4642" stop-color="#F6B82B"/>
<stop offset="0.7709" stop-color="#EB9C12"/>
<stop offset="0.8989" stop-color="#E58E06"/>
<stop offset="1" stop-color="#DF8800"/>
</linearGradient>
<linearGradient id="paint2_linear_1362_695" x1="188.769" y1="63.3284" x2="192.718" y2="243.062" gradientUnits="userSpaceOnUse">
<stop stop-color="#871553"/>
<stop offset="0.479167" stop-color="#8B4069"/>
<stop offset="0.722222" stop-color="#8D3263"/>
<stop offset="1" stop-color="#9F4475"/>
</linearGradient>
<linearGradient id="paint3_linear_1362_695" x1="154.024" y1="75.2575" x2="212.156" y2="238.69" gradientUnits="userSpaceOnUse">
<stop stop-color="#EB2028"/>
<stop offset="0.48554" stop-color="#BD2228"/>
<stop offset="0.722222" stop-color="#9D1D22"/>
<stop offset="1" stop-color="#97080D"/>
</linearGradient>
<linearGradient id="paint4_linear_1362_695" x1="288.877" y1="35.9442" x2="288.877" y2="158.028" gradientUnits="userSpaceOnUse">
<stop stop-color="#EB2028"/>
<stop offset="1" stop-color="#C61B22"/>
</linearGradient>
</defs>
</svg>
