<svg xmlns="http://www.w3.org/2000/svg" viewBox="0 0 28.43 24.36"><defs><style>.cls-1{fill:#c1c3c9;}</style></defs><g id="Layer_2" data-name="Layer 2"><g id="Layer_3" data-name="Layer 3"><path class="cls-1" d="M14.3,24.36a1,1,0,0,1-.68-.27L2.33,13.45a7.85,7.85,0,0,1,8.15-13,7.93,7.93,0,0,1,3.73,2.78A7.86,7.86,0,1,1,26,13.58l-.08.07L15,24.08A1,1,0,0,1,14.3,24.36ZM7.86,2A5.85,5.85,0,0,0,3.74,12l.09.09L14.3,22l10.28-9.85.08-.06A6,6,0,0,0,26.1,9.82a5.86,5.86,0,0,0-11-4.15,1,1,0,0,1-.92.63h0a1,1,0,0,1-.93-.63A5.89,5.89,0,0,0,9.81,2.34,5.75,5.75,0,0,0,7.86,2Z"/></g></g></svg>