<svg xmlns="http://www.w3.org/2000/svg" viewBox="0 0 13.14 12.05"><defs><style>.cls-1{fill:#fff;}.cls-2{fill:#c1c3c9;}</style></defs><g id="Layer_2" data-name="Layer 2"><g id="Layer_3" data-name="Layer 3"><path class="cls-1" d="M2,6.75A3.35,3.35,0,0,1,2,2,3.34,3.34,0,0,1,6.7,2l.35.34L7.45,2a3.3,3.3,0,0,1,2.34-.95,3.35,3.35,0,0,1,2.87,5.07,3.16,3.16,0,0,1-.47.62L7.1,11.84Z" transform="translate(-0.5 -0.5)"/><path class="cls-2" d="M4.36,1.5a2.84,2.84,0,0,1,2,.82l0,0,.7.69.7-.69a2.75,2.75,0,0,1,1.28-.71,2.82,2.82,0,0,1,.71-.09,2.85,2.85,0,0,1,2.76,2.16,2.79,2.79,0,0,1-.32,2.16,2.82,2.82,0,0,1-.38.51L7.1,11.14,2.35,6.39a2.85,2.85,0,0,1,0-4A2.82,2.82,0,0,1,4.36,1.5m0-1A3.85,3.85,0,0,0,1.65,7.1L7.1,12.55,12.55,7.1a4,4,0,0,0,.54-.71A3.86,3.86,0,0,0,11.76,1.1a3.87,3.87,0,0,0-2-.54,3.81,3.81,0,0,0-.95.12,3.72,3.72,0,0,0-1.74,1l0,0A3.85,3.85,0,0,0,4.36.5Z" transform="translate(-0.5 -0.5)"/></g></g></svg>