<svg xmlns="http://www.w3.org/2000/svg" viewBox="0 0 27.28 29.62"><defs><style>.cls-1{fill:#dfe4f8;}.cls-2{fill:#2d3e89;}.cls-3{fill:#497ad3;}.cls-4{fill:#314d7e;}</style></defs><g id="Layer_2" data-name="Layer 2"><g id="Layer_3" data-name="Layer 3"><path class="cls-1" d="M21.76,18.69a9.82,9.82,0,0,0,1.11-3.24,7.76,7.76,0,0,0-.66-3.82c-1.35-2.2-4.39-3.22-5.1-5.71-.44-1.54-.19-3-1.05-4.38C15.32.37,13.76,0,12.37,0A17.09,17.09,0,0,0,3.81,2.64a10,10,0,0,0-2,1.47l0,0A6.05,6.05,0,0,0,0,9c.16,1.95.44,3.65.73,5.87A10.29,10.29,0,0,0,2,19.21a4.75,4.75,0,0,0,2.18,2,23.38,23.38,0,0,0,10.54,3.16c1.49,0,4.09.17,4.85-1.12a5.36,5.36,0,0,0,.57-2.06C20.32,20.31,21.39,19.51,21.76,18.69Z"/><path class="cls-2" d="M2.67,7.91A.48.48,0,0,0,2.51,8l.29-.18Z"/><path class="cls-2" d="M26.79,7.9h0l.1.06A.13.13,0,0,0,26.79,7.9Z"/><path class="cls-2" d="M26.91,8l-.06,0-.1-.06h0l-4.86-3.1a1,1,0,0,0-1.37.33h0a1,1,0,0,0,.34,1.34l3.64,2.16-9.75,5.32L5,8.61l9.77-5.78L17.93,4.7a1,1,0,0,0,1.36-.36h0A1,1,0,0,0,18.94,3L15.24.8a1,1,0,0,0-1,0L2.8,7.86,2.51,8h0a1,1,0,0,0-.31.72V22a1,1,0,0,0,.51.86l11.54,6.6h0a1.09,1.09,0,0,0,.49.13,1.06,1.06,0,0,0,.5-.13h0l11.53-6.61a1,1,0,0,0,.51-.86V8.76A1,1,0,0,0,26.91,8ZM13.73,26.89,4.18,21.44v-11l9.55,5.2Zm11.55-5.46-9.55,5.46V15.66l9.55-5.21Z"/><polyline class="cls-3" points="12.87 6.8 6.96 10.74 9.5 12.22 15.45 8.35 12.7 6.8"/><polygon class="cls-4" points="7.06 16.79 6.96 10.74 9.5 12.22 9.5 18.19 7.06 16.79"/></g></g></svg>