<svg xmlns="http://www.w3.org/2000/svg" viewBox="0 0 27.96 21.32"><defs><style>.cls-1{fill:#c1c3c9;}</style></defs><g id="Layer_2" data-name="Layer 2"><g id="Layer_3" data-name="Layer 3"><path class="cls-1" d="M7.66,7.15V8.81h0V6.76A1.6,1.6,0,0,1,7.66,7.15Z"/><path class="cls-1" d="M7.66,8.77v0H6a1.42,1.42,0,0,1-.36,0Z"/><path class="cls-1" d="M10.84,8.77a1.5,1.5,0,0,1-.37,0H8.81v0Z"/><path class="cls-1" d="M24.24,0H3.72A3.73,3.73,0,0,0,0,3.73V17.6a3.73,3.73,0,0,0,3.72,3.72H24.24A3.73,3.73,0,0,0,28,17.6V3.73A3.73,3.73,0,0,0,24.24,0ZM2,3.73A1.73,1.73,0,0,1,3.72,2H7.61V5.05A2.61,2.61,0,0,0,6,4.5,2.66,2.66,0,0,0,3.34,7.15,2.63,2.63,0,0,0,3.9,8.77H2ZM7.61,19.32H3.72A1.72,1.72,0,0,1,2,17.6V10.77H6.77a20.74,20.74,0,0,1-2.18,1.6l.54.84a19.5,19.5,0,0,0,2.48-1.85Zm0-10.51H6a1.42,1.42,0,0,1-.36,0A1.65,1.65,0,0,1,6,5.5,1.65,1.65,0,0,1,7.61,6.76a1.6,1.6,0,0,1,0,.39ZM26,17.6a1.72,1.72,0,0,1-1.72,1.72H8.61v-7.7A14.14,14.14,0,0,0,11,13.23l.48-.88a16.7,16.7,0,0,1-2.39-1.58H26ZM8.81,8.81V7.15a1.66,1.66,0,1,1,2,1.62,1.5,1.5,0,0,1-.37,0ZM26,8.77H12.57a2.63,2.63,0,0,0,.56-1.62A2.66,2.66,0,0,0,8.61,5.26V2H24.24A1.73,1.73,0,0,1,26,3.73Z"/><path class="cls-1" d="M22.78,12.44v3.42a.36.36,0,0,1-.36.36H13.11a.36.36,0,0,1-.36-.36v-.71a.36.36,0,0,1,.36-.36h3.12a.36.36,0,0,0,.36-.36v-2a.36.36,0,0,1,.36-.36h5.47A.36.36,0,0,1,22.78,12.44Z"/></g></g></svg>