
<svg id="icon_-_Gift" data-name="icon - Gift" xmlns="http://www.w3.org/2000/svg" width="60" height="60" viewBox="0 0 60 60">
  <rect id="Rectangle_379" data-name="Rectangle 379" width="60" height="60" fill="none"/>
  <g id="Layer_1" data-name="Layer 1" transform="translate(0 -2)">
    <path id="Path_2385" data-name="Path 2385" d="M40.27,30.19c1.52.37,4.13,5.08,4.47,6.14s-2.78,8-4.72,10-12.13,4.9-16.76,5.23S18,47.89,17.7,47.16s-2.79-6.27-3.29-8.06A13.16,13.16,0,0,1,15,32.34c.61-1.06,11.87-.52,10.43-.49-1,0,13.78-.5,14.82-1.66" fill="#c3dbf3"/>
    <path id="Path_2386" data-name="Path 2386" d="M44.46,26.62A.71.71,0,0,1,45,27.75a4,4,0,0,1-2.93,1.78c-2.28,0-9.32-1-11-1.06s-16.09,1.17-17-.11.84-5.2,1.87-5.64S37,26.65,38.37,26.58C39.33,26.54,42.63,26.59,44.46,26.62Z" fill="#e1c7e0"/>
    <path id="Path_2387" data-name="Path 2387" d="M27.94,50c-.87-.45-1.4-3.06-1.4-4.72s1.22-8.49,1.32-9.9.72-7,.72-8.56,4.88-2.52,4.88-.49-.73,15-1,16.9.05,6.53-1.42,7.06A3.36,3.36,0,0,1,27.94,50Z" fill="#f78d79"/>
    <path id="Path_2388" data-name="Path 2388" d="M41.4,24.77H43a1,1,0,0,1,1,1v3.45a1,1,0,0,1-1,1H17a1,1,0,0,1-1-1V25.76a1,1,0,0,1,1-1H37.74" fill="none" stroke="#424761" stroke-linecap="round" stroke-linejoin="round" stroke-width="1.5"/>
    <path id="Path_2389" data-name="Path 2389" d="M42.5,45.82v2.69A1.44,1.44,0,0,1,41.07,50H18.93a1.44,1.44,0,0,1-1.43-1.44V42.72" fill="none" stroke="#424761" stroke-linecap="round" stroke-linejoin="round" stroke-width="1.5"/>
    <circle id="Ellipse_181" data-name="Ellipse 181" cx="1.12" cy="1.12" r="1.12" transform="translate(48.4 38.6)" fill="#3fb686"/>
    <circle id="Ellipse_182" data-name="Ellipse 182" cx="1.12" cy="1.12" r="1.12" transform="translate(43.93 11)" fill="#3fb686"/>
    <circle id="Ellipse_183" data-name="Ellipse 183" cx="1.12" cy="1.12" r="1.12" transform="translate(5.57 33.7)" fill="#a27bb7"/>
    <circle id="Ellipse_184" data-name="Ellipse 184" cx="1.12" cy="1.12" r="1.12" transform="translate(49.52 19.7)" fill="#668ab8"/>
    <circle id="Ellipse_185" data-name="Ellipse 185" cx="1.81" cy="1.81" r="1.81" transform="translate(26.54 8.58)" fill="none" stroke="#29a181" stroke-miterlimit="10" stroke-width="1"/>
    <g id="Group_2989" data-name="Group 2989" transform="translate(0 1)">
      <line id="Line_294" data-name="Line 294" y2="4.07" transform="translate(16.961 5.711)" fill="none" stroke="#f47e2a" stroke-linecap="round" stroke-linejoin="round" stroke-width="1"/>
      <line id="Line_295" data-name="Line 295" x1="4.07" transform="translate(14.93 7.75)" fill="none" stroke="#f47e2a" stroke-linecap="round" stroke-linejoin="round" stroke-width="1"/>
    </g>
    <line id="Line_296" data-name="Line 296" y2="4.07" transform="translate(52.67 26.89)" fill="none" stroke="#f47e2a" stroke-linecap="round" stroke-linejoin="round" stroke-width="1"/>
    <line id="Line_297" data-name="Line 297" x1="4.07" transform="translate(50.64 28.92)" fill="none" stroke="#f47e2a" stroke-linecap="round" stroke-linejoin="round" stroke-width="1"/>
    <line id="Line_306" data-name="Line 306" x1="0.72" y2="0.72" transform="translate(8.13 13.83)" fill="none" stroke="#424761" stroke-linecap="round" stroke-linejoin="round" stroke-width="0.75"/>
    <line id="Line_307" data-name="Line 307" x1="1.01" transform="translate(8.73 15.99)" fill="none" stroke="#424761" stroke-linecap="round" stroke-linejoin="round" stroke-width="0.75"/>
    <line id="Line_308" data-name="Line 308" x1="0.72" y1="0.72" transform="translate(8.13 17.43)" fill="none" stroke="#424761" stroke-linecap="round" stroke-linejoin="round" stroke-width="0.75"/>
    <line id="Line_309" data-name="Line 309" y1="1.01" transform="translate(6.69 18.03)" fill="none" stroke="#424761" stroke-linecap="round" stroke-linejoin="round" stroke-width="0.75"/>
    <line id="Line_310" data-name="Line 310" y1="0.72" x2="0.72" transform="translate(4.53 17.43)" fill="none" stroke="#424761" stroke-linecap="round" stroke-linejoin="round" stroke-width="0.75"/>
    <line id="Line_311" data-name="Line 311" x2="1.01" transform="translate(3.64 15.99)" fill="none" stroke="#424761" stroke-linecap="round" stroke-linejoin="round" stroke-width="0.75"/>
    <line id="Line_312" data-name="Line 312" x2="0.72" y2="0.72" transform="translate(4.53 13.83)" fill="none" stroke="#424761" stroke-linecap="round" stroke-linejoin="round" stroke-width="0.75"/>
    <line id="Line_313" data-name="Line 313" y2="1.01" transform="translate(6.69 12.94)" fill="none" stroke="#424761" stroke-linecap="round" stroke-linejoin="round" stroke-width="0.75"/>
    <path id="Path_2390" data-name="Path 2390" d="M17.5,33V30.19h25V40.64" fill="none" stroke="#424761" stroke-linecap="round" stroke-linejoin="round" stroke-width="1.5"/>
    <line id="Line_314" data-name="Line 314" y1="1.98" transform="translate(17.5 36.73)" fill="none" stroke="#424761" stroke-linecap="round" stroke-linejoin="round" stroke-width="1.5"/>
    <rect id="Rectangle_640" data-name="Rectangle 640" width="6.92" height="25.27" transform="translate(26.54 24.67)" fill="none" stroke="#424761" stroke-linecap="round" stroke-linejoin="round" stroke-width="1.5"/>
    <path id="Path_2391" data-name="Path 2391" d="M24.87,16.19C21.45,15.34,20,18.58,21.21,20s9,4.76,9,4.76a22.42,22.42,0,0,0-2.87-6.68" fill="none" stroke="#424761" stroke-linecap="round" stroke-linejoin="round" stroke-width="2"/>
    <path id="Path_2392" data-name="Path 2392" d="M30.16,24.77s3.67-10.09,7.09-8.17,2.77,4.4,0,5.28a75,75,0,0,0-7.09,2.89Z" fill="none" stroke="#424761" stroke-linecap="round" stroke-linejoin="round" stroke-width="2"/>
  </g>
</svg>
