<svg xmlns="http://www.w3.org/2000/svg" width="15.264" height="15.572"><path d="M15.264 7.965a9.156 9.156 0 00-.134-1.582H7.786v3h4.205a3.6 3.6 0 01-1.556 2.366v1.945h2.509a7.6 7.6 0 002.32-5.729z" fill="#4285f4"/><path d="M7.785 15.572a7.453 7.453 0 005.161-1.88l-2.509-1.945a4.722 4.722 0 01-7.02-2.469H.828v2.005a7.787 7.787 0 006.957 4.289z" fill="#34a853"/><path d="M3.414 9.277a4.663 4.663 0 010-2.981V4.291H.828a7.792 7.792 0 000 6.992z" fill="#fbbc04"/><path d="M7.785 3.081a4.231 4.231 0 012.987 1.167l2.223-2.223A7.483 7.483 0 007.785 0 7.784 7.784 0 00.828 4.291l2.586 2.005a4.657 4.657 0 014.371-3.215z" fill="#ea4335"/></svg>