<svg width="23" height="22" viewBox="0 0 23 22" fill="none" xmlns="http://www.w3.org/2000/svg">
<g clip-path="url(#clip0_369_1798)">
<path d="M7.41035 14.5158H7.4114C7.41228 14.5158 7.41316 14.5156 7.41403 14.5156H19.6308C19.9316 14.5156 20.1961 14.3074 20.2787 14.0057L22.974 4.16192C23.0321 3.94971 22.9914 3.72156 22.8642 3.54541C22.7368 3.36926 22.5376 3.26562 22.3262 3.26562H5.85633L5.37465 1.00372C5.30604 0.682007 5.03265 0.453125 4.71679 0.453125H0.673828C0.301643 0.453125 0 0.767883 0 1.15625C0 1.54462 0.301643 1.85937 0.673828 1.85937H4.17633C4.26161 2.26019 6.48138 12.6836 6.60913 13.2833C5.89301 13.6081 5.39062 14.3532 5.39062 15.2187C5.39062 16.3818 6.29748 17.3281 7.4121 17.3281H19.6308C20.003 17.3281 20.3047 17.0134 20.3047 16.625C20.3047 16.2366 20.003 15.9219 19.6308 15.9219H7.4121C7.04062 15.9219 6.73828 15.6064 6.73828 15.2187C6.73828 14.8317 7.03957 14.5167 7.41035 14.5158ZM21.4328 4.67187L19.1225 13.1094H7.95257L6.1557 4.67187H21.4328Z" fill="#848799"/>
<path d="M6.73828 19.4375C6.73828 20.6006 7.64514 21.5469 8.75976 21.5469C9.87439 21.5469 10.7812 20.6006 10.7812 19.4375C10.7812 18.2744 9.87439 17.3281 8.75976 17.3281C7.64514 17.3281 6.73828 18.2744 6.73828 19.4375ZM8.75976 18.7344C9.13125 18.7344 9.43359 19.0499 9.43359 19.4375C9.43359 19.8251 9.13125 20.1406 8.75976 20.1406C8.38828 20.1406 8.08594 19.8251 8.08594 19.4375C8.08594 19.0499 8.38828 18.7344 8.75976 18.7344Z" fill="#848799"/>
<path d="M16.2617 19.4375C16.2617 20.6006 17.1686 21.5469 18.2832 21.5469C19.3978 21.5469 20.3047 20.6006 20.3047 19.4375C20.3047 18.2744 19.3978 17.3281 18.2832 17.3281C17.1686 17.3281 16.2617 18.2744 16.2617 19.4375ZM18.2832 18.7344C18.6547 18.7344 18.957 19.0499 18.957 19.4375C18.957 19.8251 18.6547 20.1406 18.2832 20.1406C17.9117 20.1406 17.6094 19.8251 17.6094 19.4375C17.6094 19.0499 17.9117 18.7344 18.2832 18.7344Z" fill="#848799"/>
</g>
<defs>
<clipPath id="clip0_369_1798">
<rect width="23" height="22" fill="white"/>
</clipPath>
</defs>
</svg>
