<svg width="22" height="22" viewBox="0 0 22 22" fill="none" xmlns="http://www.w3.org/2000/svg">
<path d="M20.361 19.2168L15.601 14.2662C16.8249 12.8113 17.4954 10.9807 17.4954 9.07499C17.4954 4.62251 13.8729 1 9.42045 1C4.96797 1 1.34546 4.62251 1.34546 9.07499C1.34546 13.5275 4.96797 17.15 9.42045 17.15C11.092 17.15 12.6849 16.6458 14.0467 15.6888L18.8429 20.677C19.0434 20.8852 19.313 21 19.602 21C19.8755 21 20.1349 20.8957 20.3319 20.7061C20.7504 20.3034 20.7637 19.6357 20.361 19.2168ZM9.42045 3.10652C12.7115 3.10652 15.3889 5.78391 15.3889 9.07499C15.3889 12.3661 12.7115 15.0435 9.42045 15.0435C6.12937 15.0435 3.45198 12.3661 3.45198 9.07499C3.45198 5.78391 6.12937 3.10652 9.42045 3.10652Z" fill="#848799"/>
</svg>
