<svg width="22" height="22" viewBox="0 0 22 22" fill="none" xmlns="http://www.w3.org/2000/svg">
<path d="M11 11.75C7.83 11.75 5.25 9.17 5.25 6C5.25 2.83 7.83 0.25 11 0.25C14.17 0.25 16.75 2.83 16.75 6C16.75 9.17 14.17 11.75 11 11.75ZM11 1.75C8.66 1.75 6.75 3.66 6.75 6C6.75 8.34 8.66 10.25 11 10.25C13.34 10.25 15.25 8.34 15.25 6C15.25 3.66 13.34 1.75 11 1.75Z" fill="#848799"/>
<path d="M19.5901 21.75C19.1801 21.75 18.8401 21.41 18.8401 21C18.8401 17.55 15.3202 14.75 11.0002 14.75C6.68015 14.75 3.16016 17.55 3.16016 21C3.16016 21.41 2.82016 21.75 2.41016 21.75C2.00016 21.75 1.66016 21.41 1.66016 21C1.66016 16.73 5.85015 13.25 11.0002 13.25C16.1502 13.25 20.3401 16.73 20.3401 21C20.3401 21.41 20.0001 21.75 19.5901 21.75Z" fill="#848799"/>
</svg>
