<svg xmlns="http://www.w3.org/2000/svg" width="112" height="112" viewBox="0 0 112 112">
    <g fill="none" fill-rule="evenodd">
        <g>
            <g>
                <g transform="translate(-632 -579) translate(530 320) translate(102 259)">
                    <path fill="#E13F3F" fill-opacity="0" d="M0 0L112 0 112 112 0 112z"/>
                    <path fill="#F8C705" d="M67.607 26.929c-1.563-1.562-4.095-1.562-5.657 0l-9.9 9.9L49.222 34l4.242-4.243-1.414-1.414c-1.562-1.562-4.095-1.562-5.657 0l-8.098 8.086-2.828-2.829 8.098-8.085c3.124-3.125 8.189-3.125 11.314 0l1.414 1.414 2.828-2.829c3.124-3.124 8.19-3.124 11.314 0l9.9 9.9-2.829 2.829-9.899-9.9z"/>
                    <rect width="58.222" height="46" x="27" y="35" stroke="#141C30" stroke-width="4" rx="10"/>
                    <path stroke="#141C30" stroke-width="4" d="M85 52v12H68.706c-1.592 0-3.042-.683-4.088-1.812C63.625 61.116 63 59.638 63 58s.625-3.116 1.618-4.188C65.664 52.683 67.114 52 68.706 52H85z"/>
                    <circle cx="69" cy="58" r="2" fill="#141C30"/>
                </g>
            </g>
        </g>
    </g>
</svg>
