<svg xmlns="http://www.w3.org/2000/svg" width="112" height="112" viewBox="0 0 112 112">
    <g fill="none" fill-rule="evenodd">
        <g>
            <g>
                <g transform="translate(-1174 -579) translate(530 320) translate(644 259)">
                    <path stroke="#141C30" stroke-width="4" d="M71.66 33.714c2.583 0 4.953.984 6.737 2.61 1.784 1.627 2.982 3.896 3.22 6.468h0l3.177 34.285c.255 2.75-.629 5.343-2.264 7.312-1.635 1.968-4.021 3.314-6.77 3.568-.307.029-.615.043-.923.043h0-36.674c-2.761 0-5.261-1.12-7.07-2.929-1.81-1.81-2.93-4.31-2.93-7.071 0-.308.014-.616.043-.923h0l3.176-34.285c.239-2.572 1.437-4.841 3.22-6.468 1.785-1.626 4.155-2.61 6.738-2.61h0z"/>
                    <path stroke="#F8C705" stroke-width="4" d="M67.3 41.429V32.8c0-5.965-4.835-10.8-10.8-10.8-5.965 0-10.8 4.835-10.8 10.8v8.629h0"/>
                    <ellipse cx="45.7" cy="40.619" fill="#141C30" rx="2.7" ry="2.429"/>
                    <ellipse cx="67.3" cy="40.619" fill="#141C30" rx="2.7" ry="2.429"/>
                </g>
            </g>
        </g>
    </g>
</svg>
