<svg xmlns="http://www.w3.org/2000/svg" width="96.94" height="93.95" viewBox="0 0 96.94 93.95"><defs><style>.b{fill:#fff}</style></defs><g opacity=".05"><path class="b" d="M67.07.87a5.357 5.357 0 00-5.76-.06L27.17 22.23H5.33A5.328 5.328 0 000 27.56v66.39h10.66V32.9h18.05a5.357 5.357 0 002.83-.82l32.54-20.41 30.98 20.35a5.233 5.233 0 001.88.77V20.5zm19.42 56.78H39.07a5.335 5.335 0 00-5.33 5.33v30.97H44.4V68.31h36.76v25.64h10.66V62.98a5.335 5.335 0 00-5.33-5.33z"/><path class="b" d="M67.04 64.1v29.85h-7.11V64.1a3.555 3.555 0 117.11 0z"/></g></svg>