<svg xmlns="http://www.w3.org/2000/svg" viewBox="0 0 383.34 383.34"><defs><style>.cls-1{fill:#4bae4f;}.cls-2{fill:#fff;}</style></defs><title>icon</title><g id="Layer_2" data-name="Layer 2"><g id="Layer_1-2" data-name="Layer 1"><path class="cls-1" d="M191.67,0C85.81,0,0,85.81,0,191.67S85.81,383.34,191.67,383.34s191.67-85.81,191.67-191.67S297.53,0,191.67,0Zm109,144.33L167,277.88c-5.77,5.76-9.07,5.75-14.86-.06q-34.92-35.06-69.82-70.13c-5.11-5.14-5.09-8.95.06-14.13Q95,180.95,107.61,168.39c4.83-4.8,8.77-4.83,13.58,0q17.81,17.7,35.49,35.54a16.66,16.66,0,0,1,2.12,3.58l1.89-.2a20.66,20.66,0,0,1,2.27-3.46q48.85-49,97.76-97.85c6.38-6.38,9.65-6.4,16-.08q11.94,11.91,23.85,23.85C306.19,135.41,306.21,138.77,300.65,144.33Z"/><path class="cls-2" d="M160.69,207.27a20.66,20.66,0,0,1,2.27-3.46q48.85-49,97.76-97.85c6.38-6.38,9.65-6.4,16-.08q11.94,11.91,23.85,23.85c5.64,5.68,5.66,9,.1,14.6L167,277.88c-5.77,5.76-9.07,5.75-14.86-.06q-34.92-35.06-69.82-70.13c-5.11-5.14-5.09-8.95.06-14.13Q95,180.95,107.61,168.39c4.83-4.8,8.77-4.83,13.58,0q17.81,17.7,35.49,35.54a16.66,16.66,0,0,1,2.12,3.58Z"/></g></g></svg>