<svg width="40" height="40" viewBox="0 0 40 40" fill="none" xmlns="http://www.w3.org/2000/svg">
<path fill-rule="evenodd" clip-rule="evenodd" d="M20.0012 9.33325C17.1042 9.33325 16.7407 9.34592 15.6029 9.3977C14.4673 9.4497 13.6922 9.62948 13.014 9.89326C12.3124 10.1657 11.7173 10.5302 11.1244 11.1233C10.5311 11.7162 10.1666 12.3113 9.89328 13.0126C9.62883 13.6911 9.44883 14.4664 9.39772 15.6015C9.34683 16.7393 9.3335 17.1031 9.3335 20C9.3335 22.8969 9.34639 23.2594 9.39794 24.3972C9.45016 25.5328 9.62994 26.3079 9.8935 26.9861C10.1662 27.6877 10.5306 28.2828 11.1237 28.8757C11.7164 29.469 12.3115 29.8344 13.0126 30.1068C13.6913 30.3706 14.4667 30.5504 15.602 30.6024C16.7398 30.6541 17.1031 30.6668 19.9998 30.6668C22.897 30.6668 23.2594 30.6541 24.3972 30.6024C25.5328 30.5504 26.3088 30.3706 26.9875 30.1068C27.6888 29.8344 28.283 29.469 28.8757 28.8757C29.469 28.2828 29.8335 27.6877 30.1068 26.9863C30.3691 26.3079 30.5491 25.5325 30.6024 24.3974C30.6535 23.2596 30.6668 22.8969 30.6668 20C30.6668 17.1031 30.6535 16.7396 30.6024 15.6018C30.5491 14.4662 30.3691 13.6911 30.1068 13.0128C29.8335 12.3113 29.469 11.7162 28.8757 11.1233C28.2824 10.5299 27.689 10.1655 26.9868 9.89326C26.3068 9.62948 25.5312 9.4497 24.3957 9.3977C23.2579 9.34592 22.8956 9.33325 19.9978 9.33325H20.0012ZM19.0443 11.2555C19.2301 11.2552 19.4299 11.2553 19.6456 11.2554L20.0012 11.2555C22.8492 11.2555 23.1868 11.2657 24.3114 11.3168C25.3514 11.3644 25.9159 11.5382 26.2919 11.6842C26.7897 11.8775 27.1446 12.1086 27.5177 12.482C27.891 12.8553 28.1221 13.2108 28.3159 13.7086C28.4619 14.0842 28.6359 14.6486 28.6833 15.6887C28.7344 16.8131 28.7455 17.1509 28.7455 19.9976C28.7455 22.8443 28.7344 23.1821 28.6833 24.3065C28.6357 25.3465 28.4619 25.911 28.3159 26.2865C28.1226 26.7843 27.891 27.1388 27.5177 27.5119C27.1443 27.8852 26.7899 28.1163 26.2919 28.3097C25.9163 28.4563 25.3514 28.6297 24.3114 28.6772C23.187 28.7283 22.8492 28.7395 20.0012 28.7395C17.1529 28.7395 16.8154 28.7283 15.6909 28.6772C14.6509 28.6292 14.0864 28.4555 13.7102 28.3095C13.2124 28.1161 12.8569 27.885 12.4835 27.5117C12.1102 27.1383 11.8791 26.7837 11.6853 26.2857C11.5393 25.9101 11.3653 25.3456 11.318 24.3056C11.2668 23.1812 11.2566 22.8434 11.2566 19.9949C11.2566 17.1464 11.2668 16.8104 11.318 15.686C11.3655 14.646 11.5393 14.0815 11.6853 13.7055C11.8786 13.2077 12.1102 12.8522 12.4835 12.4788C12.8569 12.1055 13.2124 11.8744 13.7102 11.6806C14.0862 11.5339 14.6509 11.3606 15.6909 11.3128C16.6749 11.2684 17.0562 11.255 19.0443 11.2528V11.2555ZM24.415 14.3062C24.415 13.5993 24.9883 13.0266 25.695 13.0266V13.0262C26.4017 13.0262 26.975 13.5995 26.975 14.3062C26.975 15.0129 26.4017 15.5862 25.695 15.5862C24.9883 15.5862 24.415 15.0129 24.415 14.3062ZM20.0009 14.5222C16.9759 14.5223 14.5233 16.975 14.5233 20C14.5233 23.0252 16.976 25.4768 20.0012 25.4768C23.0263 25.4768 25.4781 23.0252 25.4781 20C25.4781 16.9749 23.0261 14.5222 20.0009 14.5222ZM23.5568 20C23.5568 18.0362 21.9647 16.4444 20.0012 16.4444C18.0374 16.4444 16.4456 18.0362 16.4456 20C16.4456 21.9636 18.0374 23.5556 20.0012 23.5556C21.9647 23.5556 23.5568 21.9636 23.5568 20Z" fill="#F8383F"/>
</svg>
