<svg xmlns="http://www.w3.org/2000/svg" viewBox="0 0 26.92 31.32"><defs><style>.cls-1{fill:#c1c3c9;}</style></defs><g id="Layer_2" data-name="Layer 2"><g id="Layer_3" data-name="Layer 3"><path class="cls-1" d="M24.68,12.09V7.49L17.87.13,2.73,0V12.12l0-.07A2.69,2.69,0,0,0,0,14.73V28.64a2.69,2.69,0,0,0,2.69,2.68H24.24a2.68,2.68,0,0,0,2.68-2.68V14.73A2.68,2.68,0,0,0,24.68,12.09ZM18.43,3.68l3.23,3.49H18.43ZM4.73,2l11.7.1V9.17h6.25V15l-7.19,5.15-.73.56a2.26,2.26,0,0,1-.26.16h0l-1,.73L4.73,15.28ZM24.92,28.64a.68.68,0,0,1-.68.68H2.69A.68.68,0,0,1,2,28.64V15.2l.73.55,8.63,6.56a3.8,3.8,0,0,0,4.17.29l1.09-.78,8.06-6.14.24-.18Z"/></g></g></svg>