<svg xmlns="http://www.w3.org/2000/svg" viewBox="0 0 27.76 26.84"><defs><style>.cls-1{fill:#2d3e89;}</style></defs><g id="Layer_2" data-name="Layer 2"><g id="Layer_3" data-name="Layer 3"><path class="cls-1" d="M9.45,12H2.57A2.57,2.57,0,0,1,0,9.45V2.57A2.57,2.57,0,0,1,2.57,0H9.45A2.57,2.57,0,0,1,12,2.57V9.45A2.56,2.56,0,0,1,9.45,12ZM2.57,2A.56.56,0,0,0,2,2.57V9.45a.56.56,0,0,0,.57.56H9.45A.56.56,0,0,0,10,9.45V2.57A.56.56,0,0,0,9.45,2Z"/><path class="cls-1" d="M9.45,26.84H2.57A2.57,2.57,0,0,1,0,24.27V17.39a2.58,2.58,0,0,1,2.57-2.57H9.45A2.57,2.57,0,0,1,12,17.39v6.88A2.57,2.57,0,0,1,9.45,26.84Zm-6.88-10a.57.57,0,0,0-.57.57v6.88a.57.57,0,0,0,.57.57H9.45a.57.57,0,0,0,.56-.57V17.39a.57.57,0,0,0-.56-.57Z"/><path class="cls-1" d="M26.76,4.14h-10a1,1,0,1,1,0-2h10a1,1,0,1,1,0,2Z"/><path class="cls-1" d="M26.76,9.87h-10a1,1,0,0,1,0-2h10a1,1,0,1,1,0,2Z"/><path class="cls-1" d="M26.76,19h-10a1,1,0,0,1,0-2h10a1,1,0,0,1,0,2Z"/><path class="cls-1" d="M26.76,24.7h-10a1,1,0,0,1,0-2h10a1,1,0,0,1,0,2Z"/></g></g></svg>