<svg xmlns="http://www.w3.org/2000/svg" viewBox="0 0 25.59 27.28"><defs><style>.cls-1{fill:#fff;}</style></defs><g id="Layer_2" data-name="Layer 2"><g id="Layer_3" data-name="Layer 3"><path class="cls-1" d="M22.85,10.34H20.19V6.64A6.65,6.65,0,0,0,13.55,0H12A6.65,6.65,0,0,0,5.4,6.64v3.7H2.74A2.74,2.74,0,0,0,0,13.08V24.54a2.74,2.74,0,0,0,2.74,2.74H22.85a2.74,2.74,0,0,0,2.74-2.74V13.08A2.74,2.74,0,0,0,22.85,10.34ZM7.4,6.64A4.64,4.64,0,0,1,12,2h1.51a4.64,4.64,0,0,1,4.64,4.64v3.7H7.4Zm16.19,17.9a.74.74,0,0,1-.74.74H2.74A.74.74,0,0,1,2,24.54V13.08a.74.74,0,0,1,.74-.74H22.85a.74.74,0,0,1,.74.74Z"/></g></g></svg>