<svg xmlns="http://www.w3.org/2000/svg" viewBox="0 0 24.12 25.04"><defs><style>.cls-1{fill:#c1c3c9;}</style></defs><g id="Layer_2" data-name="Layer 2"><g id="Layer_3" data-name="Layer 3"><path class="cls-1" d="M11,25H3.84C1.72,25,0,23.05,0,20.6V4.44C0,2,1.72,0,3.84,0H11a1,1,0,0,1,0,2H3.84C2.84,2,2,3.12,2,4.44V20.6C2,21.93,2.84,23,3.84,23H11a1,1,0,0,1,0,2Z"/><path class="cls-1" d="M24.12,12.92a1,1,0,0,1-.31.73l-7.53,7a1,1,0,1,1-1.37-1.46l5.67-5.28H8.16a1,1,0,0,1,0-2H20.61l-5.7-5.36a1,1,0,0,1,0-1.42,1,1,0,0,1,1.41,0l7.53,7.09A1,1,0,0,1,24.12,12.92Z"/></g></g></svg>