<svg xmlns="http://www.w3.org/2000/svg" width="103.349" height="40" viewBox="0 0 103.349 40"><defs><style>.a{fill:#2c3c8b;}.b{fill:#2b3c8a;}.c{fill:#ec242b;}.d{fill:#eb2028;}.e{fill:#30408d;}.f{fill:#33448f;}</style></defs><g transform="translate(-6.11 -18.406)"><path class="a" d="M169.9,118.421a7.278,7.278,0,0,0-.117,2.865c.492,2.8,2.85,3.009,4.579,2.068a8.049,8.049,0,0,0,2.79-2.654,18.035,18.035,0,0,0,1.61-3.209,2.11,2.11,0,0,1,.5-.93c.391.242.339.638.331.992a2.18,2.18,0,0,1-.151.737,16.537,16.537,0,0,1-2.644,4.689,6.286,6.286,0,0,1-7.484,1.618,4.428,4.428,0,0,1-2.493-3.149,1.57,1.57,0,0,0-.289-.8,13.761,13.761,0,0,1-1.237,2.027,5.4,5.4,0,0,1-3.834,2.344,2.092,2.092,0,0,1-2.441-1.461,5.323,5.323,0,0,1-.341-1.756c-.016-.44,0-.883,0-1.433a4.228,4.228,0,0,0-.782,1.224,9.229,9.229,0,0,1-1.563,2.014,5.038,5.038,0,0,1-3.016,1.435,2.12,2.12,0,0,1-2.391-1.42,6.181,6.181,0,0,1-.383-2.133v-1.159c-.573.857-1.042,1.6-1.563,2.308a6.288,6.288,0,0,1-6.926,2.3,4.535,4.535,0,0,1-3.324-3.538c-.047-.208-.026-.448-.287-.61l-.782,1.25a4.556,4.556,0,0,1-1.23,1.3,2.3,2.3,0,0,1-3.225-.37c-.086-.091-.167-.185-.261-.3a18.553,18.553,0,0,1-1.42,1.271,6.677,6.677,0,0,1-5.4,1.131,2.367,2.367,0,0,1-2.154-2.49c-.057-.612,0-1.235,0-2.084-.464.729-.8,1.256-1.136,1.782a9.118,9.118,0,0,1-1.441,1.753,4.167,4.167,0,0,1-1.081.761,2.046,2.046,0,0,1-3.05-1.222,8.386,8.386,0,0,1-.49-2.782c-.018-.409,0-.818,0-1.3a1.577,1.577,0,0,0-.565.81,15.89,15.89,0,0,1-1.769,2.8,5.4,5.4,0,0,1-2.063,1.625A2.593,2.593,0,0,1,108.629,123c-.208-.69-.3-1.412-.466-2.209a13.949,13.949,0,0,1-1.521,2.326,5.176,5.176,0,0,1-2.73,1.933,1.982,1.982,0,0,1-2.191-.922,5.392,5.392,0,0,1-.7-2.527,14.864,14.864,0,0,1,.823-6.254c.107-.284.315-.557.242-.894-.169-.211-.333-.076-.505,0a2.511,2.511,0,0,1-1.477.234c-.448-.1-.591.083-.732.477a42.5,42.5,0,0,1-2.6,5.991,16.515,16.515,0,0,1-1.935,2.915,4.767,4.767,0,0,1-1.23,1.042,1.422,1.422,0,0,1-.9.234c-.409-.05-.542-.284-.307-.628.464-.68.927-1.362,1.446-2a29.746,29.746,0,0,0,4.358-7.338l.26-.607a.544.544,0,0,0-.245-.781,2.147,2.147,0,0,1-1.068-2.084,1.136,1.136,0,0,1,.737-1.115,1.769,1.769,0,0,1,1.633.2c.237.164.185.458.245.693a2.43,2.43,0,0,0,2.386,1.891.623.623,0,0,0,.633-.3,2.7,2.7,0,0,1,2.98-1.352c.276.039.565-.063.88.117a23.236,23.236,0,0,0-1.8,4.538,13.546,13.546,0,0,0-.836,4.251c0,.539-.023,1.159.521,1.433.612.31,1.063-.182,1.5-.539a4.949,4.949,0,0,0,1.347-1.7,32.722,32.722,0,0,0,1.456-3.282,7.352,7.352,0,0,1,3.4-4.272,4.949,4.949,0,0,1,4.3-.247,3.126,3.126,0,0,1,1.628,1.352c.31-.039.326-.313.453-.471a2.479,2.479,0,0,1,2.285-1.084c.466.047.943,0,1.48,0a21.6,21.6,0,0,0-2.55,7.815,4.137,4.137,0,0,0,.031,1.787c.19.672.565.867,1.206.615a2.05,2.05,0,0,0,.781-.539,9.878,9.878,0,0,0,2.493-5.007,55.555,55.555,0,0,1,2.6-10.534c.057-.146.122-.289.18-.438a2.414,2.414,0,0,1,2.805-1.839,10.123,10.123,0,0,0,1.352,0,27.905,27.905,0,0,0-3.358,8.831c-.365,1.446-.6,2.925-.891,4.392.38.094.391-.208.469-.375a18.358,18.358,0,0,1,1.373-2.373,8.043,8.043,0,0,1,1.469-1.6,3.96,3.96,0,0,1,1.407-.755,2.546,2.546,0,0,1,3.358,1.625,7.5,7.5,0,0,1,.052,5.1,10.435,10.435,0,0,1-1,2.139c-.352.584-.326.836.07,1.261a1.133,1.133,0,0,0,1.461.232,3.858,3.858,0,0,0,1.219-1.175,17.368,17.368,0,0,0,1.982-3.965,7.484,7.484,0,0,1,3.748-4.556,5.59,5.59,0,0,1,4.238-.4,2.988,2.988,0,0,1,2.305,3.079,2.576,2.576,0,0,1-.735,1.7,5.381,5.381,0,0,1-2.923,1.446,7.177,7.177,0,0,1-3.683-.167,7.719,7.719,0,0,0-.141,2.92c.438,2.579,2.6,3.144,4.566,2.1a8.039,8.039,0,0,0,3.011-2.957,15.96,15.96,0,0,0,2.175-6.2,41.375,41.375,0,0,1,2.034-7.955,13.333,13.333,0,0,1,2.24-3.819,3.5,3.5,0,0,1,3.506-1.394,1.769,1.769,0,0,1,1.5,1.378,4.305,4.305,0,0,1-.175,2.6,23.477,23.477,0,0,1-2.821,5.554,36.831,36.831,0,0,1-3.337,4.48,1.539,1.539,0,0,0-.357.748,22.069,22.069,0,0,0-.521,5.452c.018.537.023,1.149.57,1.414a1.52,1.52,0,0,0,1.579-.38,6.22,6.22,0,0,0,1.855-2.126c.49-.99,1.019-1.967,1.422-2.988a15.153,15.153,0,0,0,.646-3.144,41.777,41.777,0,0,1,2.266-8.38,12.72,12.72,0,0,1,1.975-3.2,3.472,3.472,0,0,1,3.5-1.4,1.763,1.763,0,0,1,1.55,1.563,5.21,5.21,0,0,1-.26,2.6,23.947,23.947,0,0,1-2.66,5.21,37.045,37.045,0,0,1-3.386,4.564,1.87,1.87,0,0,0-.456.912,22.765,22.765,0,0,0-.487,5.364c.023.537,0,1.141.568,1.412a1.506,1.506,0,0,0,1.576-.378,6.033,6.033,0,0,0,1.7-1.889,20.152,20.152,0,0,0,1.5-3.259,7.815,7.815,0,0,1,2.389-3.584,5.819,5.819,0,0,1,5.486-1.282,3.012,3.012,0,0,1,2.384,3.022,2.641,2.641,0,0,1-1.334,2.266,7.1,7.1,0,0,1-5.632.891C170.17,118.421,170.064,118.34,169.9,118.421Zm-7.085-5.405a10.945,10.945,0,0,0,1.628-2.274,25.55,25.55,0,0,0,2.811-5.47,7.711,7.711,0,0,0,.55-2.673c0-.287-.021-.6-.331-.732a.87.87,0,0,0-.9.115,2.383,2.383,0,0,0-.688.781,17.793,17.793,0,0,0-.781,1.618,35.914,35.914,0,0,0-1.717,5.694,10.872,10.872,0,0,0-.557,2.954l-.125.039.057.086Zm-51.421,7.294v.188c.065.646-.055,1.407.714,1.711.716.284,1.271-.182,1.771-.612a7.082,7.082,0,0,0,1.724-2.23c.781-1.547,1.508-3.126,2.235-4.689.281-.607.206-.8-.313-1.188a1.646,1.646,0,0,0-.873-.315,3.126,3.126,0,0,0-2.712,1.073,9.865,9.865,0,0,0-2.548,6.041Zm15.335,1.5c.016.26.018.505.055.755a2.793,2.793,0,0,0,.154.542,1.14,1.14,0,0,0,1.719.74,3.31,3.31,0,0,0,1.48-1.282,14.1,14.1,0,0,0,2.11-5.113,4.209,4.209,0,0,0,.052-1.967c-.221-.839-.763-1.138-1.547-.745a4.28,4.28,0,0,0-1.529,1.248,13.571,13.571,0,0,0-2.29,4.52A4.8,4.8,0,0,0,126.728,121.808Zm27.972-8.857a18.545,18.545,0,0,0,2.107-3,19.97,19.97,0,0,0,2.7-5.991,12.125,12.125,0,0,0,.224-1.206.862.862,0,0,0-.326-.844.8.8,0,0,0-.969.109,2.867,2.867,0,0,0-.521.544,6.452,6.452,0,0,0-.781,1.4,37.445,37.445,0,0,0-1.727,5.486,23.894,23.894,0,0,0-.7,3.511Zm-11.071,4.767a4.006,4.006,0,0,0,3.626-3.316c.073-1.065-.573-1.612-1.612-1.261a5.053,5.053,0,0,0-3.209,3.459.7.7,0,0,0,.49.972,1.584,1.584,0,0,0,.706.161Zm28.094,0a4.035,4.035,0,0,0,3.613-3.332c.06-1.016-.573-1.581-1.542-1.271a5.076,5.076,0,0,0-3.287,3.5c-.161.474.042.761.521.961a1.63,1.63,0,0,0,.7.156Z" transform="translate(-70.138 -80.391)"/><path class="b" d="M44.875,107.242a8.341,8.341,0,0,0-2.344.3,28.267,28.267,0,0,1-6.3.643,4.332,4.332,0,0,1-.664-.026.6.6,0,0,1-.521-.828,5.3,5.3,0,0,1,1.214-2c.177-.232.466-.172.711-.138,2.6.357,5.241.135,7.862.232a1.266,1.266,0,0,0,1.391-.847c.607-1.386,1.3-2.735,1.935-4.111.276-.589.26-.656-.359-.909-2.084-.88-4.191-1.745-6.286-2.618a3.126,3.126,0,0,0-1.761-.279,2.344,2.344,0,0,0-1.579,1.1c-.357.521-.677.469-1-.068a3.345,3.345,0,0,1,1.792-4.749,5.559,5.559,0,0,1,4.233.313q4.337,2.118,8.672,4.238c2.751,1.344,5.577,2.511,8.432,3.61.675.261,1.381.438,2.084.654a2.435,2.435,0,0,1,.44.151.471.471,0,0,1,.2.495c-.018.26-.2.289-.4.3a12.7,12.7,0,0,1-3.767-.247c-2.144-.521-4.34-.81-6.458-1.448a.722.722,0,0,0-.992.425c-.586,1.188-1.224,2.344-1.823,3.493a.734.734,0,0,0,.112.19c.2.161.649-.021.646.4a.99.99,0,0,1-.5.768.5.5,0,0,1-.26.115c-.781,0-1.042.581-1.334,1.146-1.24,2.344-2.344,4.746-3.472,7.151a33.421,33.421,0,0,1-1.948,3.459,2.522,2.522,0,0,1-3.647.534c-.589-.607-1.318-1.078-1.917-1.688l-5.929-6.036a2.369,2.369,0,0,1-.26-.26c-.135-.185-.482-.323-.284-.61s.458-.034.7,0a3.154,3.154,0,0,1,2.047,1.412A26.762,26.762,0,0,0,38.3,116.25a4.489,4.489,0,0,0,.378.287c1.206.763,1.654.425,2.084-.521C42.1,113.111,43.471,110.238,44.875,107.242Z" transform="translate(-24.631 -74.264)"/><path class="c" d="M58.687,215.992V210.9c-.391-.081-.336.188-.391.336-.568,1.5-1.151,3-1.683,4.509a.827.827,0,0,1-.956.649c-1.334-.031-1.342,0-1.823-1.274-.557-1.464-1.1-2.933-1.784-4.382v5.166c0,.182.034.456-.216.445-.755-.036-1.537.24-2.266-.161.049-.026.135-.042.143-.076.026-.112-.076-.112-.148-.128,0-3.126,0-6.252-.042-9.378,0-.464.2-.521.568-.521.6.013,1.2.036,1.8,0a.733.733,0,0,1,.836.565c.781,1.964,1.586,3.907,2.378,5.872a.649.649,0,0,0,.32.425c.6-1.474,1.19-2.938,1.782-4.408.26-.672.539-1.347.8-2.021a.581.581,0,0,1,.638-.43c.662.026,1.329.026,1.99,0,.4-.013.563.1.552.521-.026.979,0,1.959,0,2.938v6.166c0,.649-.016.654-.685.662H59.075c-.156,0-.32,0-.367-.2.047-.023.122-.039.13-.07C58.846,216.015,58.762,216.007,58.687,215.992Z" transform="translate(-38.518 -158.137)"/><path class="d" d="M105.185,221.163c-.089.016-.13,0-.148.026a3.429,3.429,0,0,1-5.791-1.889,5.47,5.47,0,0,1,.133-3.175,3.423,3.423,0,0,1,5.6-1.454.6.6,0,0,0,.167.073c.122-.875.122-.886,1.063-.873.469,0,1.042-.2,1.373.091.37.333.128.953.133,1.443.021,1.99,0,3.983,0,5.973,0,.659-.013.662-.672.672h-.948C105.25,222.049,105.25,222.049,105.185,221.163Zm-3.551-3.175a1.8,1.8,0,1,0,3.577-.109,1.793,1.793,0,0,0-1.792-1.915A1.861,1.861,0,0,0,101.635,217.988Z" transform="translate(-75.163 -163.809)"/><path class="b" d="M311.3,220.953a3.948,3.948,0,0,1-1.5.961,3.467,3.467,0,0,1-4.272-2.193,5.527,5.527,0,0,1-.078-3.535,3.406,3.406,0,0,1,5.65-1.631c.036.042.112.044.169.068.1-.873.1-.886.964-.87.5,0,1.138-.219,1.461.1.367.354.13,1.013.135,1.537.016,1.959,0,3.907,0,5.877,0,.656,0,.659-.672.669h-.946C311.359,221.93,311.359,221.93,311.3,220.953Zm.031-3.126a1.838,1.838,0,0,0-1.823-2,1.8,1.8,0,0,0-1.753,1.948,1.879,1.879,0,0,0,1.756,2.055,1.857,1.857,0,0,0,1.821-2Z" transform="translate(-227.589 -163.69)"/><path class="d" d="M165.834,211.69c0,.852-.018,1.7,0,2.55.013.432-.081.643-.568.607-.537-.042-1.076,0-1.612,0-.232,0-.349-.1-.344-.339v-9.774c0-.724,0-.735.7-.735.565,0,1.131.029,1.7.044a4.3,4.3,0,0,1,.107,1.766c.034,1.263.023,2.529.031,3.793,0,.018.031.034.115.125.534-.714,1.11-1.378,1.563-2.12a1.79,1.79,0,0,1,1.943-.959,12.762,12.762,0,0,0,1.61.021c.055,0,.1.047.219.1-.891,1.081-1.769,2.152-2.652,3.22-.755.909-.729.669-.023,1.513.891,1.063,1.784,2.123,2.811,3.345h-2.941c-.294,0-.409-.276-.552-.471-.583-.781-1.157-1.584-1.73-2.378C166.12,211.856,166.055,211.705,165.834,211.69Z" transform="translate(-122.667 -156.594)"/><path class="c" d="M204.131,219.107a3.929,3.929,0,0,1-4.46,2.878,3.877,3.877,0,0,1-3.535-3.907,5.624,5.624,0,0,1,.112-1.6,4.086,4.086,0,0,1,4.785-2.891,3.923,3.923,0,0,1,3.3,4.382c-.042.406-.237.443-.557.44h-5.077a1.385,1.385,0,0,0,.922,1.4,1.282,1.282,0,0,0,1.563-.328,1.11,1.11,0,0,1,1-.378C202.8,219.107,203.428,219.107,204.131,219.107Zm-2.428-2.193c-.276-1.016-.685-1.339-1.545-1.3-.8.023-1.211.391-1.43,1.3Z" transform="translate(-146.931 -163.625)"/><path class="a" d="M379.939,218.573c.362,1.521,1.454,1.881,2.6.86a.7.7,0,0,1,.482-.26,16.464,16.464,0,0,1,2.329.073,3.024,3.024,0,0,1-1.383,2.055,4.241,4.241,0,0,1-4.66.208,3.946,3.946,0,0,1-1.936-4.019c.175-3.725,4-4.569,6.252-3.371a4.083,4.083,0,0,1,1.962,4.014c-.034.378-.3.339-.552.339h-4.168A1.848,1.848,0,0,0,379.939,218.573Zm-.013-1.594h3c-.128-.844-.5-1.232-1.235-1.3C380.815,215.587,380.322,215.937,379.926,216.979Z" transform="translate(-280.965 -163.701)"/><path class="e" d="M255.6,206.414c-.031-.216.029-.391.274-.388a38.7,38.7,0,0,1,4.824.076,3.138,3.138,0,0,1,2.722,3.144,3.209,3.209,0,0,1-2.6,3.254,8.27,8.27,0,0,1-2.162.143c-.4,0-.568.109-.555.521.023.883,0,1.766,0,2.649,0,.37-.128.505-.495.492-.6-.023-1.2,0-1.8,0-.13,0-.245-.031-.24-.2.122-.021.26-.034.281-.19.021-.26.018-.5.018-.753v-7.948C255.854,206.941,256.049,206.56,255.6,206.414Zm2.5,2.884c.047,1.516-.315,1.271,1.355,1.3a1.128,1.128,0,0,0,.188,0,1.2,1.2,0,0,0,1.17-1.4c-.057-.745-.495-1.1-1.448-1.1C257.857,208.089,258.123,207.9,258.092,209.3Z" transform="translate(-190.887 -158.063)"/><path class="b" d="M350.64,216.531c-.74,0-1.334-.013-1.93,0a1.157,1.157,0,0,1-1.042-.435,1.349,1.349,0,0,0-2.344.521,3.665,3.665,0,0,0-.029,1.969,1.36,1.36,0,0,0,1.076,1.081,1.222,1.222,0,0,0,1.394-.56c.117-.2.242-.365.521-.344.188.016.378,0,.568,0h1.7a3.472,3.472,0,0,1-2.6,2.959,4.718,4.718,0,0,1-2.524-.023,3.739,3.739,0,0,1-2.751-3.17,5.119,5.119,0,0,1,.042-1.98c.594-2.634,2.9-3.426,4.988-3.022A3.669,3.669,0,0,1,350.64,216.531Z" transform="translate(-255.249 -163.565)"/><path class="d" d="M231.325,212.392c0-.5-.013-1.008,0-1.513.016-.375-.06-.62-.508-.557-.393.055-.485-.161-.466-.505a6.359,6.359,0,0,0,0-.946c-.036-.456.065-.735.6-.654.294.042.38-.148.365-.409a1.16,1.16,0,0,1,0-.19c.063-.456-.229-1.042.146-1.344s.912-.062,1.378-.086c.159,0,.318.016.474,0,.44-.055.544.172.521.557s0,.7,0,1.042.154.432.466.445c.367,0,.849-.182,1.081.1.279.333.073.847.107,1.279v.378a.292.292,0,0,1-.344.339h-.1c-.37.034-.847-.167-1.091.091-.3.323-.1.841-.12,1.274q-.034.852,0,1.7c.026.662.2.821.847.886.813.081.831.081.815.808-.034,1.563.3,1.3-1.347,1.316a4.564,4.564,0,0,1-.565-.021,2.35,2.35,0,0,1-2.24-2.282c-.052-.563,0-1.133,0-1.7Z" transform="translate(-172.239 -158.16)"/><path class="d" d="M141.59,215.2a3.421,3.421,0,0,1,2.141-1.378c.3-.05.438.068.445.32.018.664,0,1.326,0,1.988a.365.365,0,0,1-.422.391h-.664a1.4,1.4,0,0,0-1.482,1.493c-.044,1.042-.016,2.084-.021,3.126,0,1.084.1.953-.966.938-.492,0-1.112.237-1.446-.13-.284-.315-.086-.906-.086-1.373v-6.056c0-.6.013-.6.633-.615.44,0,.883.018,1.323,0,.393-.021.6.091.55.521A7.667,7.667,0,0,0,141.59,215.2Z" transform="translate(-104.707 -163.847)"/><path class="f" d="M290.636,214.368q-.073-4.921,0-9.841c.349-.083.219-.37.245-.589.57,0,1.138,0,1.706-.034.4-.021.576.107.552.521-.026.537,0,1.073,0,1.612v7.869c0,.959.042.849-.88.852h-1.235c-.159,0-.318,0-.378-.19.052-.026.141-.042.148-.076C290.821,214.386,290.7,214.386,290.636,214.368Z" transform="translate(-216.798 -156.52)"/><path class="b" d="M255.409,207.63c.453.146.26.521.26.8.016,2.649,0,5.3,0,7.948,0,.26,0,.5-.018.753,0,.156-.159.169-.281.19-.115-1.284-.036-2.571-.05-3.858-.016-1.563,0-3.139,0-4.71C255.331,208.38,255.383,208.005,255.409,207.63Z" transform="translate(-190.699 -159.278)"/><path class="b" d="M290.9,204c-.026.219.1.505-.245.589C290.671,204.375,290.478,204.063,290.9,204Z" transform="translate(-216.819 -156.594)"/><path class="b" d="M290.74,244.08c.078.018.185.018.156.135,0,.034-.1.05-.148.076Z" transform="translate(-216.903 -186.233)"/></g></svg>