<svg width="26" height="20" viewBox="0 0 26 20" fill="none" xmlns="http://www.w3.org/2000/svg">
<path d="M0.0546985 2.81388C0.200561 2.44923 0.291725 2.0481 0.510519 1.73815C0.948107 1.08176 1.60449 0.808272 2.37027 0.790039C2.40673 0.790039 2.46143 0.790039 2.4979 0.790039C9.51753 0.790039 16.5554 0.790039 23.575 0.790039C24.5596 0.790039 25.3436 1.17293 25.763 2.08457C25.9088 2.39453 26 2.77742 26 3.12384C26 7.64558 26 12.1673 26 16.6891C26 18.0748 24.9972 19.0411 23.575 19.0411C17.6858 19.0411 11.7966 19.0411 5.8892 19.0411C4.7223 19.0411 3.5554 19.0411 2.3885 19.0411C1.42216 19.0411 0.674614 18.6035 0.237027 17.7283C0.12763 17.5095 0.0729313 17.2543 0 17.0172C0 12.2767 0 7.55442 0 2.81388H0.0546985ZM2.68022 2.30336C2.68022 2.30336 2.77139 2.41276 2.80785 2.44923C5.65217 5.29355 8.51473 8.13786 11.359 10.964C12.3619 11.9485 13.7293 11.9485 14.7321 10.964C17.5764 8.1561 20.4025 5.33001 23.2286 2.50392C23.2833 2.44923 23.3198 2.39453 23.3745 2.3216H2.68022V2.30336ZM2.82609 17.4913H23.2468C21.1501 15.3581 19.0168 13.1701 16.8471 10.964C16.4642 11.3468 16.136 11.7115 15.7714 12.0579C14.6957 13.0972 13.4194 13.4436 11.979 13.0607C11.3043 12.8784 10.7574 12.5137 10.2651 12.0215C9.93689 11.675 9.59046 11.3286 9.22581 10.964C7.0561 13.1701 4.92286 15.3581 2.82609 17.5095V17.4913ZM1.58626 16.4156C3.75596 14.1912 5.90743 12.0215 7.98597 9.88822C5.90743 7.77321 3.75596 5.58527 1.58626 3.3791V16.3973V16.4156ZM24.4867 16.4338V3.36087C22.2987 5.58527 20.1473 7.77321 18.0687 9.88822C20.1655 12.0397 22.317 14.2094 24.4867 16.4338Z" fill="#9DBFF5"/>
</svg>
