
<svg xmlns="http://www.w3.org/2000/svg" width="60" height="60"><defs><style>.d{fill:#a1abe0}.e,.g{fill:none;stroke:#424761;stroke-width:1.5px}.e{stroke-linecap:round;stroke-miterlimit:9.999}</style></defs><path d="M45.568 32.356c-.111 10.423-3 7.731-4.663 7.963a90.017 90.017 0 00-9.66 2.777c-.36.129-.72.257-1.071.386-2.006.823-6.454 2.777-9.12 1.56s-3.009-4.62-5.014-6.994-.206-11.194.566-13.637c.411-1.294 1.534-1.5 2.829-1.509a12.4 12.4 0 003.454-.163l.086-.026h.009a111.928 111.928 0 0115.086-1.92 5.6 5.6 0 014.783 2.22 16.081 16.081 0 011.5 2.34c.941 1.671 1.249 3.943 1.215 7.003z" fill="#e1ebf5"/><path d="M45.576 22.944c-.249.051-1.32.069-2.726.069-3.034 0-7.646-.069-8.863-.069-1.029 0-6.463-.009-11.006-.231h-.009a80.01 80.01 0 01-3.523-.24c-1.62-.163-2.769-.377-2.957-.66-.746-1.1-.009-2.829-.009-2.829a8.081 8.081 0 013.308-1.663 26.848 26.848 0 015.3-.96c1.629-.094 15.986-.943 17.931 0s1.98.737 2.554 2.623.763 3.806 0 3.96z" fill="#7990e2"/><path class="d" d="M25.569 15.437c.637 1.166 0 1.549-.536 1.74a2.432 2.432 0 01-2.53-.4c-.764-.817-.666-2.805-.894-3.443a2.545 2.545 0 01.641-2.036c.375-.468 2.249.218 2.342.514a36.735 36.735 0 00.977 3.625zM37.993 14.018c-.262-1.294.267-1.485.686-1.521a1.742 1.742 0 011.769 1.083c.414 1 0 2.876.057 3.55a2.6 2.6 0 01-.817 1.774c-.353.343-1.6-.832-1.612-1.141s.039-3.16-.083-3.745z"/><path class="e" d="M47.31 30.162q.009-1.6.005-1.167M29.781 15.277a231.612 231.612 0 00-3.615-.078M38.804 15.384a43.091 43.091 0 01-4.147.069s-.8-.036-2.026-.081M47.298 26.054c0-4.481-.012-7.071-.114-7.482-.223-.894-.819-3.2-3.114-3.381a17.425 17.425 0 00-2.2 0"/><path d="M37.855 28.941l.6.039a.413.413 0 01.248.677l-2.711 3.164a.413.413 0 00-.1.318l.448 3.642a.413.413 0 01-.358.46.406.406 0 01-.2-.024l-3.348-1.258a.4.4 0 00-.287 0l-3.477 1.27a.413.413 0 01-.53-.247.4.4 0 01-.022-.188l.454-3.932a.412.412 0 00-.1-.316l-2.6-3.047a.412.412 0 01.046-.582h0a.41.41 0 01.221-.1 4.825 4.825 0 011.5-.171 9.007 9.007 0 001.951-.219.413.413 0 00.306-.185 9.661 9.661 0 01.857-1.364 19 19 0 001.181-1.886.412.412 0 01.567-.132.424.424 0 01.136.14 7.769 7.769 0 011.068 1.533l.867 1.707a.413.413 0 00.293.2l.55.076" fill="#fff0a5" stroke-linecap="round" stroke="#424761" stroke-width="1.5"/><path class="g" d="M24.634 11.739a1.536 1.536 0 011.536 1.536v3.414a1.537 1.537 0 01-1.536 1.536 1.536 1.536 0 01-1.536-1.536v-3.417a1.536 1.536 0 011.536-1.533zM40.337 11.739a1.536 1.536 0 011.536 1.536v3.414a1.537 1.537 0 01-1.536 1.536 1.536 1.536 0 01-1.536-1.536v-3.417a1.536 1.536 0 011.536-1.533z"/><path d="M16.493 21.813c-.746-1.1-.009-2.829-.009-2.829a8.081 8.081 0 013.308-1.663c-.12 1.551-.24 3.326-.343 5.151-1.618-.161-2.767-.376-2.956-.659z" opacity=".184"/><path d="M31.245 43.096c-.36.129-.72.257-1.071.386-2.006.823-6.454 2.777-9.12 1.56s-3.009-4.62-5.014-6.994-.206-11.194.566-13.637c.411-1.294 1.534-1.5 2.829-1.509-.266 5.469-.257 11.28.849 12.9 1.318 1.954-.272 5.236 10.961 7.294z" opacity=".14"/><path class="e" d="M23.097 15.203a9.715 9.715 0 00-2.68.25c-1.039.592-2.743.887-2.743 4.671s-.445 16.979 0 18.61.887 3.633 2.817 3.707 22.317.519 23.8 0a4.707 4.707 0 002.891-3.194c.049-.362.086-2.6.114-5.486"/><path d="M17.475 21.979s14.359-.37 29.821 0" stroke-miterlimit="9.999" stroke="#424761" stroke-width="1.5" fill="none"/></svg>
