<svg xmlns="http://www.w3.org/2000/svg" viewBox="0 0 27.64 30.05"><defs><style>.cls-1{fill:#c1c3c9;}</style></defs><g id="Layer_2" data-name="Layer 2"><g id="Layer_3" data-name="Layer 3"><path class="cls-1" d="M20.3,30.05H4a4,4,0,0,1-4-4V4A4,4,0,0,1,4,0H20.3a4,4,0,0,1,4,4V26A4,4,0,0,1,20.3,30.05ZM4,2A2,2,0,0,0,2,4V26a2,2,0,0,0,2,2H20.3a2,2,0,0,0,2-2V4a2,2,0,0,0-2-2Z"/><path class="cls-1" d="M26.64,11.87H24.2a1,1,0,0,1,0-2h1.44V8.31H24.2a1,1,0,1,1,0-2h2.44a1,1,0,0,1,1,1v3.56A1,1,0,0,1,26.64,11.87Z"/><path class="cls-1" d="M26.64,18.46H24.2a1,1,0,1,1,0-2h1.44V14.9H24.2a1,1,0,0,1,0-2h2.44a1,1,0,0,1,1,1v3.56A1,1,0,0,1,26.64,18.46Z"/><path class="cls-1" d="M26.64,25.05H24.2a1,1,0,0,1,0-2h1.44V21.5H24.2a1,1,0,0,1,0-2h2.44a1,1,0,0,1,1,1v3.55A1,1,0,0,1,26.64,25.05Z"/><path class="cls-1" d="M12.16,15a4.34,4.34,0,1,1,4.34-4.34A4.35,4.35,0,0,1,12.16,15Zm0-6.68a2.34,2.34,0,1,0,2.34,2.34A2.34,2.34,0,0,0,12.16,8.31Z"/><path class="cls-1" d="M18.52,23.89H5.8a1,1,0,0,1-1-1,7.07,7.07,0,0,1,6.84-7.09c.35,0,.69,0,1,0a7.07,7.07,0,0,1,6.84,7.09A1,1,0,0,1,18.52,23.89Zm-11.63-2H17.43a5.08,5.08,0,0,0-4.82-4.09q-.45,0-.9,0A5.08,5.08,0,0,0,6.89,21.89Z"/></g></g></svg>