
<svg xmlns="http://www.w3.org/2000/svg" width="60" height="60"><defs><style>.d,.h{fill:none;stroke-linecap:round}.d{stroke-linejoin:round;stroke-width:1.5px;stroke:#424761}.h{stroke:#fff}.i{fill:#9bc9f4}</style></defs><g transform="translate(-1544.6 -389.395)"><path d="M1578.718 414.859c5.557 2.211 6.134 3.764 8.576 7.438s.554 7.16-2.609 10.3c-2.7 2.678-2.451 7.355-10.1 4.623s-10.3-4.01-12.369-5.7c-3.938-3.224-1.345-8.754-1.079-13.933.061-1.18 1.369-1.593 1.7-2.722.186-.636.4-1.254.635-1.864a12.862 12.862 0 012.288-4.02c2.309-2.567 3.051-4.375 6.4-3.216 3.192 1.112 1 6.881 6.558 9.094z" fill="#c19056"/><path d="M1579.3 414.487c6.143 1.607 5.832 2.612 8.459 6.386 1.786 2.562 7.524 4.95 6.66 8.043-.332 1.2-7.76 2.246-8.817 3.259-3.02 2.892-2.594 2.914-6.717 1.888a27.619 27.619 0 01-10.469-5.147c-4.259-3.245-9.592-7.637-9.525-12.989a12.562 12.562 0 01.327-3.265c.184-.636 1.48-2.607 1.718-3.223a23.144 23.144 0 013.4-5.426c2.4-2.582 6.668-2.608 10.217-1.38 3.392 1.176-1.397 10.247 4.747 11.854z" fill="#ffdeb3"/><path class="d" d="M1584.968 415.029a4.8 4.8 0 011.393.914M1588.925 417.719c4.074 4.324 4.281 12.233 1.1 15.33-2.916 2.84-7.914 3.748-11.871 2.772a20.642 20.642 0 01-9.048-4.155c-6.328-5.894-8.075-10.071-7.844-15.219.154-2.2.718-6.457 3.275-8.941 2.19-1.786 4.512-3.227 7.909-2.051 3.256 1.128 4.171 7.222 9.609 8.393"/><path d="M1578.628 414.42c5.007 1.928 6.179 3.26 8.474 6.273s4.068 6.641 1.372 9.071c-2.47 2.229-6.538 2.241-10.028 1.373-.12-.03-.238-.06-.518-.136a24.978 24.978 0 01-8.4-4.087c-3.607-2.694-6.475-6.65-6.414-10.792a10.783 10.783 0 01.43-2.766c.141-.5.311-.99.5-1.474a9.15 9.15 0 011.892-3.154c1.966-1.992 3.547-2.8 6.558-1.776 2.872.974 1.126 5.541 6.134 7.468z" fill="#be2026"/><path d="M1567.803 409.214c-.432.7-1.868 6.33 2.629 9.368s11.7 7.3 13.986 9.414 5.884-.473 1.817-5.446-6.421-5.381-8.679-6.739a6.207 6.207 0 01-3.262-4.3c-.652-1.963-.754-3.381-3.061-3.6s-2.998.599-3.43 1.303z" fill="#eb2028"/><ellipse cx="2.712" cy="3.449" rx="2.712" ry="3.449" transform="rotate(-39 1370.6 -2006.779)" stroke-miterlimit="9.994" stroke="#fff" fill="none"/><path class="h" d="M1567.813 423.329a9.323 9.323 0 01-3.623-6.829M1564.543 414.488l.544-2.718"/><path class="i" d="M1595.1 409.976l-.039.224-.545.1-.554.1.554.1.545.1.039.224.04-.224.545-.1.554-.1-.554-.1-.545-.1-.04-.224m0-4.582l.75 4.25 4.25.75-4.25.75-.75 4.25-.75-4.25-4.25-.75 4.25-.75zM1555.6 403.976l-.039.224-.545.1-.554.1.554.1.545.1.039.224.04-.224.545-.1.554-.1-.554-.1-.545-.1-.04-.224m0-4.582l.75 4.25 4.25.75-4.25.75-.75 4.25-.75-4.25-4.25-.75 4.25-.75z"/></g></svg>
