<svg xmlns="http://www.w3.org/2000/svg" viewBox="0 0 26.92 19.27"><defs><style>.cls-1{fill:#c1c3c9;}</style></defs><g id="Layer_2" data-name="Layer 2"><g id="Layer_3" data-name="Layer 3"><path class="cls-1" d="M24.24,0H2.69A2.69,2.69,0,0,0,0,2.68V16.59a2.69,2.69,0,0,0,2.69,2.68H24.24a2.68,2.68,0,0,0,2.68-2.68V2.68A2.68,2.68,0,0,0,24.24,0Zm-.71,2L14.76,8.67a1.82,1.82,0,0,1-2.19,0L3.79,2Zm1.39,14.59a.68.68,0,0,1-.68.68H2.69A.68.68,0,0,1,2,16.59V3.15l9.36,7.11a3.8,3.8,0,0,0,4.61,0l9-6.81Z"/></g></g></svg>