
<svg xmlns="http://www.w3.org/2000/svg" xmlns:xlink="http://www.w3.org/1999/xlink" width="1924" height="140" viewBox="0 0 1924 140"><defs><style>.a{fill:#fff;}.b{clip-path:url(#a);}.c,.e{fill-rule:evenodd;opacity:0.49;isolation:isolate;}.c{fill:url(#b);}.d{clip-path:url(#e);}.e{fill:url(#f);}.f{clip-path:url(#g);}</style><clipPath id="a"><rect class="a" width="1920" height="140" transform="translate(-277 4013.367)"/></clipPath><linearGradient id="b" x1="0.474" y1="0.32" x2="1" y2="0.321" gradientUnits="objectBoundingBox"><stop offset="0" stop-color="#e1e3ef"/><stop offset="1" stop-color="#e1ecef"/></linearGradient><clipPath id="e"><rect class="a" width="1920" height="140" transform="translate(-277 0.367)"/></clipPath><linearGradient id="f" x1="0.526" y1="0.68" x2="0" y2="0.679" xlink:href="#b"/><clipPath id="g"><rect class="a" width="1920" height="140" transform="translate(-277 -1.633)"/></clipPath></defs><g transform="translate(277 -4013.367)"><g class="b"><path class="c" d="M476.929,181.98s25.345,17.127,25.345,49.009S473.8,274.325,473.8,295.407s27.824,28.566,28.121,61.208-35.239,54.161-35.239,76.4,35.066,40.144,35.066,82.395S380.586,656.875,380.586,656.875L160.3,610.648s-280.918,40.217-287.188,44.782c-252.87,184.109-11.843-509.569-11.843-509.569L189.983,54,319.656,65.985s85.311,44.129,95.822,54.145S476.929,181.98,476.929,181.98Z" transform="translate(-191.57 3742)"/></g><g class="b"><path class="c" d="M476.929,181.98s25.345,17.127,25.345,49.009S473.8,274.325,473.8,295.407s27.824,28.566,28.121,61.208-35.239,54.161-35.239,76.4,35.066,40.144,35.066,82.395S380.586,656.875,380.586,656.875L160.3,610.648s-280.918,40.217-287.188,44.782c-252.87,184.109-11.843-509.569-11.843-509.569L189.983,54,319.656,65.985s85.311,44.129,95.822,54.145S476.929,181.98,476.929,181.98Z" transform="translate(-151.57 3832)"/></g><g class="d" transform="translate(0 4013)"><path class="e" d="M-217.085,558.541s-25.345-17.127-25.345-49.009,28.469-43.336,28.469-64.418-27.824-28.566-28.121-61.208,35.239-54.161,35.239-76.4-35.066-40.144-35.066-82.395S-120.742,83.646-120.742,83.646L99.545,129.873S380.463,89.656,386.733,85.091C639.6-99.018,398.576,594.66,398.576,594.66L69.861,686.521-59.812,674.536s-85.311-44.129-95.822-54.145S-217.085,558.541-217.085,558.541Z" transform="translate(1297.727 -331.521)"/></g><g class="f" transform="translate(4 4015)"><path class="e" d="M-217.085,558.541s-25.345-17.127-25.345-49.009,28.469-43.336,28.469-64.418-27.824-28.566-28.121-61.208,35.239-54.161,35.239-76.4-35.066-40.144-35.066-82.395S-120.742,83.646-120.742,83.646L99.545,129.873S380.463,89.656,386.733,85.091C639.6-99.018,398.576,594.66,398.576,594.66L69.861,686.521-59.812,674.536s-85.311-44.129-95.822-54.145S-217.085,558.541-217.085,558.541Z" transform="translate(1257.727 -281.521)"/></g></g></svg>
