
<svg xmlns="http://www.w3.org/2000/svg" width="121.486" height="114.23"><defs><style>.a{fill:#fff}.b{fill:#9f9eaf}.c{fill:#cccadb}.e,.g,.i,.k,.m{fill:none}.e,.i,.k,.m{stroke:#51526e}.e,.g,.k,.m{stroke-linecap:round}.e,.g,.i{stroke-miterlimit:10.005}.e,.i,.k{stroke-width:3.001px}.g{stroke:#9f9eaf;stroke-width:2.001px}.k{stroke-miterlimit:4.002}.m{stroke-miterlimit:4.004;stroke-width:3.003px}</style></defs><path class="a" d="M66.401 69.091l-1.5 8.5-8.5 1.5 8.5 1.5 1.5 8.5 1.5-8.5 8.5-1.5-8.5-1.5z"/><g transform="translate(1.486 1.501)"><path class="b" d="M31.253 86.768s21.986 1.227 28.017 5.319-10.975 13.453-13.542 14.8-10.361-1.182-12.834-2.73-2.051 1.524-13.007-14.406M72.871 48.073a17.589 17.589 0 00-1 3.868 14.487 14.487 0 01-.514 4.432 7.022 7.022 0 01-3.278 3.18 4.33 4.33 0 01-1.763.571 3.728 3.728 0 01-2.741-1.191c-.677-.67-1.161-1.459-1.889-2.094a11.453 11.453 0 00-4.514-1.986c-.729-.2-1.633-.758-1.169-1.243a1.392 1.392 0 01.621-.287 44.446 44.446 0 007.513-3.5 15 15 0 018.2-1.918M59.438 49.779c.694-.009.465-1.677-.044-2.151a2.668 2.668 0 00-1.976-.443l-18.376.783c-3.882.165-7.917.372-11.332 2.223a20.6 20.6 0 00-5.764 5.09c-1.882 2.248-3.637 4.845-3.741 7.78-.172 4.887-.365 3.431 1.729 7.851-1.026-3.536.825 12.335 2.012 8.849s4.733-14 8.166-16.7 4.572-4.262 8.93-5.4 8.835-5.184 18.57-6.714M83.645 34.595c1.137-1.651 3.522-1.047 2.535-2.035-.873-1.014-4.407-.291-6.971.666s-1.452.1-3.241 1.811a1.08 1.08 0 00-.391.638 1.184 1.184 0 00.573.889c1.9 1.506 3.844 2.7 6.514 2.32"/><path class="c" d="M55.086 40.882c.36-.764-.413-1.677-1.255-1.766a3.509 3.509 0 00-2.315.877 5.756 5.756 0 01-2.2 1.216 4.188 4.188 0 01-2.972-.879 11.422 11.422 0 00-2.728-1.607 10.757 10.757 0 00-2.485-.3 4.452 4.452 0 01-2.374-.7 1.893 1.893 0 01-.719-2.2 2.87 2.87 0 011.552-1.2l5.7-2.57a12.51 12.51 0 00-3.444-1.021 17.67 17.67 0 00-3.034-.138 7.188 7.188 0 00-2.828.514 8.144 8.144 0 00-2.513 2.155 10.231 10.231 0 00-1.749 2.41 3.45 3.45 0 00-.117 2.892 5.07 5.07 0 002 1.879 21.859 21.859 0 005.156 2.642c2.418.75 5.033.692 7.438 1.5a32.116 32.116 0 004.23 1.52c1.476.272 3.236-.123 3.957-1.44.62-1.139.3-2.636.995-3.734"/><path class="c" d="M103.595 21.068c-1.722 4.877-16.927-2.128-19.971-1.929s-8.957-4.07-16.291-2.205-15.009 3.77-19.017 1.749-36.8 17.278-33.1 37.084 12.947 24.146 18.5 29.388 8.3 9.091 2.311 10.228-11.733-5.262-13.775-8.4a66.685 66.685 0 00-6.181-7.459S-1.089 61.285 5.492 44.941 35.018 11.613 40.273 8.735c3.89-2.13 45.535-.7 53.4 1.148s11.649 6.308 9.922 11.185z"/><path class="b" d="M49.989 6.806c-.505-2.17-.144-2.04-1.741-3.595-1.217-1.186-10.026-.551-11.635 0-1.947.665-2.574 3.022-3.415 4.9-.914 2.039-.54 4.16-2.754 4.455-1.789.239-3.816 3.271-5.6 3.557-1.9.306-5.274-2.175-5.8-.323a8.14 8.14 0 00.652 5.61 3.726 3.726 0 002.231 2.239c1.928.466 3.38-1.623 4.567-3.213a20.059 20.059 0 018.745-6.314c3.384-1.36 11.838-5.292 15.408-6.012-1.094-1.757-5.493 2.668-5.809 2.4M8.36 56.824a34.226 34.226 0 00-5.86 5.322 3.582 3.582 0 00-.825 1.3 2.923 2.923 0 00-.017 1.32A8.545 8.545 0 005.3 70.044a23.322 23.322 0 005.94 2.768 91.277 91.277 0 01-3.673-12.523c-.264-1.211-.462-2.609.31-3.577"/><path d="M61.584 11.58s-20.2-3.149-42.776 22.351c.006-.001 16.944-28.048 42.776-22.351z" fill="#f7f7f7"/><path class="e" d="M89.27 32.069a5.491 5.491 0 00-4.224 5.743"/><path d="M43.77 9.556s.389-8.278-9.787-9.559c0 0-10.489 18.693-17.433 19.235l6.567 2.654" stroke-linejoin="round" stroke-width="3.001" stroke-linecap="round" stroke="#51526e" fill="none"/><path class="e" d="M54.437 34.615s-13.039-6.018-19.709.067 8.14 6.236 11.993 8.325 7.657-2.315 8.926-3.783"/><path class="g" d="M72.872 47.749s-13.98-5.086-16.28-20.814M56.452 20.414s.029-8.711 6.825-14.389"/><circle cx="2.75" cy="2.75" r="2.75" transform="translate(77.431 16.414)" fill="#51526e"/><circle class="a" cx=".736" cy=".736" r=".736" transform="translate(78.438 17.421)"/><path class="i" d="M65.965 47.897s.505 5.913-3.038 10.226-7.2-6.569-9.448-6.137M7.645 56.442S.604 62.621.039 65.476s5.184 2.917 10 8.528"/><path d="M29.603 86.805s15.48 5.169 21.964 8.958-9.743 3.114-12.4 4.858-7.891 11.88-10.542 10.471c-1.1-.583-1.831-1.991-2.628-4.423-.913-2.781.262 1.046-1.6-4.793" stroke-miterlimit="10.001" stroke-width="3" stroke-linecap="round" stroke="#51526e" fill="none"/><path class="k" d="M11.667 40.396c-5.378 13.552-5.211 20.386-3.75 27.079s7.885 24.3 18.845 25.175c14.619 1.019-1.016-4.16-4.194-12.492s-6.891-20.618 16.21-25.289M47.398 52.758s9.344-1.274 15.265-3.771 23.625-.977 30.9-6.75.973-4.552 0-4.076"/><path d="M27.709 50.198s-1.134 10.634-4.764 14.654-3.334-11.671-5.651-12.545 4.391-4.555 6.106-4.908" stroke-linejoin="round" stroke-width="3.001" stroke-linecap="round" stroke="#51526e" fill="#cccadb"/><path class="k" d="M64.687 5.803s-24.38-4.185-47.716 24.438"/><path class="m" d="M22.359 96.493l-.925-4.626"/><path d="M93.998 38.015c-.008 0-16.256 7.374-23.96-2.27 2.515.093 25.985-4.37 29.192-7.327 2.1-1.617 5.886-14.041-20.725-19.809" stroke-width="3.003" stroke-linejoin="round" stroke-linecap="round" stroke="#51526e" fill="none"/><path class="m" d="M71.993 7.136l-.857-.161"/></g><path class="a" d="M111.478 1.586l-1.5 8.5-8.5 1.5 8.5 1.5 1.5 8.5 1.5-8.5 8.5-1.5-8.5-1.5z"/></svg>
