
<svg xmlns="http://www.w3.org/2000/svg" width="121.511" height="119.628"><defs><style>.c,.e,.g,.h{fill:none}.c{stroke:#4a5172}.c,.e,.g,.h{stroke-linecap:round;stroke-linejoin:round;stroke-width:3px}.e{stroke:#966f44}.g{stroke:#a7aed1}.h{stroke:#435562}</style></defs><path d="M89.479 112.157s-5.522-10.024-6.021-11.532 5.567-2.07-.215-16.321c-1.528-3.768-6.126-12.785-6.126-12.785l-5.3 3.524s6.869 17.337 6.034 20.793-6.284 4.547-7.258 4.789-11.324-10.071-12.875-13.256-5.734 1.747-5.734 1.747 14.129 11.687 17.785 13.421 8.927 15.17 11.433 14.628c8.318-1.798 8.277-5.008 8.277-5.008z" fill="#fff"/><path d="M10.627 98.781a.1.1 0 01.023.043 7.819 7.819 0 001.03 1.488c2.541 2.717 4.748 7.268 11.078 6.685s33.029-11.853 40-19.437c5.059-5.5 16.33-11.137 24.254-12.192 5.153-.681 10.879-1.342 15.835-2.384a40.9 40.9 0 007.1-2.038 27.055 27.055 0 002.753-1.306c5.044-2.661 9.929-7.033 8.581-11.579-.514-1.732-1.079-4.107-2.049-6.8a34.3 34.3 0 00-14.481-18.279s-24.412-8.915-34.272-5.115S10.8 52.106 7.94 68.749c-2.487 14.483.263 25.598 2.687 30.032z" fill="#c19056"/><path class="c" d="M112.587 45.867s3.2 9.63-10.281 13.84-24.275 1.4-30.135 3.546S37.032 91.567 23.4 95.257C3.926 100.53 4.62 94.206 2.043 85.523"/><path d="M87.562 39.276c-5.753-.859-6.632 5.317-6.025 8.824s6.184 2 9.264 2.1 6.71-9.433-3.239-10.924z" stroke="#f4be89" fill="#966f44" stroke-linecap="round" stroke-linejoin="round" stroke-width="3"/><path class="e" d="M64.233 55.232a62.549 62.549 0 00-19.8-11.133M75.479 49.914s-9.413-7.936-19.991-11.619M35.522 52.619a15.6 15.6 0 00-3.464-1.563M54.046 62.788c-1.913-1.989-6.116-4.508-11.372-7.009M43.202 70.554c-5.525-3.568-19.7-11.469-22.287-12.13"/><path d="M10.618 98.76l.009.029a.083.083 0 01.023.043 7.852 7.852 0 001.03 1.488c2.541 2.717 4.748 7.267 11.078 6.685s33.029-11.853 40-19.437c5.059-5.5 16.33-11.137 24.254-12.192 5.153-.681 10.879-1.343 15.835-2.384 3.311-1.073 6.764-2.206 9.857-3.344 5.044-2.662 9.929-7.034 8.581-11.58-.514-1.732-1.079-4.107-2.049-6.8-1.935 4.8-5.808 10.469-13.5 12.094-14.055 2.973-20.772 1.775-27.692 4.1s-28.923 19.41-36.189 23.62-11.484 7.406-18.777 7.894a68.242 68.242 0 01-12.46-.216z" fill="#966f44"/><path class="c" d="M80.085 25.427c-5.7-.994-11.384-1.342-15.055.07a316.205 316.205 0 00-31.465 14.317M17.188 49.642C9.319 55.153 3.427 60.965 2.498 66.374c-2.859 16.641 1.2 28.848 3.735 31.568s4.753 7.263 11.08 6.685 33.026-11.855 40-19.437c5.058-5.5 16.334-11.138 24.252-12.188s17.153-2.046 22.944-4.424 12.932-7.51 11.337-12.888-3.757-17.043-16.536-25.076c0 0-3.362-1.227-8.1-2.577"/><path class="e" d="M23.501 72.759c-4.675-2.653-9.614-5.4-12.224-6.489M33.564 78.4c-1.136-.577-1.878-.986-4.093-2.245"/><path class="g" d="M51.818 2.067s-2.894 1.783-3.733 3.966c-1.6 4.117 1.818 4.659.728 9.245-.675 2.809-3.4 2.909-6.07 5.959-1.539 1.747-3.151 5.072-3.835 11.631M32.829 35.297s-3.187-3.3-3.523-6.4c-.652-5.852 4.044-5.352 4.226-11.628.174-6.553-3.63-6.746-2.093-11.97"/><path class="h" d="M75.001 74.627s5.271 10.153 6.662 14-.231 11.388-1.517 14.624l5.022 10.471M68.552 77.515s10.622 17.689 3.859 20.928-13.41-14.9-13.41-14.9M65.574 104.214c.655.384 1.32.744 1.972 1.075a30.045 30.045 0 004.444 1.866l5.017 10.472M54.143 87.957s4.7 9.072 6.828 12.565M27.623 42.772L23.5 45.133"/><path d="M106.996 48.513s-1.435 4.547-8.762 6.787" stroke="#ffefdd" stroke-linecap="round" stroke-linejoin="round" stroke-width="3" fill="none"/></svg>
