<svg xmlns="http://www.w3.org/2000/svg" viewBox="0 0 28.89 27.48"><defs><style>.cls-1{fill:#c1c3c9;}</style></defs><g id="Layer_2" data-name="Layer 2"><g id="Layer_3" data-name="Layer 3"><path class="cls-1" d="M24.84,27.35,8.4,27.46l.2,0H23.79A5,5,0,0,0,25,27.33Z"/><path class="cls-1" d="M27.84,0H8.6a1,1,0,0,0-1,1V18.81H1.05a1,1,0,0,0-.79.34A1,1,0,0,0,0,20c.88,5.87,5,7.4,5.16,7.46a1,1,0,0,0,.37.07h0l2.84,0h0l16.44-.11.18,0a.74.74,0,0,0,.19,0,4.89,4.89,0,0,0,3.68-4.66V1A1,1,0,0,0,27.84,0ZM7.55,25.47H5.77a6.86,6.86,0,0,1-3.44-4.67H7.55Zm2.1-4.66H20.27a8.52,8.52,0,0,0,1.41,4.56l-12,.08Zm17.14,1.81a2.85,2.85,0,0,1-1.94,2.67c-2.79-1-2.48-5.36-2.47-5.41a1,1,0,0,0-.28-.75,1,1,0,0,0-.77-.32H9.65V2H26.79Z"/><path class="cls-1" d="M17.7,6H11.4a.51.51,0,0,1-.52-.5A.51.51,0,0,1,11.4,5h6.3a.51.51,0,0,1,.52.5A.51.51,0,0,1,17.7,6Z"/><path class="cls-1" d="M25,12.24H16.65a.51.51,0,0,1-.53-.5.52.52,0,0,1,.53-.5H25a.51.51,0,0,1,.52.5A.51.51,0,0,1,25,12.24Z"/><path class="cls-1" d="M25,9.18H11.4a.51.51,0,0,1-.52-.5.51.51,0,0,1,.52-.5H25a.51.51,0,0,1,.52.5A.51.51,0,0,1,25,9.18Z"/><path class="cls-1" d="M25,15.45H11.4a.51.51,0,0,1-.52-.5.51.51,0,0,1,.52-.5H25a.51.51,0,0,1,.52.5A.51.51,0,0,1,25,15.45Z"/><path class="cls-1" d="M25,6h-4.2a.51.51,0,0,1-.52-.5.51.51,0,0,1,.52-.5H25a.51.51,0,0,1,.52.5A.51.51,0,0,1,25,6Z"/><path class="cls-1" d="M13.5,12.24H11.4a.51.51,0,0,1-.52-.5.51.51,0,0,1,.52-.5h2.1a.52.52,0,0,1,.53.5A.51.51,0,0,1,13.5,12.24Z"/></g></g></svg>