<svg xmlns="http://www.w3.org/2000/svg" viewBox="0 0 29 28.58"><defs><style>.cls-1{fill:#c1c3c9;}</style></defs><g id="Layer_2" data-name="Layer 2"><g id="Layer_3" data-name="Layer 3"><path class="cls-1" d="M26.22,15.94c-.07-.45-.14-.88-.22-1.3l2-.37c.08.44.16.9.23,1.37Z"/><path class="cls-1" d="M27,28.58H2A2,2,0,0,1,.56,28,2,2,0,0,1,0,26.51c.19-5.74.57-11.65,2-15.93A2,2,0,0,1,3.9,9.23H25.11A2,2,0,0,1,27,10.54c.18.51.35,1.06.5,1.63l-1.94.51a14.9,14.9,0,0,0-.45-1.47l-21.21,0c-1.36,4-1.72,10-1.9,15.34H27c-.1-3.62-.27-6.37-.52-8.68l2-.22c.27,2.39.44,5.12.54,8.84A2,2,0,0,1,28.43,28,2,2,0,0,1,27,28.58Z"/><polygon class="cls-1" points="12.85 9.53 11.35 9.53 11.35 6.08 17 6.08 17 1.5 14.28 1.5 14.28 0 18.5 0 18.5 7.58 12.85 7.58 12.85 9.53"/><polygon class="cls-1" points="9.77 9.36 8.27 9.34 8.29 7.58 2.21 7.58 2.21 0 12.26 0 12.26 1.5 3.71 1.5 3.71 6.08 9.8 6.08 9.77 9.36"/><rect class="cls-1" x="4.92" y="2.77" width="10.62" height="2"/><circle class="cls-1" cx="9.61" cy="15.32" r="1.36"/><circle class="cls-1" cx="14.8" cy="15.32" r="1.36"/><circle class="cls-1" cx="19.99" cy="15.32" r="1.36"/><circle class="cls-1" cx="22.88" cy="21.25" r="1.36"/><circle class="cls-1" cx="6.89" cy="21.25" r="1.36"/><circle class="cls-1" cx="12.22" cy="21.25" r="1.36"/><circle class="cls-1" cx="17.55" cy="21.25" r="1.36"/></g></g></svg>