<svg width="20" height="20" viewBox="0 0 20 20" fill="none" xmlns="http://www.w3.org/2000/svg">
<path d="M17 5.54H15.75V2C15.75 1.53587 15.5656 1.09075 15.2374 0.762563C14.9092 0.434375 14.4641 0.25 14 0.25H6C5.53587 0.25 5.09075 0.434375 4.76256 0.762563C4.43437 1.09075 4.25 1.53587 4.25 2V5.54H3C2.27065 5.54 1.57118 5.82973 1.05546 6.34546C0.539731 6.86118 0.25 7.56065 0.25 8.29V13.69C0.25 13.8889 0.329018 14.0797 0.46967 14.2203C0.610322 14.361 0.801088 14.44 1 14.44H4.25V18C4.25 18.4641 4.43437 18.9092 4.76256 19.2374C5.09075 19.5656 5.53587 19.75 6 19.75H14C14.4641 19.75 14.9092 19.5656 15.2374 19.2374C15.5656 18.9092 15.75 18.4641 15.75 18V14.44H19C19.1989 14.44 19.3897 14.361 19.5303 14.2203C19.671 14.0797 19.75 13.8889 19.75 13.69V8.29C19.75 7.56065 19.4603 6.86118 18.9445 6.34546C18.4288 5.82973 17.7293 5.54 17 5.54ZM5.75 2C5.75 1.9337 5.77634 1.87011 5.82322 1.82322C5.87011 1.77634 5.9337 1.75 6 1.75H14C14.0663 1.75 14.1299 1.77634 14.1768 1.82322C14.2237 1.87011 14.25 1.9337 14.25 2V5.54H5.75V2ZM14.25 18C14.25 18.0663 14.2237 18.1299 14.1768 18.1768C14.1299 18.2237 14.0663 18.25 14 18.25H6C5.9337 18.25 5.87011 18.2237 5.82322 18.1768C5.77634 18.1299 5.75 18.0663 5.75 18V10.22H14.25V18ZM18.25 12.94H15.75V9.47C15.75 9.27109 15.671 9.08032 15.5303 8.93967C15.3897 8.79902 15.1989 8.72 15 8.72H5C4.80109 8.72 4.61032 8.79902 4.46967 8.93967C4.32902 9.08032 4.25 9.27109 4.25 9.47V12.94H1.75V8.29C1.74464 8.12251 1.77301 7.95566 1.83342 7.79935C1.89383 7.64305 1.98506 7.50049 2.10167 7.38014C2.21828 7.2598 2.3579 7.16413 2.51222 7.09883C2.66655 7.03352 2.83243 6.99991 3 7H17C17.3315 7 17.6495 7.1317 17.8839 7.36612C18.1183 7.60054 18.25 7.91848 18.25 8.25V12.94Z" fill="#3B4780"/>
</svg>
