<svg xmlns="http://www.w3.org/2000/svg" viewBox="0 0 106 106"><defs><style>.cls-1{fill:#bac5f5;}.cls-2{fill:#fff;}</style></defs><g id="Layer_2" data-name="Layer 2"><g id="Layer_2-2" data-name="Layer 2"><circle class="cls-1" cx="53" cy="53" r="53"/><path class="cls-2" d="M46.53,67.14V65.37c0-5.64.45-9.2,1.33-10.67s3.22-3.61,7-6.4A15.63,15.63,0,0,0,59,44.23a8.67,8.67,0,0,0,1.16-4.67A6.91,6.91,0,0,0,58,34.14a7.64,7.64,0,0,0-5.31-2q-8.23,0-9.25,11.63L30.67,42q1.44-10.5,7.7-15.91a22.61,22.61,0,0,1,15.28-5.39A23.06,23.06,0,0,1,69.1,26a16.92,16.92,0,0,1,6.23,13.45Q75.33,49.52,65,56.3c-3,2-4.84,3.54-5.47,4.65s-1,3.18-1,6.19ZM60.86,85.33H46.25v-14H60.86Z"/></g></g></svg>