<svg width="60" height="60" viewBox="0 0 60 60" fill="none" xmlns="http://www.w3.org/2000/svg">
<path d="M30 0C24.0666 0 18.2664 1.75947 13.3329 5.05591C8.39943 8.35235 4.55426 13.0377 2.28363 18.5195C0.0129986 24.0013 -0.581102 30.0333 0.576455 35.8527C1.73401 41.6721 4.59124 47.0176 8.78681 51.2132C12.9824 55.4088 18.3279 58.266 24.1473 59.4236C29.9667 60.5811 35.9987 59.987 41.4805 57.7164C46.9623 55.4458 51.6477 51.6006 54.9441 46.6671C58.2405 41.7336 60 35.9334 60 30C60 22.0435 56.8393 14.4129 51.2132 8.7868C45.5871 3.16071 37.9565 0 30 0ZM29.53 47.5H29.37C28.8198 47.4934 28.2762 47.3786 27.7704 47.1619C27.2645 46.9453 26.8063 46.6311 26.4219 46.2374C25.6455 45.4423 25.2168 44.3713 25.23 43.26C25.2433 42.1487 25.6974 41.0883 26.4926 40.3119C27.2877 39.5355 28.3588 39.1067 29.47 39.12H29.61C30.7199 39.1306 31.7802 39.5817 32.5575 40.374C33.3349 41.1664 33.7656 42.2351 33.755 43.345C33.7444 44.4549 33.2933 45.5152 32.501 46.2925C31.7086 47.0699 30.6399 47.5006 29.53 47.49V47.5ZM39.81 27.09C38.7946 28.2478 37.6429 29.2786 36.38 30.16L34.62 31.37C33.833 31.8961 33.2203 32.6446 32.86 33.52C32.6453 34.0945 32.5533 34.7077 32.59 35.32V35.6H25.89V35.03C25.97 32.7 26.03 31.33 27 30.2C28.5121 28.6842 30.1892 27.3425 32 26.2C32.4635 25.869 32.869 25.4635 33.2 25C33.7909 24.3021 34.1415 23.4326 34.2 22.52C34.2045 21.4932 33.8823 20.4916 33.28 19.66C32.69 18.83 31.58 18.42 29.96 18.42C29.3138 18.353 28.6615 18.4617 28.0719 18.7345C27.4823 19.0073 26.9773 19.4341 26.61 19.97C25.9644 20.9612 25.6172 22.1171 25.61 23.3V23.59H18.71V23.29C18.9 19 20.41 16 23.2 14.2C25.1575 13.0186 27.4148 12.4283 29.7 12.5C32.6787 12.3908 35.6145 13.2351 38.08 14.91C39.2019 15.7358 40.0996 16.8287 40.6916 18.0896C41.2836 19.3505 41.5512 20.7394 41.47 22.13C41.4664 23.9191 40.8841 25.6591 39.81 27.09Z" fill="black"/>
</svg>
