<svg width="14" height="14" viewBox="0 0 14 14" fill="none" xmlns="http://www.w3.org/2000/svg">
<path d="M12.6255 4.86413H8.80667L9.57084 2.57297C9.7083 2.15924 9.63889 1.7006 9.38371 1.34675C9.12854 0.992908 8.71481 0.781281 8.27862 0.781281H7.1817C6.9796 0.781281 6.78838 0.871103 6.65841 1.02625L3.46018 4.86413H1.7379C0.987339 4.86413 0.376953 5.47451 0.376953 6.22508V12.3493C0.376953 13.0999 0.987339 13.7103 1.7379 13.7103H10.793C11.0699 13.7094 11.3399 13.6244 11.5675 13.4667C11.7951 13.309 11.9694 13.086 12.0675 12.827L13.9436 7.82487C13.9721 7.74847 13.9866 7.66757 13.9864 7.58603V6.22508C13.9864 5.47451 13.3761 4.86413 12.6255 4.86413ZM1.7379 6.22508H3.09885V12.3493H1.7379V6.22508ZM12.6255 7.46286L10.793 12.3493H4.4598V5.79093L7.50016 2.14223H8.27999L7.21708 5.32889C7.18258 5.43118 7.17295 5.54022 7.18901 5.64696C7.20506 5.75371 7.24633 5.8551 7.3094 5.94271C7.37246 6.03032 7.4555 6.10164 7.55164 6.15074C7.64777 6.19985 7.75422 6.22533 7.86217 6.22508H12.6255V7.46286Z" fill="#3B4780"/>
</svg>
