<svg xmlns="http://www.w3.org/2000/svg" viewBox="0 0 39.72 27.35"><defs><style>.cls-1{fill:#c1c3c9;}</style></defs><g id="Layer_2" data-name="Layer 2"><g id="Layer_3" data-name="Layer 3"><path class="cls-1" d="M39.6,13.3A23,23,0,0,0,12.17,3.49a.65.65,0,0,1-.8-.19c-.94-1-1.91-1.93-2.87-2.88A1.37,1.37,0,0,0,6.87.16a1.26,1.26,0,0,0-.64,1.46,2.14,2.14,0,0,0,.56.87Q18.9,14.63,31,26.74a3.68,3.68,0,0,0,.35.33A1.34,1.34,0,0,0,33.07,25l-2.46-2.45.48-.27a23.34,23.34,0,0,0,8.5-8.22A.63.63,0,0,0,39.6,13.3ZM27,19c-.6-.6-1.19-1.17-1.73-1.76-.08-.09,0-.35,0-.48a6.26,6.26,0,0,0-.09-6.23A2.2,2.2,0,0,1,21.41,9a2.11,2.11,0,0,1,.42-1.28,6.16,6.16,0,0,0-5,.46.48.48,0,0,1-.71-.1c-.5-.54-1-1-1.56-1.56a8.75,8.75,0,0,1,11.13.4A8.86,8.86,0,0,1,27,19Z"/><path class="cls-1" d="M23.92,22.08a.52.52,0,0,0-.68-.15,8.56,8.56,0,0,1-4.82.58,8.93,8.93,0,0,1-6.84-12.22.51.51,0,0,0-.13-.68c-1-1-1.95-1.94-2.91-2.91-.32-.33-.62-.67-.89-1l-.23.08A22.94,22.94,0,0,0,0,13.44a.68.68,0,0,0,0,.54,21.93,21.93,0,0,0,5.11,5.95,22.8,22.8,0,0,0,18.31,5c.86-.13,1.72-.36,2.69-.56C25.37,23.53,24.63,22.82,23.92,22.08Z"/><path class="cls-1" d="M13.84,12.11l7.57,7.56a6.14,6.14,0,0,1-7.57-7.56Z"/></g></g></svg>