<svg xmlns="http://www.w3.org/2000/svg" viewBox="0 0 42.51 27.35"><defs><style>.cls-1{fill:#c1c3c9;}</style></defs><g id="Layer_2" data-name="Layer 2"><g id="Layer_3" data-name="Layer 3"><path class="cls-1" d="M0,13.26a6.29,6.29,0,0,1,1.62-2.32A39.43,39.43,0,0,1,9.09,4.22,23.72,23.72,0,0,1,18.19.28,17.46,17.46,0,0,1,26.94,1a28.65,28.65,0,0,1,10.4,6.41c1.59,1.49,3,3.13,4.51,4.74a2.23,2.23,0,0,1,0,3.12,41,41,0,0,1-8.47,7.9,23.75,23.75,0,0,1-9.09,3.94,17.34,17.34,0,0,1-8.75-.66A28.43,28.43,0,0,1,5.2,20c-1.61-1.5-3.07-3.18-4.57-4.8A6,6,0,0,1,0,14.09ZM21.26,23.57a9.9,9.9,0,1,0-9.91-9.87A9.89,9.89,0,0,0,21.26,23.57Z"/><path class="cls-1" d="M28.08,13.69a6.83,6.83,0,1,1-12.91-3.11,2.26,2.26,0,0,0,1.64.71,2.22,2.22,0,0,0,1.56-3.81,6.55,6.55,0,0,1,2.9-.64A6.83,6.83,0,0,1,28.08,13.69Z"/></g></g></svg>