<svg xmlns="http://www.w3.org/2000/svg" viewBox="0 0 27.91 27.91"><defs><style>.cls-1{fill:#c1c3c9;}</style></defs><g id="Layer_2" data-name="Layer 2"><g id="Layer_3" data-name="Layer 3"><path class="cls-1" d="M14,27.91A14,14,0,1,1,27.91,14,14,14,0,0,1,14,27.91ZM14,2a12,12,0,1,0,12,12A12,12,0,0,0,14,2Z"/><path class="cls-1" d="M14,23.63A9.68,9.68,0,1,1,23.63,14,9.69,9.69,0,0,1,14,23.63ZM14,6.28A7.68,7.68,0,1,0,21.63,14,7.68,7.68,0,0,0,14,6.28Z"/><path class="cls-1" d="M11.09,18.94V9.7h6.22v1.57H12.89v2.38h3.67v1.46H12.89v3.83Z"/><path class="cls-1" d="M13.14,19.19h-2.3V9.45h6.72v2.07H13.14V13.4h3.67v2H13.14Zm-1.8-.5h1.3V14.86h3.67v-1H12.64V11h4.42V10H11.34Z"/></g></g></svg>