<svg width="20" height="20" viewBox="0 0 20 20" fill="none" xmlns="http://www.w3.org/2000/svg">
<path d="M19.3612 18.2168L14.6012 13.2662C15.8251 11.8113 16.4956 9.9807 16.4956 8.07499C16.4956 3.62251 12.8731 0 8.42069 0C3.96821 0 0.345703 3.62251 0.345703 8.07499C0.345703 12.5275 3.96821 16.15 8.42069 16.15C10.0922 16.15 11.6851 15.6458 13.0469 14.6888L17.8431 19.677C18.0436 19.8852 18.3132 20 18.6022 20C18.8757 20 19.1351 19.8957 19.3321 19.7061C19.7506 19.3034 19.7639 18.6357 19.3612 18.2168ZM8.42069 2.10652C11.7117 2.10652 14.3891 4.78391 14.3891 8.07499C14.3891 11.3661 11.7117 14.0435 8.42069 14.0435C5.12961 14.0435 2.45222 11.3661 2.45222 8.07499C2.45222 4.78391 5.12961 2.10652 8.42069 2.10652Z" fill="#3B4780"/>
</svg>
