<svg width="62" height="69" viewBox="0 0 62 69" fill="none" xmlns="http://www.w3.org/2000/svg">
<path d="M49.1 44.7998C45.4 44.7998 42.2 46.3998 40 48.9998L23 40.1998C23.8 38.5998 24.2 36.7998 24.2 34.8998C24.2 32.9998 23.7 31.1998 23 29.5998L40 20.7998C42.2 23.3998 45.5 24.9998 49.1 24.9998C55.7 24.9998 61.2 19.5998 61.2 12.8998C61.2 6.2998 55.8 0.799805 49.1 0.799805C42.4 0.799805 37 6.4998 37 13.0998C37 14.6998 37.3 16.0998 37.8 17.4998L20.5 26.3998C18.3 24.1998 15.3 22.8998 12 22.8998C5.5 22.8998 0 28.3998 0 34.9998C0 41.5998 5.4 47.0998 12.1 47.0998C15.4 47.0998 18.4 45.7998 20.6 43.5998L37.9 52.4998C37.4 53.8998 37.1 55.2998 37.1 56.8998C37.1 63.4998 42.5 68.9998 49.2 68.9998C55.9 68.9998 61.3 63.5998 61.3 56.8998C61.3 50.1998 55.7 44.7998 49.1 44.7998ZM49.1 5.0998C53.5 5.0998 57.2 8.69981 57.2 13.1998C57.2 17.5998 53.6 21.2998 49.1 21.2998C44.6 21.2998 41 17.5998 41 13.0998C41 8.6998 44.6 5.0998 49.1 5.0998ZM12.1 43.0998C7.7 43.0998 4 39.4998 4 34.9998C4 30.5998 7.6 26.8998 12.1 26.8998C16.5 26.8998 20.2 30.4998 20.2 34.9998C20.2 39.3998 16.5 43.0998 12.1 43.0998ZM49.1 64.8998C44.7 64.8998 41 61.2998 41 56.7998C41 52.2998 44.6 48.6998 49.1 48.6998C53.6 48.6998 57.2 52.2998 57.2 56.7998C57.2 61.2998 53.5 64.8998 49.1 64.8998Z" fill="black"/>
</svg>
