<svg width="586" height="620" viewBox="0 0 586 620" fill="none" xmlns="http://www.w3.org/2000/svg">
<path d="M291.272 0.781972C290.141 0.956 289.042 1.30017 288.014 1.8028L6.3625 139.27C6.2804 139.327 6.19903 139.384 6.11844 139.442C5.00411 140.018 3.99294 140.774 3.12608 141.681C3.07374 141.738 3.02198 141.795 2.97081 141.853C2.25279 142.636 1.64844 143.517 1.17548 144.469C1.1194 144.645 1.06763 144.822 1.02021 145.001C0.843351 145.448 0.695146 145.907 0.576493 146.373C0.3553 147.133 0.214128 147.913 0.155289 148.702C0.0940248 148.966 0.0422391 149.232 2.41684e-05 149.5V482.508C-0.00436726 484.637 0.589771 486.723 1.71461 488.53C2.83946 490.337 4.44968 491.791 6.36143 492.726L287.442 618.54C290.144 619.856 293.257 620.047 296.099 619.07C298.942 618.094 301.28 616.03 302.603 613.331C303.269 611.99 303.663 610.531 303.763 609.037C303.863 607.543 303.666 606.044 303.184 604.626C302.702 603.209 301.944 601.901 300.954 600.778C299.964 599.654 298.762 598.738 297.416 598.081L22.697 475.46V167.632L281.651 294.017V608.449C281.646 609.947 281.936 611.431 282.507 612.815C283.077 614.2 283.916 615.459 284.975 616.518C286.035 617.577 287.293 618.416 288.678 618.986C290.063 619.557 291.547 619.847 293.044 619.841C296.054 619.83 298.936 618.623 301.056 616.486C303.176 614.35 304.36 611.459 304.349 608.449V294.017L563.281 167.632V475.46L289.22 598.081C287.872 598.736 286.668 599.651 285.675 600.773C284.683 601.896 283.923 603.203 283.439 604.621C282.955 606.039 282.756 607.538 282.854 609.033C282.952 610.528 283.345 611.989 284.011 613.331C285.333 616.03 287.672 618.094 290.514 619.07C293.357 620.047 296.47 619.856 299.172 618.54L579.616 492.726C581.532 491.794 583.147 490.341 584.276 488.534C585.405 486.727 586.002 484.639 586 482.508V149.5C585.992 148.611 585.88 147.725 585.665 146.862C585.665 146.877 585.665 146.848 585.665 146.862C585.472 146.05 585.19 145.219 584.823 144.469C584.808 144.44 584.792 144.412 584.776 144.383C583.719 142.273 582.03 140.545 579.944 139.44C579.929 139.433 579.913 139.425 579.897 139.418C579.802 139.359 579.706 139.302 579.61 139.246L430.993 66.6997L428.5 65.5L425.363 63.9525L297.981 1.77964C295.899 0.761667 293.563 0.428591 291.272 0.781972ZM293.045 24.5875L399.526 76.5867L143.177 203.758L149.349 204.191L37.2162 149.465L293.045 24.5875ZM425.46 89.2429L548.786 149.465L293.045 274.321L169.652 214.099L425.46 89.2429Z" fill="black"/>
</svg>
