<?xml version="1.0" encoding="utf-8"?>
<!-- Generator: Adobe Illustrator 28.1.0, SVG Export Plug-In . SVG Version: 6.00 Build 0)  -->
<svg version="1.1" id="Layer_1" xmlns="http://www.w3.org/2000/svg" xmlns:xlink="http://www.w3.org/1999/xlink" x="0px" y="0px"
	 viewBox="0 0 376 321" style="enable-background:new 0 0 376 321;" xml:space="preserve">
<style type="text/css">
	.st0{fill:#FFFFFF;}
	.st1{opacity:0.3;fill-rule:evenodd;clip-rule:evenodd;fill:#EB2028;enable-background:new    ;}
	.st2{fill:#EB2028;}
	.st3{fill:url(#SVGID_1_);}
	.st4{fill:url(#SVGID_00000088128128342977986570000015310656735992613516_);}
	.st5{fill:#4D4D4D;}
	.st6{opacity:5.000000e-02;fill:#FFFFFF;enable-background:new    ;}
	.st7{fill:url(#SVGID_00000088822085805412392700000010863251501374076060_);}
	.st8{fill:none;filter:url(#Adobe_OpacityMaskFilter);}
	.st9{mask:url(#mask0_1362_258_00000029750546355564577010000002360109140550154882_);}
	.st10{fill:none;stroke:#FFFFFF;stroke-width:6;stroke-linecap:round;stroke-miterlimit:10;}
</style>
<path class="st0" d="M162,241.2v-18.8c0-4.2,3.3-7.5,7.5-7.5h36.7c4.2,0,7.5,3.3,7.5,7.5v18.9c0,4.2-3.3,7.5-7.5,7.5h-36.8
	C165.3,248.7,162,245.4,162,241.2z M169.4,217c-3,0-5.5,2.5-5.5,5.5v18.9c0,3,2.5,5.5,5.5,5.5H206c3,0,5.5-2.5,5.5-5.5v-18.9
	c0-3-2.5-5.5-5.5-5.5H169.4z"/>
<path class="st1" d="M200.9,0c-17.1,0-31.7,9.5-31.7,18.3c0,8.7,14.5,13.4,31.7,13.4c17.1,0,31.7-4.6,31.7-13.4
	C232.6,9.5,218,0,200.9,0z M311.7,44.1c-50.7-18.7-70.5-1.1-111.8,0c-9.3,0.3-18.6-0.6-28.1-1.6l-5.5-0.6
	c-26.9-3.2-54.9-6.8-86.2,8.2c-63,30.4-87.5,123.4-50.7,186.5c29.9,51.2,81.6,66.2,139.5,56.2c33.6-5.8,39.8-24.9,80.8-42.9
	c41-18,85.5-3.8,113.4-57.1C387.3,146.8,377.8,68.5,311.7,44.1z M293.1,266.8c-3.9-9.3-22.9-9.9-38.7-3.4
	c-15.8,6.5-23.7,17.3-22.5,25.8c1.4,9.9,20.3,13.4,36.5,7.8C288.3,290.1,297,276.1,293.1,266.8L293.1,266.8z"/>
<path class="st2" d="M4.4,147.6c0.2,0.4,0.2,0.9,0.1,1.3c-0.1,0.4-0.3,0.8-0.6,1.2c-0.3,0.3-0.7,0.5-1.2,0.6
	c-0.4,0.1-0.9,0.1-1.3-0.1c-0.4-0.2-0.8-0.5-1-0.8c-0.3-0.4-0.4-0.8-0.4-1.3c0-0.4,0.1-0.9,0.4-1.3c0.2-0.4,0.6-0.7,1-0.8
	c0.6-0.2,1.2-0.2,1.7,0C3.7,146.6,4.1,147,4.4,147.6z"/>
<path class="st2" d="M48.3,42.8l-1.9,0.8l-0.3,0.7l0.8,1.9c0.1,0.1,0.1,0.3,0.1,0.5c0,0.2,0,0.3-0.1,0.5c-0.1,0.2-0.1,0.3-0.3,0.4
	c-0.1,0.1-0.3,0.2-0.4,0.3C46.2,48,46,48,45.9,48c-0.2,0-0.3,0-0.5-0.1c-0.1-0.1-0.3-0.2-0.4-0.3c-0.1-0.1-0.2-0.3-0.2-0.4L44,45.2
	l-0.7-0.3l-1.9,0.8c-0.1,0.1-0.3,0.1-0.5,0.1c-0.2,0-0.3,0-0.5-0.1c-0.2-0.1-0.3-0.1-0.4-0.3c-0.1-0.1-0.2-0.3-0.3-0.4
	c-0.1-0.2-0.1-0.3-0.1-0.5c0-0.2,0-0.3,0.1-0.5c0.1-0.1,0.2-0.3,0.3-0.4c0.1-0.1,0.3-0.2,0.4-0.2l1.9-0.9l0.3-0.7l-0.8-1.9
	c-0.1-0.1-0.1-0.3-0.1-0.5c0-0.2,0-0.3,0.1-0.5c0.1-0.2,0.1-0.3,0.3-0.4c0.1-0.1,0.3-0.2,0.4-0.3c0.2-0.1,0.3-0.1,0.5-0.1
	s0.3,0,0.5,0.1c0.1,0.1,0.3,0.2,0.4,0.3c0.1,0.1,0.2,0.3,0.2,0.4l0.9,2l0.8,0.3l1.9-0.8c0.3-0.1,0.6,0,0.8,0.1
	c0.3,0.1,0.5,0.3,0.6,0.6c0.1,0.3,0.1,0.6,0,0.8C48.8,42.4,48.6,42.6,48.3,42.8z"/>
<path class="st2" d="M9.1,159.7c0.1,0.6,0.4,1.1,0.8,1.6c0.4,0.4,1,0.7,1.6,0.8c0.6,0.1,1.2,0.1,1.8-0.2c0.6-0.2,1-0.6,1.4-1.1
	c0.3-0.5,0.5-1.1,0.5-1.7c0-0.6-0.2-1.2-0.5-1.7c-0.3-0.5-0.8-0.9-1.4-1.1c-0.6-0.2-1.2-0.3-1.8-0.2c-0.4,0.1-0.8,0.2-1.1,0.5
	c-0.3,0.2-0.6,0.5-0.8,0.8c-0.2,0.3-0.4,0.7-0.4,1.1C9,158.9,9,159.3,9.1,159.7z M10.3,159.5c-0.1-0.3,0-0.7,0.1-1
	c0.1-0.3,0.4-0.6,0.6-0.8c0.3-0.2,0.6-0.3,1-0.3c0.3,0,0.7,0.1,1,0.3c0.3,0.2,0.5,0.5,0.6,0.8c0.1,0.3,0.2,0.7,0.1,1
	c-0.1,0.3-0.2,0.7-0.5,0.9c-0.2,0.2-0.5,0.4-0.9,0.5c-0.2,0.1-0.5,0.1-0.7,0c-0.2,0-0.5-0.1-0.7-0.3c-0.2-0.1-0.4-0.3-0.5-0.5
	C10.5,159.9,10.4,159.7,10.3,159.5z"/>
<path class="st2" d="M230.1,317.8c0.2,0.4,0.2,0.9,0.1,1.3c-0.1,0.4-0.3,0.8-0.6,1.2c-0.3,0.3-0.7,0.5-1.2,0.6
	c-0.4,0.1-0.9,0.1-1.3-0.1c-0.4-0.2-0.8-0.5-1-0.8c-0.3-0.4-0.4-0.8-0.4-1.3c0-0.4,0.1-0.9,0.4-1.3s0.6-0.7,1-0.8
	c0.3-0.1,0.6-0.2,0.9-0.2c0.3,0,0.6,0.1,0.9,0.2c0.3,0.1,0.5,0.3,0.7,0.5C229.8,317.3,230,317.6,230.1,317.8z"/>
<path class="st2" d="M190.4,312c0.1,0.6,0.4,1.1,0.8,1.6s1,0.7,1.6,0.8c0.6,0.1,1.2,0,1.8-0.2c0.6-0.2,1-0.6,1.4-1.1
	c0.3-0.5,0.5-1.1,0.5-1.7c0-0.6-0.2-1.2-0.5-1.7c-0.3-0.5-0.8-0.9-1.4-1.1c-0.6-0.2-1.2-0.3-1.8-0.2c-0.4,0.1-0.8,0.2-1.1,0.5
	c-0.3,0.2-0.6,0.5-0.8,0.8c-0.2,0.3-0.4,0.7-0.4,1.1C190.3,311.2,190.3,311.6,190.4,312z M191.6,311.8c-0.1-0.3,0-0.7,0.1-1
	c0.1-0.3,0.4-0.6,0.6-0.8s0.6-0.3,1-0.3c0.3,0,0.7,0.1,1,0.3c0.3,0.2,0.5,0.5,0.7,0.8c0.1,0.3,0.2,0.7,0.1,1
	c-0.1,0.3-0.2,0.7-0.5,0.9s-0.5,0.4-0.9,0.5c-0.2,0.1-0.5,0.1-0.7,0c-0.2,0-0.5-0.1-0.7-0.3c-0.2-0.1-0.4-0.3-0.5-0.5
	C191.8,312.2,191.7,312,191.6,311.8z"/>
<path class="st2" d="M24.5,41.5h3.1v3.1c0,0.3,0.1,0.6,0.4,0.9c0.2,0.2,0.5,0.4,0.9,0.4c0.3,0,0.6-0.1,0.9-0.4
	c0.2-0.2,0.4-0.5,0.4-0.9v-3.1H33c0.3,0,0.6-0.2,0.8-0.4c0.2-0.2,0.3-0.5,0.3-0.8s-0.1-0.6-0.3-0.8c-0.2-0.2-0.5-0.4-0.8-0.4h-3.1
	V36c0-0.3-0.1-0.6-0.4-0.9c-0.2-0.2-0.5-0.4-0.9-0.4c-0.3,0-0.6,0.1-0.9,0.4c-0.2,0.2-0.4,0.5-0.4,0.9v3.1h-3.1
	c-0.2,0-0.3,0-0.5,0.1c-0.2,0.1-0.3,0.1-0.4,0.3c-0.1,0.1-0.2,0.3-0.3,0.4c-0.1,0.2-0.1,0.3-0.1,0.5c0,0.2,0,0.3,0.1,0.5
	c0.1,0.2,0.2,0.3,0.3,0.4c0.1,0.1,0.3,0.2,0.4,0.3C24.1,41.5,24.3,41.5,24.5,41.5z"/>
<path class="st2" d="M229.5,34.8h3.1v3.1c0,0.3,0.1,0.6,0.4,0.9c0.2,0.2,0.5,0.4,0.9,0.4c0.3,0,0.6-0.1,0.9-0.4
	c0.2-0.2,0.4-0.5,0.4-0.9v-3.1h3.1c0.3,0,0.6-0.1,0.8-0.4c0.2-0.2,0.3-0.5,0.3-0.8c0-0.2,0-0.3-0.1-0.5c-0.1-0.1-0.1-0.3-0.3-0.4
	c-0.1-0.1-0.2-0.2-0.4-0.3c-0.1-0.1-0.3-0.1-0.5-0.1h-3.1v-3.1c0-0.3-0.1-0.6-0.4-0.9s-0.5-0.4-0.9-0.4c-0.3,0-0.6,0.1-0.9,0.4
	s-0.4,0.5-0.4,0.9v3.1h-3.1c-0.3,0-0.6,0.1-0.9,0.4c-0.2,0.2-0.4,0.5-0.4,0.9c0,0.2,0,0.3,0.1,0.5c0.1,0.1,0.2,0.3,0.3,0.4
	c0.1,0.1,0.2,0.2,0.4,0.3C229.2,34.7,229.3,34.8,229.5,34.8z"/>
<path class="st2" d="M30.1,209.8c0-1.1-0.3-2.1-0.9-3c-0.6-0.9-1.4-1.6-2.4-2c-1-0.4-2.1-0.5-3.1-0.3c-1,0.2-2,0.7-2.8,1.5
	s-1.3,1.7-1.5,2.8c-0.2,1-0.1,2.1,0.3,3.1c0.4,1,1.1,1.8,2,2.4c0.9,0.6,1.9,0.9,3,0.9c1.4,0,2.8-0.6,3.8-1.6
	C29.6,212.6,30.1,211.2,30.1,209.8z M28.1,209.8c0,0.7-0.2,1.3-0.6,1.8c-0.4,0.5-0.9,1-1.5,1.2c-0.6,0.3-1.3,0.3-1.9,0.2
	c-0.6-0.1-1.2-0.4-1.7-0.9c-0.5-0.5-0.8-1.1-0.9-1.7c-0.1-0.6-0.1-1.3,0.2-1.9c0.3-0.6,0.7-1.1,1.2-1.5c0.5-0.4,1.2-0.6,1.8-0.6
	c0.4,0,0.9,0.1,1.3,0.2c0.4,0.2,0.8,0.4,1.1,0.7c0.3,0.3,0.6,0.7,0.7,1.1C28,208.9,28.1,209.4,28.1,209.8L28.1,209.8z"/>
<path class="st2" d="M218.6,296.5c0-1.1-0.3-2.1-0.9-3c-0.6-0.9-1.4-1.6-2.4-2c-1-0.4-2.1-0.5-3.1-0.3c-1,0.2-2,0.7-2.8,1.5
	c-0.8,0.8-1.3,1.7-1.5,2.8c-0.2,1-0.1,2.1,0.3,3.1c0.4,1,1.1,1.8,2,2.4c0.9,0.6,1.9,0.9,3,0.9c1.4,0,2.8-0.6,3.8-1.6
	C218,299.3,218.6,297.9,218.6,296.5z M216.5,296.5c0,0.7-0.2,1.3-0.6,1.8c-0.4,0.5-0.9,1-1.5,1.2c-0.6,0.3-1.3,0.3-1.9,0.2
	c-0.6-0.1-1.2-0.4-1.7-0.9s-0.8-1.1-0.9-1.7c-0.1-0.6-0.1-1.3,0.2-1.9c0.3-0.6,0.7-1.1,1.2-1.5c0.5-0.4,1.2-0.6,1.8-0.6
	c0.9,0,1.7,0.4,2.3,1C216.1,294.7,216.5,295.6,216.5,296.5z"/>
<path class="st2" d="M270.1,5.4c0-1.1-0.3-2.1-0.9-3c-0.6-0.9-1.4-1.6-2.4-2c-1-0.4-2.1-0.5-3.1-0.3c-1,0.2-2,0.7-2.8,1.5
	c-0.8,0.8-1.3,1.7-1.5,2.8c-0.2,1-0.1,2.1,0.3,3.1c0.4,1,1.1,1.8,2,2.4c0.9,0.6,1.9,0.9,3,0.9c1.4,0,2.8-0.6,3.8-1.6
	C269.5,8.2,270.1,6.8,270.1,5.4z M268,5.4c0,0.7-0.2,1.3-0.6,1.8c-0.4,0.5-0.9,1-1.5,1.2c-0.6,0.3-1.3,0.3-1.9,0.2
	c-0.6-0.1-1.2-0.4-1.7-0.9c-0.5-0.5-0.8-1.1-0.9-1.7c-0.1-0.6-0.1-1.3,0.2-1.9c0.3-0.6,0.7-1.1,1.2-1.5c0.5-0.4,1.2-0.6,1.8-0.6
	c0.9,0,1.7,0.4,2.3,1S268,4.5,268,5.4z"/>
<path class="st2" d="M373.1,74.1c0.3,0,0.7-0.2,0.9-0.4c0.2-0.3,0.4-0.6,0.4-0.9c0-0.3-0.1-0.7-0.4-0.9c-0.2-0.3-0.6-0.4-0.9-0.4
	h-13.6c-0.2,0-0.4,0-0.6,0.1c-0.2,0.1-0.3,0.2-0.5,0.3c-0.1,0.1-0.2,0.3-0.3,0.5c-0.1,0.2-0.1,0.4-0.1,0.5c0,0.2,0,0.4,0.1,0.5
	c0.1,0.2,0.2,0.3,0.3,0.5c0.1,0.1,0.3,0.2,0.5,0.3c0.2,0.1,0.4,0.1,0.6,0.1H373.1z"/>
<path class="st2" d="M353.7,74.1c0.2,0,0.4,0,0.6-0.1c0.2-0.1,0.3-0.2,0.5-0.3c0.1-0.1,0.2-0.3,0.3-0.5c0.1-0.2,0.1-0.4,0.1-0.5
	c0-0.2,0-0.4-0.1-0.5c-0.1-0.2-0.2-0.3-0.3-0.5c-0.1-0.1-0.3-0.2-0.5-0.3c-0.2-0.1-0.4-0.1-0.6-0.1h-2.5c-0.2,0-0.4,0-0.6,0.1
	c-0.2,0.1-0.3,0.2-0.5,0.3c-0.1,0.1-0.2,0.3-0.3,0.5c-0.1,0.2-0.1,0.4-0.1,0.5c0,0.2,0,0.4,0.1,0.5c0.1,0.2,0.2,0.3,0.3,0.5
	c0.1,0.1,0.3,0.2,0.5,0.3c0.2,0.1,0.4,0.1,0.6,0.1H353.7z"/>
<path class="st2" d="M89.8,292.6c0.3,0,0.7-0.2,0.9-0.4c0.2-0.3,0.4-0.6,0.4-0.9c0-0.3-0.1-0.7-0.4-0.9c-0.2-0.3-0.6-0.4-0.9-0.4
	H76.2c-0.2,0-0.4,0-0.6,0.1c-0.2,0.1-0.3,0.2-0.5,0.3c-0.1,0.1-0.2,0.3-0.3,0.5c-0.1,0.2-0.1,0.4-0.1,0.5c0,0.2,0,0.4,0.1,0.5
	c0.1,0.2,0.2,0.3,0.3,0.5c0.1,0.1,0.3,0.2,0.5,0.3c0.2,0.1,0.4,0.1,0.6,0.1H89.8z"/>
<path class="st2" d="M65.4,292.6c0.2,0,0.4,0,0.6-0.1c0.2-0.1,0.3-0.2,0.5-0.3c0.1-0.1,0.2-0.3,0.3-0.5c0.1-0.2,0.1-0.4,0.1-0.5
	c0-0.2,0-0.4-0.1-0.5c-0.1-0.2-0.2-0.3-0.3-0.5c-0.1-0.1-0.3-0.2-0.5-0.3c-0.2-0.1-0.4-0.1-0.6-0.1h-2.5c-0.3,0-0.7,0.2-0.9,0.4
	c-0.2,0.3-0.4,0.6-0.4,0.9c0,0.3,0.1,0.7,0.4,0.9c0.2,0.3,0.6,0.4,0.9,0.4H65.4z"/>
<g>
	
		<linearGradient id="SVGID_1_" gradientUnits="userSpaceOnUse" x1="146.6699" y1="247.3483" x2="213.6541" y2="86.3412" gradientTransform="matrix(1 0 0 -1 0 322)">
		<stop  offset="0" style="stop-color:#EB2028"/>
		<stop  offset="0.4855" style="stop-color:#BD2228"/>
		<stop  offset="0.7222" style="stop-color:#9D1D22"/>
		<stop  offset="1" style="stop-color:#97080D"/>
	</linearGradient>
	<path class="st3" d="M295.2,73.4L64.1,73.5c-7.5,0-13.6,6.1-13.6,13.7l0.2,134c0,7.6,6.1,13.7,13.6,13.7l231.1-0.1
		c7.5,0,13.6-6.1,13.6-13.7l-0.2-134C308.8,79.5,302.7,73.4,295.2,73.4z"/>
</g>
<path class="st0" d="M80,209.9c0.4,0,0.8,0.1,1,0.2l0.2-0.5c-0.2-0.1-0.6-0.2-1.2-0.2c-1.6,0-2.7,1.1-2.7,2.7c0,1.7,1.1,2.6,2.5,2.6
	c0.6,0,1.1-0.1,1.3-0.2l-0.1-0.5c-0.3,0.1-0.7,0.2-1.1,0.2c-1.2,0-2-0.8-1.9-2.1C78,210.7,78.8,209.9,80,209.9z"/>
<path class="st0" d="M83.4,209.4l-1.7,5.1l0.7,0l0.5-1.6h1.8l0.6,1.6l0.7,0l-1.7-5.1L83.4,209.4z M83,212.4l0.5-1.5
	c0.1-0.3,0.2-0.6,0.3-0.9l0,0c0.1,0.3,0.1,0.6,0.3,0.9l0.5,1.5L83,212.4z"/>
<path class="st0" d="M88.9,212.1L88.9,212.1c0.5-0.2,1-0.6,1-1.3c0-0.4-0.2-0.7-0.4-1c-0.3-0.3-0.8-0.4-1.5-0.4
	c-0.5,0-0.9,0.1-1.3,0.1l0,5.1l0.7,0l0-2.2l0.6,0c0.6,0,0.9,0.3,1,1c0.1,0.6,0.3,1.1,0.3,1.2l0.7,0c-0.1-0.2-0.2-0.7-0.4-1.4
	C89.5,212.6,89.3,212.2,88.9,212.1z M88,211.8l-0.7,0l0-1.9c0.1,0,0.3-0.1,0.7-0.1c0.7,0,1.2,0.3,1.2,1
	C89.2,211.4,88.7,211.8,88,211.8z"/>
<path class="st0" d="M92.2,209.4c-0.5,0-1,0-1.4,0.1l0,5c0.3,0,0.7,0.1,1.2,0c1,0,1.8-0.3,2.2-0.7c0.5-0.5,0.7-1.1,0.7-2
	c0-0.8-0.3-1.4-0.7-1.8C93.8,209.6,93.1,209.4,92.2,209.4z M92.1,214c-0.3,0-0.5,0-0.7,0l0-4.1c0.2,0,0.4-0.1,0.8-0.1
	c1.4,0,2.1,0.8,2.1,2C94.3,213.2,93.5,214,92.1,214z"/>
<path class="st0" d="M100.5,211.5l-2.5,0l0-2.1l-0.7,0l0,5.1l0.7,0l0-2.4l2.5,0l0,2.4l0.7,0l0-5.1l-0.7,0L100.5,211.5z"/>
<path class="st0" d="M104.4,209.3c-1.4,0-2.4,1.1-2.4,2.7c0,1.5,0.9,2.6,2.3,2.6c1.3,0,2.4-0.9,2.4-2.7
	C106.7,210.4,105.8,209.3,104.4,209.3z M104.4,214.1c-1,0-1.6-1-1.6-2.1c0-1.1,0.5-2.1,1.6-2.1c1.1,0,1.6,1.1,1.6,2.1
	C106,213.1,105.4,214.1,104.4,214.1z"/>
<path class="st0" d="M108.2,209.4l-0.7,0l0,5.1l2.8,0l0-0.6l-2.2,0L108.2,209.4z"/>
<path class="st0" d="M112.5,209.3c-0.5,0-1,0-1.4,0.1l0,5c0.3,0,0.7,0.1,1.2,0c1,0,1.8-0.3,2.2-0.7c0.5-0.5,0.7-1.1,0.7-2
	c0-0.8-0.3-1.4-0.7-1.8C114.1,209.6,113.5,209.3,112.5,209.3z M112.5,214c-0.3,0-0.5,0-0.7,0l0-4.1c0.2,0,0.4-0.1,0.8-0.1
	c1.4,0,2.1,0.8,2.1,2C114.6,213.2,113.9,214,112.5,214z"/>
<path class="st0" d="M116.8,212.1l2,0l0-0.5l-2,0l0-1.6l2.1,0l0-0.6l-2.8,0l0,5.1l2.9,0l0-0.5l-2.2,0L116.8,212.1z"/>
<path class="st0" d="M122.1,212.1L122.1,212.1c0.5-0.2,1-0.6,1-1.3c0-0.4-0.2-0.7-0.4-1c-0.3-0.3-0.8-0.4-1.5-0.4
	c-0.5,0-0.9,0-1.3,0.1l0,5.1l0.7,0l0-2.2l0.6,0c0.6,0,0.9,0.3,1,1c0.1,0.6,0.3,1.1,0.3,1.2l0.7,0c-0.1-0.2-0.2-0.7-0.4-1.4
	C122.7,212.6,122.4,212.2,122.1,212.1z M121.2,211.8l-0.7,0l0-1.9c0.1,0,0.3-0.1,0.7-0.1c0.7,0,1.2,0.3,1.2,0.9
	C122.4,211.4,121.9,211.8,121.2,211.8z"/>
<path class="st0" d="M77.3,182.8l0.1,0.5l0.8-0.4l0,0l0,3.9l0.6,0l0-4.5l-0.5,0L77.3,182.8z"/>
<path class="st0" d="M81.3,186.2l0.4-0.3c0.9-0.9,1.5-1.6,1.5-2.4c0-0.6-0.4-1.3-1.4-1.3c-0.5,0-1,0.2-1.2,0.5l0.2,0.4
	c0.2-0.2,0.5-0.4,0.9-0.4c0.7,0,0.9,0.4,0.9,0.9c0,0.7-0.5,1.2-1.6,2.3l-0.5,0.5l0,0.4l2.8,0l0-0.5L81.3,186.2z"/>
<path class="st0" d="M85.7,184.3c0.5-0.2,0.8-0.6,0.8-1.1c0-0.5-0.4-1.1-1.3-1.1c-0.5,0-0.9,0.2-1.2,0.4l0.2,0.4
	c0.2-0.1,0.5-0.3,0.9-0.3c0.5,0,0.8,0.3,0.8,0.7c0,0.5-0.6,0.8-1,0.7l-0.3,0l0,0.4l0.3,0c0.6,0,1.1,0.3,1.1,0.9c0,0.4-0.2,0.9-1,0.9
	c-0.4,0-0.8-0.2-1-0.3l-0.2,0.5c0.2,0.1,0.6,0.3,1.1,0.3c1.1,0,1.6-0.6,1.6-1.3C86.7,184.8,86.2,184.4,85.7,184.3z"/>
<path class="st0" d="M89.8,182.3l-0.6,0l-2,2.8l0,0.4l2.1,0l0,1.2l0.6,0l0-1.2l0.6,0l0-0.5l-0.6,0L89.8,182.3z M89.3,183.5l0,1.5
	l-1.5,0l0,0l1.1-1.5c0.1-0.2,0.2-0.4,0.4-0.7h0C89.3,183.1,89.3,183.3,89.3,183.5z"/>
<path class="st0" d="M85.9,163.3l-1.7,0l-2.2,3.5l-0.1,0l-2.2-3.5l-1.8,0l3.3,4.7l-3.2,4.7l1.7,0l2.2-3.6l0.1,0l2.2,3.6l1.8,0
	l-3.3-4.8L85.9,163.3z"/>
<path class="st0" d="M95.3,163.3l-1.7,0l-2.2,3.5l-0.1,0l-2.2-3.5l-1.8,0l3.3,4.7l-3.2,4.7l1.7,0l2.2-3.6l0.1,0l2.2,3.6l1.8,0
	l-3.3-4.8L95.3,163.3z"/>
<path class="st0" d="M104.7,163.3l-1.7,0l-2.2,3.5l-0.1,0l-2.2-3.5l-1.8,0l3.3,4.7l-3.2,4.7l1.7,0l2.2-3.6l0.1,0l2.2,3.6l1.8,0
	l-3.2-4.8L104.7,163.3z"/>
<path class="st0" d="M114.1,163.3l-1.7,0l-2.2,3.5l-0.1,0l-2.2-3.5l-1.8,0l3.3,4.7l-3.2,4.7l1.7,0l2.2-3.6l0.1,0l2.2,3.6l1.8,0
	l-3.2-4.8L114.1,163.3z"/>
<path class="st0" d="M141.5,163.3l-1.7,0l-2.2,3.5l-0.1,0l-2.2-3.5l-1.8,0l3.3,4.7l-3.2,4.7l1.7,0l2.2-3.6l0.1,0l2.2,3.6l1.8,0
	l-3.2-4.8L141.5,163.3z"/>
<path class="st0" d="M150.9,163.3l-1.7,0l-2.2,3.5l-0.1,0l-2.2-3.5l-1.8,0l3.3,4.7l-3.2,4.7l1.7,0l2.2-3.6l0.1,0l2.2,3.6l1.8,0
	l-3.2-4.8L150.9,163.3z"/>
<path class="st0" d="M160.3,163.3l-1.7,0l-2.2,3.5l-0.1,0l-2.2-3.5l-1.8,0l3.3,4.7l-3.2,4.7l1.7,0l2.2-3.6l0.1,0l2.2,3.6l1.8,0
	l-3.2-4.8L160.3,163.3z"/>
<path class="st0" d="M169.7,163.3l-1.7,0l-2.2,3.5l-0.1,0l-2.3-3.5l-1.8,0l3.3,4.7l-3.2,4.7l1.7,0l2.2-3.6l0.1,0l2.2,3.6l1.8,0
	l-3.2-4.8L169.7,163.3z"/>
<path class="st0" d="M197.8,163.3l-1.7,0l-2.2,3.5l-0.1,0l-2.2-3.5l-1.8,0l3.3,4.7l-3.2,4.7l1.7,0l2.2-3.6l0.1,0l2.2,3.6l1.8,0
	l-3.2-4.8L197.8,163.3z"/>
<path class="st0" d="M207.2,163.2l-1.7,0l-2.2,3.5l-0.1,0l-2.2-3.5l-1.8,0l3.3,4.7l-3.2,4.7l1.7,0l2.2-3.6l0.1,0l2.2,3.6l1.8,0
	l-3.2-4.8L207.2,163.2z"/>
<path class="st0" d="M216.6,163.2l-1.7,0l-2.2,3.5l-0.1,0l-2.2-3.5l-1.8,0l3.2,4.7l-3.2,4.7l1.7,0l2.2-3.6l0.1,0l2.2,3.6l1.8,0
	l-3.2-4.8L216.6,163.2z"/>
<path class="st0" d="M226,163.2l-1.7,0l-2.2,3.5l-0.1,0l-2.2-3.5l-1.8,0l3.3,4.7l-3.2,4.7l1.7,0l2.2-3.6l0.1,0l2.2,3.6l1.8,0
	l-3.2-4.8L226,163.2z"/>
<path class="st0" d="M254.2,163.2l-1.7,0l-2.2,3.5l-0.1,0l-2.2-3.5l-1.8,0l3.3,4.7l-3.2,4.7l1.7,0l2.2-3.6l0.1,0l2.2,3.6l1.8,0
	l-3.2-4.8L254.2,163.2z"/>
<path class="st0" d="M263.5,163.2l-1.7,0l-2.2,3.5l-0.1,0l-2.3-3.5l-1.8,0l3.2,4.7l-3.2,4.7l1.7,0l2.2-3.6l0.1,0l2.2,3.6l1.8,0
	l-3.2-4.8L263.5,163.2z"/>
<path class="st0" d="M272.9,163.2l-1.7,0l-2.2,3.5l-0.1,0l-2.2-3.5l-1.8,0l3.3,4.7l-3.2,4.7l1.7,0l2.2-3.6l0.1,0l2.2,3.6l1.8,0
	l-3.2-4.8L272.9,163.2z"/>
<path class="st0" d="M282.3,163.2l-1.7,0l-2.2,3.5l-0.1,0l-2.2-3.5l-1.8,0l3.3,4.7l-3.2,4.7l1.7,0l2.2-3.6l0.1,0l2.2,3.6l1.8,0
	l-3.2-4.8L282.3,163.2z"/>
<linearGradient id="SVGID_00000047023564207693292120000003936663918310894748_" gradientUnits="userSpaceOnUse" x1="78.9767" y1="204.035" x2="114.7156" y2="162.509" gradientTransform="matrix(1 0 0 -1 0 322)">
	<stop  offset="0" style="stop-color:#FFD03F"/>
	<stop  offset="0.1968" style="stop-color:#FDCA3A"/>
	<stop  offset="0.4642" style="stop-color:#F6B82B"/>
	<stop  offset="0.7709" style="stop-color:#EB9C12"/>
	<stop  offset="0.8989" style="stop-color:#E58E06"/>
	<stop  offset="1" style="stop-color:#DF8800"/>
</linearGradient>
<path style="fill:url(#SVGID_00000047023564207693292120000003936663918310894748_);" d="M109.9,153.7l-28.7,0
	c-1.9,0-3.4-1.5-3.4-3.4l0-26.1c0-1.9,1.5-3.4,3.4-3.4l28.7,0c1.9,0,3.4,1.5,3.4,3.4l0,26.1C113.4,152.2,111.8,153.7,109.9,153.7z"
	/>
<path class="st5" d="M110.1,153.9l-28.7,0c-2,0-3.6-1.6-3.6-3.6l0-26.1c0-2,1.6-3.6,3.6-3.6l28.7,0c2,0,3.6,1.6,3.6,3.6l0,26.1
	C113.7,152.3,112.1,153.9,110.1,153.9z M81.4,121c-1.8,0-3.2,1.5-3.2,3.2l0,26.1c0,1.8,1.4,3.2,3.2,3.2l28.7,0
	c1.8,0,3.2-1.5,3.2-3.2l0-26.1c0-1.8-1.4-3.2-3.2-3.2L81.4,121z"/>
<path class="st5" d="M78,142.8l0,0.3l14.5,0l0-0.3L78,142.8z"/>
<path class="st5" d="M99.1,131.4l0,0.3l14.5,0v-0.3L99.1,131.4z"/>
<path class="st5" d="M92.6,143.1l-14.8,0l0-11.7l14.8,0L92.6,143.1z M78.1,142.8l14.1,0l0-11l-14.1,0L78.1,142.8z"/>
<path class="st5" d="M113.7,143.1l-14.8,0l0-11.7l14.8,0L113.7,143.1z M99.2,142.8l14.1,0l0-11l-14.1,0L99.2,142.8z"/>
<path class="st5" d="M95.9,131.7l-18,0l0-0.3l17.6,0l0-4l0.3,0L95.9,131.7z"/>
<path class="st5" d="M95.7,127.7l-5.6-7h11.2L95.7,127.7z M90.8,120.9l4.9,6.2l4.9-6.2L90.8,120.9z"/>
<path class="st5" d="M95.9,147.1l-0.3,0l0-4.3l17.9,0l0,0.3l-17.6,0L95.9,147.1z"/>
<path class="st5" d="M101.3,153.9H90.2l5.6-7L101.3,153.9z M90.9,153.5l9.8,0l-4.9-6.2L90.9,153.5z"/>
<path class="st5" d="M92.4,137.1l0,0.3l6.6,0l0-0.3L92.4,137.1z"/>
<path class="st6" d="M255.4,70.3L84.9,234.8h28.5h28.9L315,78.3l0-17.9L255.4,70.3z"/>
<path class="st6" d="M309,127.4L190.9,234.8h46.2l71.9-69.1V127.4z"/>
<g>
	
		<linearGradient id="SVGID_00000175282415205620706190000010929363249401484214_" gradientUnits="userSpaceOnUse" x1="272.1862" y1="289.1549" x2="272.1862" y2="166.4545" gradientTransform="matrix(1 0 0 -1 0 322)">
		<stop  offset="0" style="stop-color:#04B225"/>
		<stop  offset="1" style="stop-color:#005B0D"/>
	</linearGradient>
	<path style="fill:url(#SVGID_00000175282415205620706190000010929363249401484214_);" d="M315.3,137.6c23.8-24,23.8-62.8,0-86.8
		c-23.8-24-62.5-24-86.3,0c-22.1,22.2-23.7,57.2-4.8,81.3l-1.8,6.7l-2.2,8.1l8.1-2.2l6.8-1.8C259.1,161.4,293.5,159.6,315.3,137.6z"
		/>
</g>
<defs>
	<filter id="Adobe_OpacityMaskFilter" filterUnits="userSpaceOnUse" x="225.1" y="51.3" width="93.3" height="86.1">
		<feColorMatrix  type="matrix" values="1 0 0 0 0  0 1 0 0 0  0 0 1 0 0  0 0 0 1 0"/>
	</filter>
</defs>
<mask maskUnits="userSpaceOnUse" x="225.1" y="51.3" width="93.3" height="86.1" id="mask0_1362_258_00000029750546355564577010000002360109140550154882_">
	<rect x="239" y="62.1" class="st8" width="64.4" height="64.4"/>
</mask>
<g class="st9">
	<path class="st0" d="M225.1,51.3h93.3v86.1h-93.3V51.3z"/>
</g>
<path class="st10" d="M239.6,94.9l18.2,18.2c0.9,0.9,2.3,0.9,3.2,0.1l45.5-40.3"/>
</svg>
