<svg width="40" height="45" viewBox="0 0 40 45" fill="none" xmlns="http://www.w3.org/2000/svg">
<path d="M21.7778 13V25C21.7778 25.9818 20.9818 26.7778 20 26.7778C19.0182 26.7778 18.2222 25.9818 18.2222 25V13C18.2222 12.0182 19.0182 11.2222 20 11.2222C20.9818 11.2222 21.7778 12.0182 21.7778 13ZM20 8.55556C10.9187 8.55556 3.55733 15.9178 3.55733 25C3.55733 34.0818 10.9187 41.4444 20 41.4444C29.0809 41.4444 36.4427 34.0818 36.4427 25C36.4427 15.9178 29.0809 8.55556 20 8.55556ZM40 25C40 36.0458 31.0458 45 20 45C8.95422 45 0 36.0458 0 25C0 13.9542 8.95422 5 20 5C31.0458 5 40 13.9542 40 25Z" fill="#C1C3C9"/>
<path d="M26.1714 0L13.8286 0C12.8187 0 12 0.8955 12 2C12 3.1045 12.8187 4 13.8286 4L26.1714 4C27.1813 4 28 3.1045 28 2C28 0.8955 27.1813 0 26.1714 0Z" fill="#C1C3C9"/>
<path d="M36.6452 13.695L37.7097 12.6362C38.0968 12.2512 38.0968 11.6737 37.7097 11.2887C37.3226 10.9038 36.7419 10.9038 36.3548 11.2887L35.2903 12.3475C34.9032 12.7325 34.9032 13.31 35.2903 13.695C35.7742 14.2725 36.4516 13.8875 36.6452 13.695Z" fill="#C1C3C9"/>
</svg>
