<svg xmlns="http://www.w3.org/2000/svg" width="78.469" height="51" viewBox="0 0 78.469 51"><defs><style>.a{fill:#7f93a5}.e,.m{fill:none;stroke-linecap:round;stroke-linejoin:round}.e{stroke:#424761;stroke-width:2px}.m{stroke:#fff}</style></defs><path class="a" d="M60.598 41.138s1.407-5.065 3.686-2.562 3.939 2.654 3.808 5.15-1.843 5.656-2.707 6.022-8.7-3.4-8.711-4.325c-.39-5.55 3.924-4.285 3.924-4.285zM21.281 46.606s-7.757 2.151-7.6-1.231.5-6.358 2.358-8.031 8.054-1.866 10.024-.961 4.631 10.227 2.7 11.547c-3.234 2.22-7.482-1.324-7.482-1.324z"/><path d="M0 25.405s8.394-14.52 11.335-14.52h12.934c3.195 0 9.015-12.506 16.452-10.708a15.279 15.279 0 0111.673 13.045c.72 5.244-3.811 28.48-8.24 32.247-2.9 2.463.032-6.51-5.2-5.2-6.385.5-11.8-7.171-18.131-7.171S8.677 38.49 6.636 38.29 1.081 43.26 0 25.405z" fill="#e1ebf5"/><path d="M66.794 5.996c-3.122 0-12.951 6.483-13.966 7.057s-1.083 6.917-1.572 7.961-.864 3.817-.2 5.166 7.363 7.19 6.5 9.233-2.523 8.935 0 9.106c0 0-.911-6.5 5.431-6.724 2.087 1.963 1.013 5.081 5.19 4.005 5.014-1.292 4.441-6.692 3.733-7.752s3.908-6.206 3.362-7.577-2.626-8.7-3.362-10.547 1.846-8.758-5.116-9.928z" fill="#f0bdca"/><path class="e" d="M6.353 10.533V9.305a4.516 4.516 0 014.516-4.516h37.428a4.531 4.531 0 014.531 4.531v34.025H28.867M15.575 43.345H8.331a1.978 1.978 0 01-1.979-1.979V22.675"/><path d="M57.181 43.376l-4.353-.031" stroke-width="2" stroke="#424761" stroke-linecap="round" fill="none"/><path d="M69.319 17.74H58.712a1.024 1.024 0 00-1.014 1.029v9.148a1.142 1.142 0 001.124 1.149l18.009.148" fill="#fff"/><path class="e" d="M77.469 37.937v3.378a2.187 2.187 0 01-2.187 2.187h-.016l-5.173-.036"/><path d="M75.261 24.804c-1.02-1.365-5.421-1.27-5.378-3.43.036-1.833-2.534-2.662-4.27-3.019-3.8-.782-1.528-.627-5.166 1.084-1.719.808-3.088 3.992-2.586 5.8.56 2.02 2.073 1.914 2.4 2.948s4.618.35 5.722.365 3.018.924 4.617.616 4.806.468 5.436-.029-.387-3.816-.775-4.335z" fill="#9bc9f4"/><path d="M53.161 13.052h11.747a2.234 2.234 0 011.861 1L76.83 29.215a3.827 3.827 0 01.639 2.116v1.556" stroke-width="1.5" stroke="#424761" stroke-linejoin="round" stroke-linecap="round" fill="none"/><path d="M69.319 17.74H58.712a1.024 1.024 0 00-1.014 1.029v9.148a1.142 1.142 0 001.124 1.149l18.009.148" stroke-width="2" stroke="#424761" stroke-linejoin="round" fill="none"/><circle class="e" cx="6.328" cy="6.328" r="6.328" transform="translate(16.038 37.344)"/><circle class="e" cx="6.328" cy="6.328" r="6.328" transform="translate(57.227 37.344)"/><circle cx="3.192" cy="3.192" r="3.192" stroke-miterlimit="10" fill="#ededed" stroke="#424761" transform="translate(19.174 40.48)"/><circle cx="3.192" cy="3.192" r="3.192" transform="translate(60.438 40.485)" stroke-miterlimit="10" fill="#fff" stroke="#424761"/><path class="m" d="M62.142 19.332l7.741 5.676M63.125 22.101l4.139 3.036"/></svg>