<svg width="156" height="179" viewBox="0 0 156 179" fill="none" xmlns="http://www.w3.org/2000/svg">
<path d="M131.787 34.2217H24.1397C14.8641 34.2217 7.31836 26.6759 7.31836 17.4004V16.8213C7.31836 7.54574 14.8641 0 24.1397 0H131.787C141.062 0 148.608 7.54574 148.608 16.8213V17.4004C148.608 26.6759 141.062 34.2217 131.787 34.2217ZM24.1397 7.45833C18.9756 7.45833 14.7767 11.6573 14.7767 16.8213V17.4004C14.7767 22.5644 18.9756 26.7633 24.1397 26.7633H131.787C136.951 26.7633 141.15 22.5644 141.15 17.4004V16.8213C141.15 11.6573 136.951 7.45833 131.787 7.45833H24.1397Z" fill="black"/>
<path d="M95.0742 61.6367H60.8525V26.7632H95.0742V61.6367ZM68.3109 54.1784H87.6159V34.2215H68.3109V54.1784Z" fill="black"/>
<path d="M138.688 179H17.2391C12.3446 179 7.67221 176.899 4.4274 173.232C1.18259 169.568 -0.339668 164.677 0.25394 159.815L11.2885 69.2228C12.3337 60.6465 19.6354 54.1787 28.2737 54.1787H127.654C136.292 54.1787 143.594 60.6465 144.639 69.2228L155.674 159.815C156.267 164.677 154.745 169.568 151.5 173.232C148.255 176.899 143.583 179 138.688 179ZM28.2737 61.637C23.401 61.637 19.2822 65.2861 18.6886 70.126L7.654 160.719C7.3226 163.461 8.17842 166.221 10.0102 168.286C11.842 170.355 14.4787 171.542 17.2391 171.542H138.688C141.449 171.542 144.085 170.355 145.917 168.286C147.749 166.221 148.605 163.461 148.273 160.719L137.239 70.126C136.645 65.2861 132.526 61.637 127.654 61.637H28.2737Z" fill="black"/>
<path d="M77.9614 162.696C52.5382 162.696 31.853 142.011 31.853 116.587C31.853 91.1642 52.5382 70.479 77.9614 70.479C103.385 70.479 124.07 91.1642 124.07 116.587C124.07 142.011 103.385 162.696 77.9614 162.696ZM77.9614 77.9373C56.6498 77.9373 39.3114 95.2758 39.3114 116.587C39.3114 137.899 56.6498 155.237 77.9614 155.237C99.273 155.237 116.611 137.899 116.611 116.587C116.611 95.2758 99.273 77.9373 77.9614 77.9373Z" fill="black"/>
<path d="M77.9613 129.239C70.9873 129.239 65.3135 123.565 65.3135 116.588C65.3135 109.61 70.9873 103.936 77.9613 103.936C84.9389 103.936 90.6128 109.61 90.6128 116.588C90.6128 123.565 84.9389 129.239 77.9613 129.239ZM77.9613 111.394C75.0989 111.394 72.7718 113.725 72.7718 116.588C72.7718 119.45 75.0989 121.781 77.9613 121.781C80.8238 121.781 83.1545 119.45 83.1545 116.588C83.1545 113.725 80.8238 111.394 77.9613 111.394Z" fill="black"/>
<path d="M77.9616 111.394C75.9003 111.394 74.2324 109.726 74.2324 107.665V90.4723C74.2324 88.4111 75.9003 86.7432 77.9616 86.7432C80.0228 86.7432 81.6908 88.4111 81.6908 90.4723V107.665C81.6908 109.726 80.0228 111.394 77.9616 111.394Z" fill="black"/>
</svg>
