
<svg xmlns="http://www.w3.org/2000/svg" width="60" height="60" viewBox="0 0 60 60"><defs><style>.a{fill:#f7f8fc;opacity:0;}.b{fill:#87b8ff;}.c{fill:#a7e074;}.d{fill:#424761;}.e{opacity:0.14;}.f{fill:#bbdaff;}.g{fill:#5c3e31;}.h{fill:#e6e6e6;}</style></defs><g transform="translate(-524.59 -427.713)"><rect class="a" width="60" height="60" transform="translate(524.59 427.713)"/><g transform="translate(106.455 -141.143)"><path class="b" d="M435.075,586.24a11.255,11.255,0,0,0-3.838,11.376,15.155,15.155,0,0,0,5.2,7.234,60.31,60.31,0,0,0,10.937,6.779c2.087,1.1,4.263,2.218,6.618,2.314,3.934.162,7.556-2.729,9.123-6.341s1.38-7.77.444-11.594c-.952-3.887-2.746-7.714-5.848-10.242a11.546,11.546,0,0,0-5.351-2.429c-1.986-.331-3.747.375-5.687.3C442.387,583.486,438.63,583.326,435.075,586.24Z"/><path class="c" d="M439.918,595.962a4.554,4.554,0,0,0,1.817,3.633,21.2,21.2,0,0,0,2.354,1.27,3.325,3.325,0,0,1,1.737,1.938c.256,1.036-.3,2.073-.592,3.1s-.14,2.414.869,2.758a1.694,1.694,0,0,0,1.568-.374,4.563,4.563,0,0,0,1.006-1.337,36.568,36.568,0,0,0,2.23-4.688c1.064-2.721,1.789-5.811.707-8.526A3.565,3.565,0,0,0,449.5,591.5a4.727,4.727,0,0,0-2.3.113c-1.741.379-3.562.616-5.28,1.032C440.54,592.977,439.918,594.64,439.918,595.962Z"/><path class="c" d="M450.767,583.762c-.381.483-.943.866-1.089,1.464a1.708,1.708,0,0,0,.895,1.736,7.477,7.477,0,0,0,1.972.669,10.054,10.054,0,0,1,5.415,3.744,8.953,8.953,0,0,0,1.156,1.465,1.9,1.9,0,0,0,1.714.523c.78-.219,1.18-1.06,1.485-1.811.688-1.7,1.389-3.54.944-5.318a5.87,5.87,0,0,0-2.453-3.265,17.467,17.467,0,0,0-3.753-1.8c-1.173-.453-4.337-1.972-5.583-1.259C450.4,580.519,451.78,582.477,450.767,583.762Z"/><path class="c" d="M438.8,608.62a2.233,2.233,0,0,1-.715,1.3,1.885,1.885,0,0,1-1.448.16c-2.687-.544-5.825-4.888-2.463-6.82,1.106-.636,2.719-.121,3.707.535C439.61,604.944,439.292,606.859,438.8,608.62Z"/><path class="d" d="M441.1,583.989a.75.75,0,0,1-.373-1.4,16.145,16.145,0,0,1,2.7-1.23.75.75,0,1,1,.492,1.417,14.43,14.43,0,0,0-2.451,1.116A.756.756,0,0,1,441.1,583.989Z"/><path class="d" d="M448.7,612.653a16.089,16.089,0,0,1-12.2-26.58.75.75,0,0,1,1.137.979A14.588,14.588,0,1,0,463.2,598.1a.75.75,0,1,1,1.492.154A16.033,16.033,0,0,1,448.7,612.653Z"/><path class="d" d="M463.826,594.754a.75.75,0,0,1-.739-.626A14.676,14.676,0,0,0,449.6,582.007c-.192-.012-.387-.02-.583-.024-.14-.01-.23-.01-.316-.009a.75.75,0,0,1,0-1.5c.132,0,.265,0,.4.012.163,0,.377.011.59.023a15.987,15.987,0,0,1,14.88,13.371.749.749,0,0,1-.615.863A.668.668,0,0,1,463.826,594.754Z"/><g class="e"><path d="M452.446,581.7a12.766,12.766,0,0,1,6.466,11.107,11.937,11.937,0,0,1-.075,1.341,12.765,12.765,0,0,1-25.343.481,15.331,15.331,0,1,0,30.455,3.541,14.345,14.345,0,0,0,.09-1.61,15.3,15.3,0,0,0-11.593-14.86Z"/></g><path class="f" d="M440.788,585.269a3.343,3.343,0,0,1,1.3-.651,1.39,1.39,0,0,1,1.338.414c.581.725.011,1.776-.553,2.515l-3.34,4.374a3.021,3.021,0,0,1-1.249,1.118c-2.544.934-1.679-2.3-1.17-3.345A11.942,11.942,0,0,1,440.788,585.269Z"/><path class="g" d="M463.885,617.623a1.493,1.493,0,0,1-1.06-.439l-4.382-4.382a1.5,1.5,0,0,1,2.121-2.121l4.382,4.382a1.5,1.5,0,0,1-1.061,2.56Z"/><path class="h" d="M452.8,612.446a7.891,7.891,0,1,1,7.89-7.891A7.9,7.9,0,0,1,452.8,612.446Zm0-12.352a4.461,4.461,0,1,0,4.46,4.461A4.466,4.466,0,0,0,452.8,600.094Z"/><path class="d" d="M452.8,613.2a8.64,8.64,0,0,1-4.156-16.216.751.751,0,0,1,.724,1.315,7.137,7.137,0,1,0,3.432-.881.75.75,0,0,1,0-1.5,8.641,8.641,0,0,1,0,17.282Zm0-3.43a5.211,5.211,0,1,1,5.21-5.211A5.217,5.217,0,0,1,452.8,609.766Zm0-8.921a3.711,3.711,0,1,0,3.71,3.71A3.715,3.715,0,0,0,452.8,600.845Z"/></g></g></svg>
